<svg width="388" height="306" viewBox="0 0 388 306" fill="none" xmlns="http://www.w3.org/2000/svg">
<path d="M264.817 14.7766C218.351 -7.46391 187.055 32.6829 173.427 61.1702C158.396 26.3751 94.0616 9.89305 65.8027 48.3509C37.5439 86.8087 54.3789 122.825 65.8027 144.19C74.9418 161.283 163.807 219.682 207.097 246.744C234.955 205.845 288.266 120.993 296.082 101.459C299.226 93.6024 306.905 34.9212 264.817 14.7766Z" fill="#F4F0EE" stroke="#57493C" stroke-width="3"/>
<path d="M264.817 14.7766C218.351 -7.46391 187.055 32.6829 173.427 61.1702C158.396 26.3751 94.0616 9.89305 65.8027 48.3509C37.5439 86.8087 54.3789 122.825 65.8027 144.19C74.9418 161.283 163.807 219.682 207.097 246.744C234.955 205.845 288.266 120.993 296.082 101.459C299.226 93.6024 306.905 34.9212 264.817 14.7766Z" fill="#F4F0EE" stroke="#57493C" stroke-width="3"/>
<path d="M361.107 94.0367C332.585 64.6935 298.603 85.8728 280.855 103.269C279.026 73.2776 235.702 43.2796 204.425 64.0426C173.149 84.8056 175.99 116.201 178.742 135.223C180.943 150.44 231.238 218.34 256.11 250.388C287.743 227.701 350.043 179.396 361.078 167.046C365.517 162.078 386.941 120.615 361.107 94.0367Z" fill="#F4F0EE" stroke="#57493C" stroke-width="3"/>
<path d="M361.107 94.0367C332.585 64.6935 298.603 85.8728 280.855 103.269C279.026 73.2776 235.702 43.2796 204.425 64.0426C173.149 84.8056 175.99 116.201 178.742 135.223C180.943 150.44 231.238 218.34 256.11 250.388C287.743 227.701 350.043 179.396 361.078 167.046C365.517 162.078 386.941 120.615 361.107 94.0367Z" fill="#F4F0EE" stroke="#57493C" stroke-width="3"/>
<path d="M40.2263 272.647L40.1389 272.19L40.4002 272.349L52.2006 252.121L40.7998 272.572L69.5427 268.82L41.9664 273.299L62.1104 285.518L41.4715 273.379L40.3998 273.553L40.238 273.579L26.6003 298.042L39.6769 273.671L1 279.952L40.2263 272.647Z" fill="#F4F0EE"/>
<path d="M34.0326 240.293L40.2263 272.647M46.4199 305L40.2263 272.647M40.2263 272.647L1 279.952L69.5427 268.82L40.2263 272.647ZM40.2263 272.647L26.6003 298.042L52.2006 252.121L40.2263 272.647ZM40.2263 272.647L62.1104 285.518L20.8196 260.471" stroke="#F4F0EE" stroke-width="2"/>
<path d="M363.164 22.3655L363.107 22.064L363.277 22.1686L370.937 8.81103L363.536 22.316L382.194 19.8384L364.293 22.7961L377.369 30.8657L363.972 22.8491L363.276 22.9641L363.171 22.9814L354.319 39.1362L362.807 23.0416L337.701 27.1899L363.164 22.3655Z" fill="#F4F0EE"/>
<path d="M359.143 1L363.164 22.3655M367.184 43.7309L363.164 22.3655M363.164 22.3655L337.701 27.1899L382.194 19.8384L363.164 22.3655ZM363.164 22.3655L354.319 39.1362L370.937 8.81103L363.164 22.3655ZM363.164 22.3655L377.369 30.8657L350.567 14.3247" stroke="#F4F0EE" stroke-width="2"/>
</svg>
