<svg width="387" height="279" viewBox="0 0 387 279" fill="none" xmlns="http://www.w3.org/2000/svg">
<path d="M353.258 121.232C353.335 119.759 354.633 117.976 355.366 116.774C355.93 115.847 356.694 115.185 357.455 114.423C357.879 113.999 358.495 113.717 358.864 113.267C359.562 112.413 360.47 111.521 360.813 110.319" stroke="#F4F0EE" stroke-width="8" stroke-linecap="round"/>
<path d="M335.965 138.861C333.454 139.573 330.553 140.828 328.587 142.629C327.433 143.688 326.027 144.465 324.866 145.502C324.384 145.932 323.7 145.969 323.308 146.5C322.844 147.128 322.365 147.717 321.965 148.393C321.743 148.769 321.452 149.283 322.161 149.242C323.532 149.164 324.91 148.722 326.293 148.599C328.964 148.361 331.719 146.8 334.081 145.688C336.501 144.55 338.891 143.475 341.385 142.489C342.572 142.02 343.737 141.476 344.864 140.913C345.38 140.655 344.805 141.221 344.714 141.323C344.114 142.004 343.501 142.757 342.718 143.226C340.121 144.784 337.872 146.674 335.368 148.263C334.78 148.636 334.298 148.546 333.634 148.692C332.955 148.84 332.411 149.27 331.693 149.27C331.012 149.27 330.431 149.857 329.753 149.932C327.342 150.2 325.011 151.642 323.038 152.628" stroke="#F4F0EE" stroke-width="8" stroke-linecap="round"/>
<path d="M330.593 146.08C337.309 141.775 345.784 140.351 351.943 135.111C352.979 134.23 353.725 133.091 354.769 132.238C356.01 131.225 357.242 130.127 358.426 129.048C360.055 127.564 361.03 125.566 362.726 124.198C364.09 123.098 365.63 122.511 366.69 121.027C366.726 120.976 367.579 119.84 367.483 119.824C367.255 119.786 366.663 120.215 366.559 120.281C365.096 121.204 363.735 122.281 362.287 123.228C358.121 125.954 353.575 127.822 349.602 130.858C347.076 132.788 344.475 134.727 341.534 135.988C340.709 136.342 339.93 136.949 339.081 137.191C338.875 137.25 339.468 137.002 339.64 136.874C341.479 135.51 343.079 133.82 344.705 132.22C347.743 129.231 350.923 126.588 354.275 123.974C354.288 123.964 355.699 122.973 355.105 123.153C352.637 123.901 350.198 125.256 348.128 126.772C345.762 128.506 343.384 130.373 341.375 132.518C340.774 133.16 339.71 134.437 340.75 132.611C342.66 129.26 345.46 126.574 348.072 123.788C349.004 122.794 349.818 121.734 350.591 120.616C350.792 120.326 350.95 120.047 351.244 119.852C351.32 119.801 351.506 119.415 351.645 119.581C351.954 119.952 350.144 122.337 349.91 122.706C349.089 123.996 347.564 124.804 346.412 125.765C344.872 127.05 343.389 128.322 342.047 129.813C341.352 130.585 340.802 131.376 339.827 131.8C338.853 132.223 337.909 132.716 336.907 133.068C335.846 133.442 335.157 134.203 334.286 134.869C333.647 135.358 332.615 136.16 332.272 136.846" stroke="#F4F0EE" stroke-width="8" stroke-linecap="round"/>
<path d="M371.894 77.9155C371.623 79.5405 371.688 81.2184 371.633 82.8591C371.546 85.4368 371.326 88.0293 371.4 90.6101C371.411 90.9837 371.196 91.8107 371.559 91.7201C372.05 91.5972 371.707 90.7154 371.717 90.209C371.772 87.341 371.726 84.4684 371.726 81.5999C371.726 78.4516 372.23 75.3392 372.23 72.2072C372.23 70.7902 372.358 69.3033 372.025 67.9166C371.761 66.8167 371.273 66.0805 370.56 65.2489C370.498 65.1758 370.231 64.9401 370.29 65.0437C371.428 67.0357 372.275 69.2381 373.088 71.377C374.972 76.3287 376.066 81.1998 375.756 86.4967C375.675 87.8795 375.588 89.2529 375.588 90.6381C375.588 91.9617 376.437 89.7221 376.558 89.4628C377.478 87.4949 378.104 85.4102 378.843 83.3721C379.351 81.9735 380.137 80.5477 380.27 79.0441C380.335 78.3123 380.289 77.5594 380.289 76.8242C380.289 76.5102 380.292 77.4523 380.289 77.7663C380.267 79.8208 379.964 81.5003 379.356 83.4373C378.08 87.5035 377.621 91.8878 376.931 96.0853C376.218 100.421 375.032 104.569 373.918 108.817C373.334 111.047 372.645 113.757 371.139 115.598C370.714 116.117 370.376 116.802 370.047 117.389C369.744 117.932 369.497 118.127 369.581 117.314C369.76 115.587 370.276 113.906 370.672 112.222C371.52 108.626 372.322 105.026 373.247 101.449C374.04 98.3807 374.767 95.3016 375.952 92.3543C375.97 92.3083 376.843 89.9861 376.614 90.0598C374.922 90.6037 373.242 92.8523 372.23 94.1825C370.115 96.964 368.421 100.052 366.354 102.876C364.962 104.777 363.841 106.803 362.679 108.845C362.659 108.88 362.137 110.064 362.306 109.405C363.629 104.222 365.928 99.308 367.93 94.3691C368.857 92.084 370.215 89.6225 370.215 87.0844C370.215 86.7952 370.215 86.5061 370.215 86.2169C370.215 85.4911 370.013 87.6567 369.842 88.3622C369.093 91.4653 367.43 94.3277 366.372 97.3352C365.106 100.938 364.015 104.63 362.931 108.295C362.34 110.293 361.333 112.228 359.993 113.817C358.167 115.979 356.157 117.829 354.172 119.814C354.055 119.931 352.942 121.236 353.501 120.822C355.438 119.385 357.313 117.994 359.433 116.829C362.646 115.064 364.604 112.145 367.324 109.778C367.572 109.562 369.932 107.668 368.695 109.134C364.147 114.525 358.142 118.292 353.333 123.377C351.886 124.907 351.333 127.118 349.732 128.451" stroke="#F4F0EE" stroke-width="8" stroke-linecap="round"/>
<path d="M364.171 50.2133C364.269 50.0825 364.709 50.8039 364.768 50.8849C365.412 51.7658 366.276 52.468 366.923 53.3473C368.634 55.6725 368.901 58.6763 370.383 61.0891C371.458 62.8376 372.062 65.0899 372.566 67.0679C373.087 69.1165 374.274 70.9616 374.879 73.0095C375.295 74.4157 375.352 76.1923 376.092 77.4866C376.107 77.5127 376.258 77.6498 376.26 77.6359C376.414 75.7085 376.36 73.7619 376.26 71.8342C376.065 68.0797 375.697 64.3636 375.019 60.66C374.849 59.7321 374.484 58.9005 374.245 57.9924C373.719 55.99 373.511 53.9201 373.238 51.8736C373.106 50.8933 372.578 49.4295 373.946 51.0994C376.824 54.6099 377.621 60.2693 377.995 64.5962C378.261 67.6841 378.274 70.9066 378.274 74.0075C378.274 74.5945 378.39 74.8326 378.573 75.36C378.677 75.6599 378.815 75.9635 379.123 76.1435C380.428 76.9048 380.681 73.7262 380.774 73.1774C381.343 69.8073 380.61 66.5661 379.972 63.2717C379.619 61.4488 379.239 59.7364 378.61 57.9924C378.031 56.3861 377.737 54.2468 376.493 53.0022C375.805 52.3147 374.902 51.8733 374.264 51.1274C373.293 49.9931 372.886 48.2357 372.267 46.8928C371.311 44.8144 370.088 42.2741 368.191 40.9046C366.82 39.9143 365.728 39.0913 364.768 37.6773C363.768 36.2046 362.602 35.039 360.925 34.3941C360.891 34.3808 360.272 33.9356 360.272 33.937C360.383 34.1576 361.644 34.363 361.858 34.4314C362.827 34.7401 363.645 35.1462 364.47 35.7372C365.643 36.5774 367.324 37.3125 368.275 38.3955C369.02 39.2426 369.766 39.9776 370.645 40.6807C372.48 42.1489 373.192 44.4741 374.133 46.5756C374.557 47.522 375.119 48.277 375.579 49.1966C376.18 50.3998 376.295 51.7915 376.689 53.0675C377.407 55.3978 378.274 57.471 378.274 59.9511" stroke="#F4F0EE" stroke-width="8" stroke-linecap="round"/>
<path d="M316.658 54.5785C316.699 54.9108 317.1 55.2632 317.152 55.7351C317.199 56.1618 317.177 56.6323 317.161 57.0596C317.133 57.8304 316.826 57.2203 316.826 56.7611C316.826 56.002 317.271 54.9999 317.917 54.5691C318.571 54.1332 318.7 53.3985 319.68 53.2353C320.76 53.0553 317.529 52.7317 316.434 52.7317C315.365 52.7317 314.304 52.8995 313.225 52.8995C311.782 52.8995 311.06 52.656 310.035 51.631C309.742 51.338 309.678 50.7841 309.438 50.4371C309.202 50.0959 309.076 49.7118 308.897 49.3738C308.703 49.0077 307.943 48.0208 308.347 47.5363C308.706 47.105 309.357 46.6875 309.942 46.6875" stroke="#F4F0EE" stroke-width="8" stroke-linecap="round"/>
<path d="M326.395 46.1839C324.821 47.4356 323.297 48.7466 321.732 50.0081C321.184 50.4488 320.48 51.2387 319.763 51.3979C319.109 51.5433 318.735 52.4972 318.598 53.0488C318.488 53.4864 318.425 53.9002 318.001 54.1121C317.771 54.2267 316.209 55.2785 316.695 54.6345C318.174 52.6745 319.589 50.6686 321.06 48.7022C322.702 46.5072 324.637 44.8081 326.759 43.0965C327.012 42.8922 327.708 42.5308 327.897 42.2477C328.003 42.088 327.554 42.4209 327.384 42.5089C326.352 43.0413 325.336 43.5671 324.381 44.2344C321.599 46.1774 319.007 48.5527 316.452 50.7823C315.421 51.6825 314.422 52.6602 313.15 53.2167C311.636 53.8793 313.617 51.6174 313.738 51.4632C317.082 47.2125 321.054 43.4392 324.642 39.3935C325.76 38.1329 326.848 36.8554 328.093 35.7185C329.009 34.8816 326.136 37.2499 325.22 38.0877C321.718 41.2907 317.016 42.6702 313.188 45.4563C311.721 46.5235 310.292 47.6171 308.785 48.6276C308.739 48.6584 307.741 49.4697 307.871 48.9821C308.464 46.7568 311.119 44.7629 312.759 43.3856C315.844 40.7943 318.987 38.2531 322.105 35.6999C322.389 35.467 323.02 34.7942 323.065 35.1589C323.095 35.3927 322.279 36.159 322.235 36.2035C321.434 37.0284 320.572 37.7663 319.614 38.4048C318.092 39.4199 316.434 40.22 314.913 41.2403C313.721 42.04 312.64 42.9658 311.415 43.7214C309.093 45.1547 311.243 42.5825 311.975 41.9119C315.06 39.0869 318.415 36.5178 321.816 34.1049C323.565 32.8636 325.045 31.8906 327.104 31.2041C328.233 30.8277 329.446 30.4792 330.518 29.9728C331.663 29.432 332.958 29.2097 334.1 28.639C335.358 28.0097 336.526 27.6401 337.905 27.3798C340.121 26.9618 342.562 27.1897 344.77 27.5477C345.45 27.6579 346.151 27.8597 346.841 27.8835C347.542 27.9077 346.212 28.0876 346.207 28.0887C341.006 29.101 335.697 31.0152 330.835 33.0882C328.3 34.1693 325.968 35.6232 323.672 37.1363C322.472 37.9266 320.761 38.7081 319.847 39.8599C319.566 40.215 320.729 39.6318 321.144 39.4495C324.213 38.1012 327.31 36.8037 330.35 35.3921C332.664 34.3178 335.004 33.2842 337.467 32.6685C337.52 32.6552 338.22 32.4999 338.166 32.6498C338.017 33.0694 337.431 33.6181 337.159 33.909C335.947 35.2066 334.595 36.3517 333.214 37.4627C330.324 39.786 327.167 42.3004 323.793 43.8986C323.549 44.014 322.778 44.2524 323.019 44.1318C324.713 43.2847 326.683 42.8548 328.447 42.1544C331.123 41.0924 333.343 39.2618 335.797 37.7892" stroke="#F4F0EE" stroke-width="5" stroke-linecap="round"/>
<path d="M342.849 34.4313C346.774 34.6692 350.647 34.4313 354.564 34.4313C355.35 34.4313 356.128 34.4697 356.905 34.5992C357.793 34.7472 356.842 34.9229 356.429 34.8977C351.861 34.6187 347.592 33.0434 343.213 31.8663C342.144 31.5791 341.29 31.0918 340.284 30.6817C340.149 30.6267 339.323 30.4172 339.883 30.1967C342.094 29.3246 345.051 29.3585 347.382 29.4691C350.29 29.6072 353.363 29.8885 356.14 30.803C356.761 31.0072 359.611 32.1521 357.194 31.8383C353.21 31.3208 349.412 29.708 345.451 29.0121C344.406 28.8285 343.303 28.773 342.28 28.5457C342.123 28.5109 342.177 28.2526 342.177 28.1353C342.177 27.4775 344.295 27.2809 344.677 27.2119C345.888 26.9929 348.214 26.3885 349.471 26.9601C350.305 27.3393 351.137 27.9762 351.747 28.667C352.658 29.6973 353.915 30.4886 354.76 31.5865C355.212 32.1737 355.954 32.8885 356.616 33.2561C358.254 34.1662 359.472 35.655 360.711 37.015C361.733 38.1373 362.673 39.3238 363.5 40.5874C365.088 43.0147 365.899 45.9566 367.324 48.497C367.673 49.1191 368.124 49.6819 368.462 50.3065C368.586 50.5369 368.938 50.8269 368.564 50.5024C367.089 49.2191 365.219 48.3808 363.835 47.0233C362.922 46.1263 362.63 45.0121 361.634 44.1691C360.645 43.3324 359.38 42.3319 358.127 41.9492C357.559 41.7757 356.728 41.3186 356.252 40.9698C355.241 40.228 354.012 39.808 352.997 39.095C352.163 38.5091 351.489 38.0351 350.74 37.2855C349.512 36.0574 347.718 35.5444 346.048 35.3547C344.323 35.1587 341.61 34.8619 339.995 35.5226C337.994 36.341 336.556 37.2753 334.79 38.5447C333.852 39.2187 332.918 39.8316 332.01 40.5314C331.315 41.0676 330.568 41.2822 329.902 41.7999C329.381 42.2056 328.473 42.2416 327.869 42.6581C327.187 43.1287 326.462 43.5984 325.892 44.1691" stroke="#F4F0EE" stroke-width="8" stroke-linecap="round"/>
<path d="M125.468 252.537C125.322 252.585 124.668 252.899 124.751 252.885C127.353 252.432 129.928 251.726 132.514 251.186C137.268 250.194 142.013 249.137 146.849 248.624C148.226 248.478 149.588 248.478 150.964 248.394C151.22 248.379 151.775 248.067 152.008 248.151C152.249 248.236 151.595 248.454 151.374 248.582C149.953 249.41 148.503 250.175 147.044 250.935C145.216 251.889 143.405 252.875 141.579 253.832C139.713 254.808 141.387 253.95 141.996 253.734C144.7 252.775 147.25 251.489 149.947 250.532C150.465 250.348 152.042 249.862 151.528 250.058C150.516 250.443 149.69 251.11 148.847 251.771C147.936 252.486 149.366 250.925 149.516 250.754C149.904 250.312 150.964 249.621 149.864 249.473C148.375 249.273 147.052 249.755 145.645 250.183C143.782 250.75 141.837 251.316 139.894 251.534C138.179 251.727 136.641 251.594 135.034 251.096C133.752 250.698 132.185 250.715 130.857 250.789C128.197 250.937 125.852 253.096 123.407 253.985C119.739 255.319 115.952 253.578 112.253 253.692C109.22 253.786 106.236 254.288 103.216 254.528C97.5535 254.978 91.7783 254.667 86.1031 254.667C76.0124 254.667 65.9218 254.667 55.8311 254.667C55.5085 254.667 55.1859 254.667 54.8634 254.667C54.7129 254.667 55.0865 254.461 55.2184 254.389C56.8918 253.472 58.6216 252.648 60.3427 251.827C62.9325 250.591 65.5281 249.459 68.3423 248.854C68.8386 248.747 69.6491 248.376 70.1316 248.652C70.5406 248.885 69.5018 249.415 69.4772 249.432C67.9394 250.497 66.3026 251.684 64.4086 251.959C62.4079 252.25 60.3536 252.492 58.3375 252.662C56.0759 252.852 53.7197 252.986 51.5284 252.314C50.0627 251.864 48.5912 251.341 47.1631 250.782C46.6238 250.571 46.2435 250.353 45.8611 249.933C45.3536 249.375 45.0702 248.692 44.6706 248.06C44.0791 247.125 43.3965 246.256 43.3965 245.094C43.3965 243.979 44.8387 243.352 45.6523 242.915C47.938 241.687 50.8308 240.622 53.45 240.506C54.1557 240.475 54.6777 240.634 55.3438 240.805C56.3397 241.061 56.1612 240.09 56.1444 239.294C56.106 237.472 55.8438 235.193 54.2576 234.115C52.8494 233.157 50.8868 233.112 49.21 233.112C47.0411 233.112 53.5885 233.207 55.7058 232.736C56.2585 232.613 57.0118 232.324 57.5995 232.492C58.4603 232.738 56.9233 232.736 56.6666 232.736" stroke="#F4F0EE" stroke-width="5" stroke-linecap="round"/>
<path d="M211.446 233.36C209.297 233.512 207.186 233.331 205.055 233.072C203.927 232.935 202.748 232.721 201.611 232.713C200.489 232.704 199.364 232.648 198.246 232.648" stroke="#F4F0EE" stroke-width="5" stroke-linecap="round"/>
<path d="M161.363 256.136C161.579 256.044 161.69 255.78 161.816 255.597C162.073 255.226 162.372 254.895 162.675 254.562C163.464 253.695 164.253 252.83 165.152 252.074C165.415 251.853 165.689 251.542 166.054 251.542C166.226 251.542 165.726 251.641 165.562 251.693C164.761 251.947 164.011 252.263 163.286 252.689C161.567 253.701 159.764 254.634 157.912 255.382C157.051 255.729 156.184 256.137 155.281 256.363C154.776 256.489 154.047 256.347 154.245 257.042" stroke="#F4F0EE" stroke-width="5" stroke-linecap="round"/>
<path d="M31.3949 250.553C29.8839 250.828 28.375 251.125 26.8455 251.278C26.0181 251.36 26.1705 251.984 26.5253 252.693C27.4881 254.619 29.6134 256.106 31.2938 257.344C32.8767 258.51 34.652 259.574 36.4583 260.36C36.741 260.483 37.5801 260.855 37.3261 260.68C36.8994 260.387 36.5615 259.988 36.1045 259.736C35.6352 259.478 35.3859 259.197 34.8407 259.197C33.5555 259.197 32.4024 258.591 31.1674 258.591C30.8549 258.591 30.6453 258.337 30.4008 258.169C29.9212 257.841 29.2146 257.65 28.6652 257.462C28.0089 257.236 27.3948 256.926 26.7275 256.737C26.3458 256.629 26.0953 256.251 25.7165 256.088C25.3215 255.919 25.3736 255.656 25.1099 255.406C24.8832 255.191 24.2614 255.04 23.9641 254.959C23.1737 254.744 22.4051 254.438 21.622 254.193C20.8025 253.936 20.0868 253.449 19.2967 253.199C17.9195 252.761 16.5481 252.445 15.2022 251.918C14.5151 251.649 14.2162 251.119 13.6183 250.705C11.7921 249.441 10.0138 247.748 8.04102 246.762" stroke="#F4F0EE" stroke-width="5" stroke-linecap="round"/>
<path d="M31.8506 256.923C33.9303 256.969 36.0696 257.213 38.0513 257.816C38.4846 257.948 38.9299 257.879 39.2308 258.22C39.5258 258.554 40.0787 258.886 40.4946 259.046C41.3608 259.379 42.1645 259.632 43.0557 259.88C44.7311 260.345 45.956 258.922 47.1671 257.984" stroke="#F4F0EE" stroke-width="5" stroke-linecap="round"/>
<path d="M133.758 242.819C129.801 242.819 125.787 243.073 121.836 243.266C120.376 243.337 118.974 243.509 117.531 243.729C115.253 244.076 112.86 244.054 110.555 244.032C108.563 244.014 106.587 243.532 104.633 243.207C102.484 242.849 100.387 242.575 98.2635 242.12C96.64 241.772 95.0526 241.37 93.5708 240.629C92.7117 240.199 91.6762 239.483 90.6895 239.483" stroke="#F4F0EE" stroke-width="5" stroke-linecap="round"/>
<path d="M67.7911 240.393C66.5783 236.956 61.2391 235.857 58.153 236.905C54.6161 238.106 51.1048 238.519 47.3607 238.581C43.0784 238.653 38.9092 238.538 34.639 238.202C32.4267 238.028 30.0781 237.992 27.857 238.126C25.4641 238.271 23.0718 239.813 21.0496 240.966C20.023 241.551 19.0467 242.185 18.0503 242.819C17.3476 243.266 16.5557 243.406 15.843 243.813C15.481 244.02 15.1778 243.966 14.7983 244.066C14.4447 244.159 14.1363 244.462 13.7705 244.487C13.5858 244.5 11.6874 244.261 11.8833 243.948C13.1251 241.961 17.0704 241.802 19.0445 241.614C23.45 241.196 27.8643 240.976 32.2716 241.471C38.918 242.217 45.6148 243.192 52.1123 244.791C57.1463 246.029 62.1945 247.161 67.2098 248.481C69.7869 249.159 71.8133 249.033 74.3289 248.16C75.9699 247.591 77.4946 246.835 79.1816 246.425C79.2554 246.407 79.7339 246.303 79.5692 246.341C78.6738 246.545 77.6839 246.532 76.7721 246.577C75.0835 246.659 73.5372 246.49 71.8856 246.307C70.7354 246.179 71.3903 241.805 71.456 241.235C71.7426 238.745 72.0702 236.246 72.408 233.762C72.4946 233.125 72.7848 232.21 72.6355 231.538C72.5704 231.245 71.4564 230.927 71.2032 230.847C69.8251 230.412 68.4421 230.729 67.1845 231.327C66.1352 231.827 68.6804 232.131 68.9706 232.204C70.8296 232.671 72.4873 233.509 74.2446 234.226C75.2622 234.641 76.5794 234.933 77.682 234.933C78.3211 234.933 78.513 235.267 79.089 235.388C81.6309 235.923 83.348 237.929 84.1692 240.393" stroke="#F4F0EE" stroke-width="5" stroke-linecap="round"/>
<path d="M183.651 238.876C183.378 238.837 184.079 238.519 184.333 238.413C185.942 237.738 187.743 237.424 189.43 236.997C191.274 236.531 193.03 235.692 194.957 235.692C196.375 235.692 197.787 235.999 199.203 235.776C202.078 235.322 204.69 234.327 207.611 234.327C208.24 234.327 208.869 234.327 209.498 234.327C210.57 234.327 208.806 234.327 208.546 234.327C206.824 234.327 205.122 234.067 203.432 233.754C203.067 233.686 202.075 233.569 203.045 233.569C204.921 233.569 206.797 233.569 208.673 233.569C208.768 233.569 210.512 233.649 210.509 233.653C210.037 234.315 207.488 233.727 206.853 233.72C205.54 233.706 204.302 233.387 203.003 233.274C201.657 233.157 200.096 233.389 198.815 232.962" stroke="#F4F0EE" stroke-width="5" stroke-linecap="round"/>
<path d="M226.719 236.905C227.749 238.216 228.225 239.839 227.78 241.505C227.595 242.199 227.366 242.703 227.325 243.426C227.314 243.629 227.177 243.773 227.056 243.914C226.259 244.844 228.349 241.835 228.985 240.789C229.559 239.844 230.645 238.878 230.51 237.663C230.457 237.183 228.655 236.663 228.303 236.517C227.687 236.262 227.041 236.147 226.416 235.928C225.097 235.465 223.879 234.746 222.557 234.276C218.743 232.921 214.504 232.086 210.459 232.659C205.571 233.351 200.558 233.114 195.631 233.114" stroke="#F4F0EE" stroke-width="5" stroke-linecap="round"/>
<path d="M67.334 245.54C63.6898 246.05 60.0615 246.455 56.3944 246.754C53.2679 247.009 50.1504 247.507 47.009 247.507C46.9377 247.507 45.3181 247.603 46.1105 247.313C50.6364 245.655 55.6919 245.266 60.3404 243.962C64.2518 242.865 68.1344 241.659 71.9478 240.259C72.877 239.917 75.4938 238.876 74.8496 239.627C72.6244 242.223 68.0566 243.102 64.9664 243.865C59.5662 245.198 54.1203 245.941 48.5995 246.524C46.9106 246.702 45.0873 247.289 43.3908 247.289C41.7371 247.289 46.4815 246.095 48.0774 245.662C53.0743 244.305 57.8445 242.34 62.6473 240.429C64.1587 239.827 65.6719 239.217 67.2125 238.692C67.5725 238.57 68.5522 238.153 68.3296 238.462C66.9832 240.326 63.5925 241.311 61.5789 241.971C57.2344 243.394 52.7091 244.552 48.1503 245.006C47.1384 245.107 46.0622 245.171 45.042 245.103C44.7884 245.086 45.5346 244.977 45.7827 244.921C47.6561 244.502 49.5138 244.023 51.3799 243.573" stroke="#F4F0EE" stroke-width="2" stroke-linecap="round"/>
<path d="M50.0687 240.732C57.1059 243.975 64.104 247.351 71.4014 249.984C73.5726 250.767 75.8188 251.453 78.1157 251.757C78.3094 251.782 80.091 251.967 79.7548 251.805C75.362 249.697 70.5511 248.399 66.047 246.512C61.3842 244.558 56.6419 242.814 52.0113 240.781C51.2688 240.455 50.4202 240.247 51.9628 240.295C58.2649 240.493 64.2449 242.637 69.738 245.613C71.0983 246.35 72.3946 247.184 73.6962 248.017C74.3049 248.407 74.3811 248.522 73.4533 248.697C67.1391 249.891 60.963 247.55 55.0953 245.516C51.619 244.311 41.0577 241.118 44.5079 242.396C48.5876 243.907 52.6811 245.312 56.7344 246.9C57.1429 247.06 58.3148 247.245 58.6285 247.629C59.0491 248.143 57.3964 248.193 56.7344 248.248C50.8239 248.736 44.5656 247.585 38.8377 246.184C37.0037 245.735 35.1761 245.244 33.3983 244.605C32.9766 244.454 32.3117 244.618 32.1113 244.217C32.0466 244.088 32.3842 244.12 32.5241 244.083C33.1553 243.918 33.5824 243.81 34.2604 243.695C36.7456 243.272 39.2952 243.233 41.8003 242.978C49.4982 242.195 72.5487 239.538 64.9057 240.744C60.144 241.496 55.1847 241.14 50.3844 241.218C45.5146 241.297 40.4756 241.808 35.6688 240.781C35.5527 240.756 34.158 240.641 34.8189 240.319C36.1413 239.677 37.6712 239.412 39.117 239.251C43.7492 238.734 48.4763 239.007 53.1284 238.984C54.4247 238.977 58.2992 238.647 57.0137 238.814C52.5612 239.392 48.1562 240.037 43.7308 240.805C40.2425 241.41 36.6866 241.794 33.1433 241.825C30.3998 241.849 33.9878 240.536 34.8189 240.247C39.8336 238.502 45.0318 237.342 50.0444 235.584C54.7309 233.941 59.5667 232.245 64.6143 232.44C64.996 232.454 66.2777 232.409 66.4598 232.865C66.9255 234.029 62.8164 234.565 62.2224 234.698C57.6433 235.719 53.1351 235.983 48.4781 236.276C45.1775 236.484 41.9208 236.94 38.607 237.005C37.3366 237.029 36.0652 237.017 34.7946 237.017C33.7009 237.017 36.9819 236.96 38.0728 236.883C41.1383 236.668 44.158 236.276 47.2276 236.118C49.119 236.021 50.9826 235.449 52.7641 234.831C53.116 234.709 55.2203 234.394 54.0268 234.394C50.9903 234.394 48.0189 234.452 44.9935 234.661C41.7865 234.883 38.5727 235.282 35.3652 235.596C32.6777 235.86 29.9753 236.234 27.3154 236.677C25.1196 237.043 23.03 236.895 20.9046 237.503C19.2466 237.976 17.5362 237.725 15.9266 238.328C14.6602 238.803 13.347 239.301 12.0899 239.688C11.1019 239.992 10.8007 240.485 9.97723 241.121C8.75193 242.066 6.71677 242.502 5.71554 243.67C5.49209 243.931 5.0048 243.812 5.63055 244.229C6.52205 244.823 7.65342 245.145 8.64166 245.54C10.1438 246.141 11.5774 246.911 12.7091 248.09C14.2294 249.674 15.9015 250.684 17.7964 251.732C19.1998 252.509 20.6984 252.72 22.1916 253.238C24.6665 254.097 27.588 253.61 30.1808 253.894C32.4319 254.14 34.7363 254.275 36.9558 254.719" stroke="#F4F0EE" stroke-width="5" stroke-linecap="round"/>
<path d="M65.3673 242.699C70.8736 243.25 76.3542 244.607 81.8919 244.848C86.6958 245.057 91.4524 244.631 96.1826 245.662C97.3583 245.918 98.728 245.977 99.9343 245.977C101.306 245.977 97.2436 245.434 95.9155 245.091C93.9966 244.595 92.0689 243.912 90.1118 243.585C88.2632 243.277 87.6743 241.332 86.1051 240.404C84.9456 239.719 83.4453 239.163 82.414 238.328C82.2449 238.191 81.9315 238.185 81.8069 238.061C81.4219 237.676 82.9075 238.068 83.4339 238.207C85.5135 238.756 86.7119 239.809 88.5577 240.732C91.1446 242.026 93.86 242.237 96.6197 242.918C102.225 244.301 107.687 245.322 113.496 245.322C115.756 245.322 118.033 245.759 120.32 245.759C123.214 245.759 126.053 245.735 128.916 245.273C132.17 244.748 135.343 243.296 138.702 243.124C139.908 243.062 141.046 242.699 142.248 242.699C143.753 242.699 145.259 242.699 146.764 242.699C147.812 242.699 145.875 243.157 145.866 243.16C142.349 244.408 138.894 245.819 135.327 246.924C132.264 247.873 129.023 248.522 125.832 248.891C123.423 249.17 120.989 248.967 118.572 249.085C115.401 249.241 112.214 249.185 109.053 249.486C103.816 249.985 98.684 250.909 93.4386 251.332C93.3163 251.342 91.2487 251.441 92.103 251.441C97.5523 251.441 103.002 251.4 108.446 251.125C115.91 250.749 123.342 249.866 130.81 249.571C133.67 249.458 136.898 249.099 139.747 249.644C143.339 250.332 132.44 250.063 128.783 250.118C122.511 250.211 116.101 249.888 109.927 248.721C106.195 248.016 102.009 247.608 98.3923 246.402C97.3921 246.069 96.5208 245.759 95.4541 245.759C94.5309 245.759 96.0244 246.064 96.3283 246.232C98.2616 247.302 100.287 248.154 102.423 248.746C104.934 249.441 107.573 249.479 110.073 250.178C110.386 250.266 111.857 250.58 110.85 250.834C107.028 251.798 102.913 252.014 98.9994 252.267C93.5276 252.62 88.0749 253.045 82.6204 253.614C78.9481 253.997 75.3261 254.505 71.6323 254.61C60.3273 254.931 48.9553 253.902 37.8423 251.781C37.4994 251.715 33.5089 251.248 33.4107 250.737C33.3107 250.217 42.7746 250.579 43.3425 250.615C48.9097 250.969 54.4351 251.783 59.9886 252.291C67.0967 252.941 74.1093 253.096 81.2363 252.874C83.7029 252.797 86.9533 252.246 89.3833 252.971C89.8497 253.11 89.163 253.272 89.1405 253.274C88.0237 253.41 86.8154 253.148 85.7408 252.898C80.0207 251.568 74.4321 249.539 68.864 247.701C64.1618 246.149 59.4675 245.14 54.6341 244.132C52.003 243.583 49.434 242.841 46.8271 242.201C45.5018 241.876 46.1925 241.655 47.3006 241.655C50.3947 241.655 53.5683 242.317 56.6011 242.845C61.0902 243.626 65.2839 244.548 69.3497 246.633C70.4164 247.18 75.5582 249.209 72.4337 250.433C69.076 251.749 64.5626 251.33 61.0327 251.307C59.4744 251.297 57.8745 251.307 56.3461 250.967C53.3816 250.309 50.3934 249.748 47.4463 249.013C43.3 247.978 39.3187 246.459 35.2076 245.322C32.0445 244.446 28.385 244.227 25.3972 242.808C23.7353 242.019 22.223 241.421 20.3463 241.388C19.9486 241.381 19.4792 241.328 19.0836 241.388C18.877 241.419 19.3596 241.708 19.5329 241.825C20.6347 242.567 21.7121 243.324 22.7504 244.156C26.4875 247.149 30.0789 250.192 34.6491 251.854C36.7633 252.623 29.3898 251.431 28.3476 249.438C26.2209 245.369 32.4891 243.045 35.3776 242.238C35.852 242.105 38.1058 241.291 38.6558 241.703C39.4697 242.314 38.6008 244.942 38.2916 245.564C36.7905 248.585 31.6892 251.956 28.1412 251.32C27.1503 251.142 25.7056 249.627 25.5915 248.6C25.5834 248.527 24.7744 249.806 24.2195 250.13C23.0238 250.827 19.5187 252.092 18.2823 250.773C17.2095 249.629 15.1043 247.674 16.5582 246.099C17.5733 244.999 19.3221 244.741 20.7106 244.484C22.3507 244.181 24.5574 243.808 26.1864 244.46C28.824 245.515 21.5718 246.147 21.002 246.147C17.8126 246.147 14.2429 245.07 11.143 244.326C10.5525 244.184 9.34036 244.179 9.21252 243.476C8.90533 241.787 6.06117 241.717 4.82941 241.169C3.64238 240.642 4.41779 240.951 5.48506 240.951C8.55809 240.951 11.633 240.724 14.6884 240.404C18.7782 239.976 22.61 239.632 26.6842 239.858C27.468 239.901 27.1767 240.19 27.7891 240.611C28.5468 241.132 29.4615 241.572 30.3024 241.946C31.8609 242.639 33.866 242.225 35.5354 242.602C35.8261 242.668 36.9939 242.765 37.1503 243.039C37.5381 243.718 33.6477 245.549 33.4107 245.662C30.7014 246.947 27.8311 247.853 25.1301 249.158C24.8866 249.276 23.2983 249.84 23.236 250.275C23.092 251.284 25.9414 252.212 26.4414 252.449C29.0274 253.672 31.6752 254.67 34.3334 255.715C37.6433 257.015 40.7067 258.761 44.1924 259.6C46.6601 260.194 49.5127 259.823 51.9873 259.527C55.233 259.14 58.4524 259.368 61.7005 259.636C65.3429 259.937 68.7415 261.092 72.3851 261.324C73.3515 261.386 74.3054 261.494 75.2748 261.494C76.8065 261.494 74.6468 261.125 74.2428 261.021C65.9664 258.89 57.3238 257.456 48.8547 256.346C45.546 255.913 42.2233 255.475 38.9229 254.986C37.9144 254.837 36.939 254.501 35.9118 254.501C31.9871 254.501 43.7614 254.695 47.677 254.962C52.8602 255.315 57.9004 256.198 63.0239 256.99C64.9041 257.28 66.8169 257.826 68.7305 257.767C79.8733 257.424 90.7934 257.203 101.865 258.823C106.23 259.461 110.648 260.62 115.075 260.62C115.732 260.62 115.034 260.564 114.613 260.523C109.617 260.029 104.78 260.251 99.7765 260.571C93.5112 260.972 87.0182 261.633 80.7385 261.13C78.3769 260.941 75.6558 260.594 73.405 259.794C72.9967 259.649 72.8693 259.371 73.3686 259.309C78.7984 258.63 84.3907 258.698 89.8447 258.289C98.2405 257.66 106.607 256.689 115.002 256.067C115.345 256.041 123.366 255.657 123.331 255.375C123.253 254.754 115.174 254.615 114.686 254.598C108.894 254.391 103.087 254.714 97.2996 254.938C94.3357 255.052 91.3781 255.156 88.412 255.156C88.1853 255.156 87.508 255.179 87.732 255.144C88.7952 254.981 89.9771 254.988 91.0345 254.938C97.2988 254.642 103.63 254.064 109.903 254.064C111.563 254.064 106.594 253.754 104.949 253.529C99.8144 252.827 94.6517 252.218 89.529 251.441C86.4815 250.979 83.5461 250.144 80.5564 249.425C79.9 249.268 79.5153 249.209 79.0265 248.818C78.5129 248.407 80.3483 248.848 80.9935 248.976C85.1661 249.804 89.4121 250.54 93.6328 251.077C93.8895 251.109 97.383 251.675 96.3768 251.271C92.8284 249.846 89.2781 248.645 85.838 246.949C83.1568 245.627 80.3897 244.37 77.4846 243.622C76.4405 243.353 79.9512 243.832 80.1557 243.889C84.4691 245.094 89.0993 245.9 93.2079 247.726C94.5501 248.322 90.305 247.146 88.9583 246.56C84.8813 244.785 81.1002 242.633 76.8775 241.145C75.2867 240.584 73.7793 239.872 72.2151 239.251C71.9998 239.165 71.5613 239.06 71.438 238.814C71.4026 238.743 73.4916 239.112 73.5143 239.117C74.5386 239.361 75.5634 239.607 76.5861 239.858C77.1196 239.989 78.5529 239.943 78.1645 240.331C77.8147 240.681 74.0812 238.608 73.7207 238.401C71.367 237.049 69.5002 235.033 67.1642 233.641C65.2591 232.507 66.7763 233.732 67.4556 234.516C68.044 235.194 68.9779 235.956 69.4226 236.75C69.6617 237.177 68.0766 236.441 68.0627 236.434C66.6544 235.685 65.3207 234.81 63.7889 234.321C62.4215 233.885 61.3656 233.918 63.0118 235.341C64.358 236.505 66.2767 238.129 68.0991 238.534C68.9997 238.735 68.6455 236.607 68.6455 236.021C68.6455 234.572 70.9327 234.638 72.0451 234.613C73.5203 234.58 74.2843 234.793 73.1136 233.107C72.6934 232.502 72.159 232.049 71.5837 231.602C71.3792 231.443 70.721 231.073 70.9767 231.116C71.8513 231.262 72.7122 231.986 73.4536 232.427C74.5119 233.057 75.6421 233.592 76.5861 234.394C77.9343 235.54 78.9933 236.921 80.5685 237.77C82.0043 238.543 83.6581 238.927 85.1216 239.603C85.3476 239.707 85.6261 239.704 85.8622 239.809C87.2097 240.408 82.9382 239.413 81.4913 239.129C79.3909 238.718 72.9402 238.765 75.0805 238.765C76.2386 238.765 77.3706 238.952 78.5166 239.105C82.9722 239.702 87.4857 239.916 91.848 241.084C93.9845 241.656 96.0613 242.509 97.8581 243.816C98.1981 244.063 98.6725 244.491 98.5866 244.982C98.4053 246.017 96.8664 246.837 96.0976 247.361C94.8779 248.194 93.6329 248.686 92.2487 249.158C89.1338 250.22 85.9351 251.004 82.6204 251.004C78.1304 251.004 73.8549 251.53 69.4226 251.927C67.1812 252.127 64.8629 252.522 62.684 253.092C60.1712 253.75 57.4539 254.022 54.9984 254.841C53.4612 255.353 51.9335 255.423 50.3846 255.86C49.8942 255.999 48.8444 256.147 49.6197 256.71C50.7547 257.536 52.2346 257.78 53.5414 258.216C54.7268 258.611 55.8822 259.092 57.0867 259.43C58.1225 259.721 59.1825 259.755 60.195 260.134C60.9029 260.4 61.973 260.793 62.7447 260.839C63.6074 260.889 64.3543 261.494 65.258 261.494C66.2532 261.494 63.975 261.349 63.6432 261.276C60.9547 260.678 58.0774 260.62 55.314 260.62" stroke="#F4F0EE" stroke-width="5" stroke-linecap="round"/>
<path d="M183.821 237.891C179.536 238.466 175.668 240.557 171.667 242.092C168.232 243.409 164.551 244.187 161.225 245.722C160.079 246.251 163.693 245.179 164.941 244.982C167.648 244.554 170.226 243.734 172.723 242.614C173.654 242.197 174.931 241.328 175.953 241.388C176.39 241.413 175.726 242.336 175.346 242.553C171.54 244.732 167.194 245.865 163.034 247.143C162.495 247.308 160.678 247.955 161.104 248.806C161.459 249.516 162.815 249.2 163.277 250.008C163.44 250.293 164.025 250.06 164.224 249.984C167.025 248.919 169.505 247.22 172.359 246.244C173.527 245.845 174.689 245.433 175.856 245.03C176.96 244.649 174.812 244.67 174.763 244.666C169.414 244.171 164.041 244.873 158.712 245.322C154.349 245.689 149.995 246.257 145.635 246.596C145.215 246.629 144.01 246.751 144.373 246.536C145.926 245.615 147.568 244.867 149.108 243.913C154.555 240.537 159.669 236.102 165.96 234.321C169.114 233.429 172.542 233.52 175.783 233.52C182.764 233.52 189.598 233.867 196.569 234.443C199.684 234.7 202.786 235.076 205.906 235.268C208.683 235.439 211.388 236.453 214.041 237.211C215.414 237.603 216.856 238.503 218.23 238.753C218.544 238.81 218.892 238.87 219.007 239.214C219.214 239.837 220.097 240.323 220.44 240.951C220.958 241.901 221.933 242.599 222.382 243.622C222.64 244.208 223.462 245.163 223.936 245.637C224.279 245.98 224.784 245.9 224.896 246.511C224.967 246.901 224.816 247.274 225.223 247.507C225.452 247.637 225.278 247.987 225.563 248.114C226.332 248.456 227.937 246.445 228.307 246.074C229.62 244.761 230.85 243.364 232.387 242.359C233.729 241.482 234.524 241.308 234.524 239.421C234.524 237.145 233.312 235.837 231.027 235.22C229.496 234.806 227.985 234.925 226.425 234.613C223.712 234.07 220.829 234.176 218.072 234.176C216.287 234.176 214.502 234.176 212.718 234.176C211.679 234.176 214.796 234.262 215.826 234.394C217.583 234.62 219.255 235.156 220.998 235.438C222.648 235.706 226.001 237.288 226.001 239.312C226.001 240.835 229.695 240.561 230.59 240.416C231.797 240.221 233.221 239.825 234.305 239.251C234.68 239.053 235.193 238.59 235.398 238.231C235.858 237.426 236.486 238.385 236.819 238.644C237.095 238.859 237.985 239.418 237.754 239.858C237.497 240.346 235.216 241.18 234.694 241.169C231.446 241.1 228.26 240.514 224.993 240.514C222.392 240.514 219.767 240.403 217.174 240.623C215.494 240.765 213.78 241.288 212.098 241.048C206.302 240.22 200.797 238.445 194.87 239.469C192.196 239.931 189.788 241.52 187.111 242.092C185.586 242.418 184.072 242.48 182.522 242.48C179.759 242.48 177.051 243.042 174.739 244.557C173.911 245.099 173.053 245.854 172.165 246.269C170.828 246.893 170.203 245.353 169.348 244.545C168.412 243.659 167.35 242.909 166.434 242.043C166.23 241.851 165.527 241.247 165.511 240.951C165.417 239.202 171.085 238.287 172.092 237.988C174.502 237.273 177.519 236.687 179.717 235.414C180.74 234.822 178.849 235.468 178.503 235.548C172.884 236.839 167.886 239.875 162.391 241.546C160.651 242.075 158.561 242.823 156.721 242.918C156.204 242.944 155.558 242.831 156.186 242.238C159.412 239.193 164.088 237.047 168.182 235.511C171.652 234.21 175.3 233.752 178.94 233.18C182.14 232.677 185.32 232.807 188.532 232.634C191.122 232.494 193.669 231.772 196.278 231.772C197.12 231.772 199.556 231.395 198.803 231.772C197.429 232.459 194.955 231.99 193.485 231.99C191.179 231.99 188.844 232.094 186.54 231.942C183.779 231.759 181.072 231.618 178.381 231.007C177.418 230.788 176.371 230.939 175.419 230.667C174.723 230.468 173.838 229.667 173.112 229.586C172.299 229.496 171.587 230.771 171.023 231.334C168.75 233.608 165.715 234.848 163.399 237.029C160.332 239.915 157.034 242.503 153.697 245.054C152.519 245.955 151.408 246.725 150.699 248.066C149.793 249.776 151.265 250.399 152.738 251.174C154.337 252.015 156.621 252.057 157.813 253.505C158.7 254.582 158.688 256.187 158.688 257.548C158.688 259.006 157.957 259.917 156.502 260.401" stroke="#F4F0EE" stroke-width="5" stroke-linecap="round"/>
<path d="M53.1285 260.62C54.0612 261.114 55.0229 261.313 56.0546 261.591C57.2571 261.916 58.4241 262.45 59.6728 262.575C60.8721 262.695 61.9533 263.243 63.1331 263.243C68.4673 263.243 73.8015 263.243 79.1357 263.243C82.8663 263.243 86.5065 263.673 90.221 263.874C94.6366 264.113 99.0785 263.523 103.504 263.704C107.609 263.872 111.703 264.288 115.803 264.505C117.342 264.587 118.801 264.317 120.32 264.117C122.968 263.767 125.617 263.692 128.285 263.68C131.31 263.666 134.257 263.624 137.257 263.146C139.051 262.86 140.732 262.216 142.515 261.919C145.394 261.439 148.222 261.494 151.147 261.494C153.413 261.494 155.611 260.765 157.692 260.171C158.852 259.839 159.312 256.733 159.343 255.691C159.372 254.712 160.184 252.422 160.982 251.89C161.133 251.79 161.262 251.736 161.298 251.538C161.399 250.983 160.241 251.965 159.78 252.291C157.198 254.12 154.393 255.615 151.657 257.196C149.708 258.323 147.785 259.627 145.574 260.183C142.976 260.837 140.207 260.62 137.549 260.62C134.811 260.62 140.794 257.681 141.216 257.463C145.997 255.001 150.784 252.686 155.336 249.814C156.354 249.172 157.608 248.627 158.529 247.847C158.91 247.525 157.514 247.607 157.036 247.75C151.35 249.449 147.092 254.116 141.543 256.103C140.554 256.458 140.006 256.662 141.009 255.678C143.074 253.653 145.009 251.515 147.201 249.62C149.342 247.77 151.588 245.925 154.025 244.472C154.459 244.213 156.73 243.085 154.875 244.229C151.906 246.059 149.089 247.992 146.327 250.13C144.842 251.279 143.3 252.859 141.58 253.687C141.109 253.914 141.103 253.783 141.41 253.408C142.945 251.531 144.765 249.941 146.57 248.333C147.449 247.55 147.689 247.339 148.488 246.609C148.734 246.384 149.463 245.811 149.132 245.844C147.687 245.988 146.254 247.356 145.04 248.041C144.913 248.113 144.505 248.174 144.603 248.066C144.982 247.646 146.084 246.781 146.449 246.512C148.15 245.255 149.994 244.351 151.924 243.513C152.392 243.31 152.963 243.217 153.272 242.796C153.346 242.696 151.881 243.636 151.669 243.743C145.905 246.655 140.512 249.915 134.428 252.194C130.428 253.692 126.296 254.953 122.408 256.735C122.273 256.797 121.901 256.864 122.02 256.953C122.281 257.149 122.665 257.064 122.991 257.075C124.826 257.134 126.664 257.033 128.491 256.88C132.011 256.587 135.487 256.01 138.945 255.302C140.319 255.021 141.717 254.621 143.122 254.513C145.714 254.313 141.765 256.055 141.155 256.322C134.955 259.033 127.988 258.848 121.364 259.042C117.613 259.151 113.85 259.161 110.109 258.884C108.559 258.769 109.684 258.898 110.777 259.005C116.205 259.536 121.597 260.542 127.071 260.377C129.689 260.298 132.227 259.792 134.817 259.454C135.614 259.351 137.955 258.852 137.209 259.151C133.64 260.578 129.372 260.958 125.589 261.494C121.61 262.058 117.776 261.737 113.788 261.713C111.793 261.701 109.828 261.572 107.838 261.506C105.143 261.418 102.492 261.931 99.8007 261.931C98.7465 261.931 97.6727 261.993 96.6196 261.931C96.3493 261.915 96.4867 261.726 96.316 261.591C95.5733 261.008 94.1811 260.845 93.2928 260.62C85.8301 258.728 77.9205 259.236 70.5638 256.783C68.1829 255.99 65.9376 254.253 63.4731 253.797C60.0008 253.154 56.4876 252.737 52.9949 252.218C50.5734 251.858 49.1649 250.619 47.4098 248.964C46.9627 248.543 45.6683 247.558 46.2806 247.507C46.8886 247.457 47.5099 247.58 48.0776 247.786C50.5241 248.676 52.8757 249.84 55.314 250.761C59.4009 252.306 63.2265 253.867 67.6255 254.282C71.7328 254.67 75.9033 254.576 80.0099 254.282" stroke="#F4F0EE" stroke-width="5" stroke-linecap="round"/>
<path d="M147.744 189.034C60.7404 114.397 111.837 53.746 148.359 32.7116C189.848 5.2905 371.842 22.1088 329.655 134.718C318.123 165.503 298.716 183.901 276.313 194.015C277.068 197.23 273.715 203.159 271.431 206.492C270.983 207.146 270.367 207.662 269.652 208.005C235.647 224.318 187.206 216.702 165.069 210.288C163.746 209.904 162.659 208.968 162.052 207.731L154.286 191.889C152.488 191.221 150.753 190.543 149.087 189.86C148.604 189.663 148.139 189.374 147.744 189.034Z" fill="#F4F0EE"/>
<path d="M154.286 191.889C152.488 191.221 150.753 190.543 149.087 189.86C148.604 189.663 148.139 189.374 147.744 189.034C60.7404 114.397 111.837 53.746 148.359 32.7116C189.848 5.2905 371.842 22.1088 329.655 134.718C318.123 165.503 298.716 183.901 276.313 194.015M154.286 191.889L162.052 207.731C162.659 208.968 163.746 209.904 165.069 210.288C187.206 216.702 235.647 224.318 269.652 208.005C270.367 207.662 270.983 207.146 271.431 206.492C273.715 203.159 277.068 197.23 276.313 194.015M154.286 191.889C185.553 203.511 235.826 212.291 276.313 194.015" stroke="#4F4133" stroke-width="2.5"/>
<path d="M195.774 2C241.796 2 274.917 3.09684 280.844 16.9902C294.441 35.271 273.522 49.8955 219.831 55.3798C178.566 59.5947 156.308 42.3262 149.469 32.1014C148.944 31.3164 148.708 30.3817 148.824 29.4445C149.329 25.3659 151.407 20.0376 156.08 15.1621C162.843 8.107 175.04 2 195.774 2Z" fill="#F4F0EE"/>
<path d="M280.844 16.9902C274.917 3.09684 241.796 2 195.774 2C175.04 2 162.843 8.10699 156.08 15.1621M280.844 16.9902C286.771 30.8836 177.05 57.5735 156.08 15.1621M280.844 16.9902C294.441 35.271 273.522 49.8956 219.831 55.3798C178.566 59.5947 156.308 42.3262 149.469 32.1014C148.944 31.3164 148.708 30.3817 148.824 29.4445C149.329 25.3659 151.407 20.0376 156.08 15.1621" stroke="#4F4133" stroke-width="2.5"/>
<path d="M304.203 45.5082C314.198 34.1741 338.928 14.3578 357.895 25.765C381.528 39.979 393.382 59.6427 378.26 111.557C378.167 111.878 378.044 112.188 377.884 112.483C371.687 123.891 352.056 148.299 320.938 158.118M331 133C346.573 123.738 376.512 95.7436 364.519 59.7671C349.527 14.7965 314.663 61.9608 320.938 59.7671" stroke="#4F4133" stroke-width="2.5"/>
<path d="M115.586 59.7672C103.964 52.4549 78.699 36.0754 70.6104 29.0556C65.261 24.4131 60.1252 20.6874 56.4533 18.2381C54.1227 16.6835 51.0364 17.5524 49.7029 20.0162L46.6036 25.7426C45.542 27.7041 45.8973 30.1155 47.4693 31.6976C67.7035 52.0624 102.668 92.916 99.1994 112.781" stroke="#4F4133" stroke-width="2.5"/>
<path d="M83.8121 104.713C121.904 101.602 163.892 105.601 172.983 111.377C189.951 116.709 195.636 129.298 196.357 134.926C201.119 169.139 192.894 204.24 178.61 221.568C164.325 238.897 143.548 240.674 116.277 240.674C85.8651 240.674 57.8399 224.234 43.1225 198.464C31.3485 177.847 35.7095 143.072 39.3617 128.261C41.0825 118.874 53.5944 107.18 83.8121 104.713Z" fill="#F4F0EE"/>
<path d="M172.983 111.377C163.892 105.601 121.904 101.602 83.8121 104.713C53.5944 107.18 41.0825 118.874 39.3617 128.261M172.983 111.377C182.073 117.153 192.894 119.819 191.596 134.926C190.297 150.033 130.129 162.918 76.4533 154.476C65.776 151.07 43.5554 142.391 40.0925 134.926C39.1977 132.997 38.9133 130.708 39.3617 128.261M172.983 111.377C189.951 116.709 195.636 129.298 196.357 134.926C201.119 169.139 192.894 204.24 178.61 221.568C164.325 238.897 143.548 240.674 116.277 240.674C85.8651 240.674 57.8399 224.234 43.1225 198.464C31.3485 177.847 35.7095 143.072 39.3617 128.261" stroke="#4F4133" stroke-width="2.5"/>
<path d="M83.8115 234.453C85.2544 237.564 90.9105 244.673 105.455 246.45C123.635 248.672 132.293 246.45 137.054 245.117C141.816 243.784 156.533 236.675 156.533 235.786" stroke="#4F4133" stroke-width="2.5"/>
<path d="M197.223 160.252C207.756 155.661 233.238 149.233 243.973 160.252C257.392 174.026 217.135 200.241 189.864 202.462" stroke="#4F4133" stroke-width="2.5"/>
<path d="M72.1245 228.233C52.0683 229.566 2 234.365 2 241.118C2 249.56 17.5832 273.554 153.936 265.112" stroke="#4F4133" stroke-width="2.5"/>
<path d="M172.983 227.789C193.039 229.122 240.077 230.81 240.077 237.564C240.077 246.006 215.837 269.11 79.4834 266.444" stroke="#4F4133" stroke-width="2.5"/>
<path d="M160.133 266.157C158.402 255.849 173.552 247.353 183.508 244.83C218.571 235.944 224.297 244.849 222.899 252.383C221.168 261.714 201.689 271.934 192.165 275.044C182.642 278.154 162.298 279.043 160.133 266.157Z" fill="#F4F0EE" stroke="#4F4133" stroke-width="2.5"/>
<path d="M168.361 259.357C168.361 259.471 168.329 259.582 168.429 259.634" stroke="#4F4133" stroke-width="2.5" stroke-linecap="round"/>
<path d="M181.44 255.482H181.508" stroke="#4F4133" stroke-width="2.5" stroke-linecap="round"/>
<path d="M179.08 267.177C179.005 267.109 178.948 267.005 178.878 266.969" stroke="#4F4133" stroke-width="2.5" stroke-linecap="round"/>
<path d="M194.856 261.71L194.924 261.779" stroke="#4F4133" stroke-width="2.5" stroke-linecap="round"/>
<path d="M197.957 247.454C197.909 247.41 197.88 247.405 197.822 247.385" stroke="#4F4133" stroke-width="2.5" stroke-linecap="round"/>
<path d="M209.284 254.928V254.997" stroke="#4F4133" stroke-width="2.5" stroke-linecap="round"/>
<path d="M214.947 246.347H215.015" stroke="#4F4133" stroke-width="2.5" stroke-linecap="round"/>
<path d="M205.711 267.385H205.778" stroke="#4F4133" stroke-width="2.5" stroke-linecap="round"/>
<path d="M188.789 274.65V274.789" stroke="#4F4133" stroke-width="2.5" stroke-linecap="round"/>
<path d="M77.0713 154.032L79.6977 177.815M79.6977 177.815H70.3415C67.9071 177.815 65.8265 179.568 65.4139 181.967L61.4431 205.057C60.9177 208.112 63.2706 210.904 66.3708 210.904H93.3845C96.5107 210.904 98.8702 208.068 98.3009 204.994L94.0247 181.904C93.5858 179.534 91.5186 177.815 89.1083 177.815H79.6977Z" stroke="#4F4133" stroke-width="2.5"/>
<path d="M253.084 231.056C268.728 210.466 291.568 175.677 293.242 153.935C293.242 151.535 295.188 149.589 297.588 149.589H305.513H313.402C313.588 149.589 313.744 149.717 313.871 149.963C327.424 161.064 336.24 193.271 339.449 210.426C339.756 212.068 339.188 213.74 337.953 214.865C317.024 233.948 304.721 234.625 293.242 236.733C287.987 237.177 279.229 237.847 270.235 238.396C265.787 238.668 261.282 238.911 257.114 239.082C252.9 239.255 250.532 234.415 253.084 231.056Z" fill="#F4F0EE"/>
<path d="M313.402 149.589C317.784 149.589 305.513 220.652 293.242 236.733M313.402 149.589C327.22 160.321 336.203 193.074 339.449 210.426C339.756 212.068 339.188 213.74 337.953 214.865C317.024 233.948 304.721 234.625 293.242 236.733M313.402 149.589C311.878 149.589 308.865 149.589 305.513 149.589M293.242 236.733C287.987 237.177 279.229 237.847 270.235 238.396M305.513 149.589C302.896 149.589 300.071 149.589 297.588 149.589C295.188 149.589 293.242 151.535 293.242 153.935V153.935C291.568 175.677 268.728 210.466 253.084 231.056C250.532 234.415 252.9 239.255 257.114 239.082C261.282 238.911 265.787 238.668 270.235 238.396M305.513 149.589C298.647 176.268 281.98 231.382 270.235 238.396" stroke="#4F4133" stroke-width="2.5"/>
<path d="M321.7 223.155C320.244 223.155 321.106 222.801 321.106 221.78" stroke="#4F4133" stroke-width="2.5" stroke-linecap="round"/>
<path d="M317.938 213.135C317.938 214.08 317.976 214.118 318.928 214.118" stroke="#4F4133" stroke-width="2.5" stroke-linecap="round"/>
<path d="M273.172 236.512C272.95 236.512 272.89 236.365 273.114 236.302C273.404 236.22 272.804 235.565 272.706 235.487C272.17 235.062 273.544 234.861 273.729 234.821C274.193 234.721 274.02 234.598 274.108 234.206C274.17 233.929 274.722 233.605 274.975 233.534C275.135 233.488 274.961 233.007 275.09 232.879C275.541 232.431 276.122 232.118 276.164 231.375C276.186 230.981 276.176 230.608 275.968 230.264C275.889 230.133 275.813 229.949 275.871 229.792C275.927 229.638 276.912 229.207 276.681 229.131C275.929 228.883 277.707 228.343 277.915 228.322C278.035 228.31 279.116 228.412 279.161 228.254C279.199 228.123 279.065 228.025 279.081 227.895C279.113 227.645 279.443 227.422 279.632 227.291C280.142 226.939 280.25 226.86 280.195 226.129C280.158 225.635 279.143 225.114 278.708 225.036C278.206 224.945 279.474 224.62 279.667 224.62C280.078 224.62 279.855 224.56 280.017 224.312C280.383 223.754 282.039 223.672 281.786 222.854C281.651 222.418 281.425 221.911 281.074 221.727C280.569 221.462 282.168 220.592 282.222 220.565C282.839 220.256 283.659 220.28 283.337 219.346C283.08 218.604 282.381 218.149 282.245 217.398C282.097 216.581 282.689 216.289 283.072 215.701C283.243 215.44 283.168 215.202 283.199 214.903C283.248 214.433 283.738 214.465 283.899 214.163C284.027 213.924 283.629 213.839 283.957 213.582C284.6 213.078 285.472 212.779 286.197 212.42C286.262 212.388 284.642 211.708 284.566 211.577C284.309 211.141 286.022 210.139 286.3 209.903C286.587 209.658 286.376 209.487 286.576 209.162C286.657 209.03 286.978 208.945 286.978 208.775C286.978 208.681 286.817 208.623 286.817 208.479C286.817 208.191 287.024 208.158 287.024 207.807" stroke="#4F4133" stroke-width="2.5" stroke-linecap="round"/>
<path d="M287.334 207.704C287.131 207.478 287.196 206.944 287.288 206.685C287.378 206.429 287.777 206.206 287.741 205.962C287.705 205.708 287.386 205.414 287.46 205.164C287.571 204.794 287.901 204.66 287.931 204.264C287.991 203.471 287.644 202.714 287.644 201.923C287.644 201.359 288.538 200.938 289.028 200.938C289.295 200.938 289.124 200.663 289.321 200.528C289.436 200.449 290.021 200.331 290.021 200.22C290.021 200.066 289.728 199.943 289.832 199.753C290.09 199.284 290.784 199.367 291.199 199.184C291.584 199.014 290.634 198.066 290.492 197.965C290.147 197.718 289.784 197.491 290.24 197.099C290.786 196.63 291.377 196.504 291.98 196.205C292.161 196.115 291.755 195.353 291.784 195.094C291.855 194.463 292.846 194.418 292.744 193.67C292.673 193.161 292.192 192.806 292.192 192.275C292.192 191.765 292.592 191.629 293.019 191.426C293.692 191.107 292.554 190.644 292.261 190.321C292.232 190.289 291.979 190.054 292.026 190.002C292.338 189.662 293.017 189.512 293.456 189.467C293.867 189.425 294.156 189.55 293.904 189.085C293.541 188.418 294.939 187.8 295.328 187.496C295.622 187.267 295.617 186.964 295.603 186.608C295.569 185.718 295.779 184.889 296.172 184.079C296.469 183.467 296.677 182.81 296.999 182.222C297.415 181.462 297.619 180.372 297.568 179.511C297.553 179.263 296.856 179.248 296.689 179.095C296.341 178.777 296.116 178.636 296.557 178.121C296.67 177.989 298.322 176.324 297.878 176.048C297.677 175.924 297.694 175.56 297.384 175.513C296.767 175.419 297.556 175.127 297.774 175.103" stroke="#4F4133" stroke-width="2.5" stroke-linecap="round"/>
<path d="M297.981 175C298.237 174.718 298.467 174.307 298.756 174.078C299.231 173.701 298.247 172.147 298.004 171.799C297.862 171.596 298.276 171.534 298.389 171.52C298.855 171.462 298.824 171.118 298.75 170.7C298.695 170.385 298.577 170.117 298.601 169.794C298.632 169.383 299.225 169.283 299.485 169.077C299.797 168.83 299.647 168.081 299.485 167.784C299.253 167.357 299.937 167.066 300.255 166.969C300.755 166.818 301.998 167.114 301.266 166.206C301.129 166.037 301.206 165.755 301.444 165.682C302.219 165.446 301.265 163.883 301.053 163.501C300.819 163.079 300.393 162.528 300.835 162.128C300.984 161.993 301.763 161.72 301.651 161.519C301.167 160.655 302.766 160.286 303.402 160.157C304.322 159.972 303.035 158.304 302.788 157.731C302.681 157.485 302.27 156.817 302.633 156.569C302.789 156.463 302.783 156.225 302.902 156.079C303.234 155.678 304.017 155.298 304.533 155.219C304.685 155.196 303.717 154.583 303.528 154.496C303.149 154.321 303.533 153.945 303.77 153.824C303.987 153.713 304.183 153.885 304.183 153.573C304.183 153.2 304.417 153.05 304.643 152.765C305.193 152.069 304.513 150.539 305.424 150.088" stroke="#4F4133" stroke-width="2.5" stroke-linecap="round"/>
<path d="M255.805 235.843C256.011 235.818 256.072 235.673 256.318 235.673" stroke="#4F4133" stroke-width="2.5" stroke-linecap="round"/>
<path d="M270.703 220.557C270.597 221.033 269.258 221.637 268.819 221.746" stroke="#4F4133" stroke-width="2.5" stroke-linecap="round"/>
<path d="M274.128 211.385C274.374 211.112 274.479 210.857 274.641 210.536" stroke="#4F4133" stroke-width="2.5" stroke-linecap="round"/>
<path d="M289.883 222.765C290.196 222.506 290.572 222.309 290.91 222.085" stroke="#4F4133" stroke-width="2.5" stroke-linecap="round"/>
<path d="M292.281 228.03C292.076 228.075 292.054 228.216 291.938 228.37" stroke="#4F4133" stroke-width="2.5" stroke-linecap="round"/>
<path d="M301.53 194.57C301.748 194.273 301.701 193.901 301.701 193.551" stroke="#4F4133" stroke-width="2.5" stroke-linecap="round"/>
<path d="M318.655 170.282V170.792" stroke="#4F4133" stroke-width="2.5" stroke-linecap="round"/>
<path d="M316.943 179.624C316.565 180.747 316.205 181.872 315.915 183.021" stroke="#4F4133" stroke-width="2.5" stroke-linecap="round"/>
<path d="M326.876 194.061C326.894 194.219 326.962 194.274 327.047 194.4" stroke="#4F4133" stroke-width="2.5" stroke-linecap="round"/>
<path d="M310.435 208.158C310.212 208.407 310.264 208.692 310.264 209.007" stroke="#4F4133" stroke-width="2.5" stroke-linecap="round"/>
<path d="M305.64 227.011C305.64 227.66 305.398 228.493 305.982 228.879" stroke="#4F4133" stroke-width="2.5" stroke-linecap="round"/>
<path d="M307.695 217.669C307.695 217.247 307.997 217.135 308.208 216.82" stroke="#4F4133" stroke-width="2.5" stroke-linecap="round"/>
<path d="M330.301 213.253C330.378 212.757 330.696 212.363 330.814 211.895" stroke="#4F4133" stroke-width="2.5" stroke-linecap="round"/>
<path d="M321.395 161.62C321.185 161.359 321.179 161.137 320.882 160.94" stroke="#4F4133" stroke-width="2.5" stroke-linecap="round"/>
<path d="M314.888 198.816V198.986" stroke="#4F4133" stroke-width="2.5" stroke-linecap="round"/>
<path d="M309.407 159.072H309.75" stroke="#4F4133" stroke-width="2.5" stroke-linecap="round"/>
<path d="M300.844 152.278H300.673" stroke="#4F4133" stroke-width="2.5" stroke-linecap="round"/>
<path d="M293.309 167.904V169.263" stroke="#4F4133" stroke-width="2.5" stroke-linecap="round"/>
<path d="M279.057 247.052C294.701 226.461 317.54 191.672 319.215 169.93C319.215 167.53 321.161 165.584 323.561 165.584H331.486H339.374C339.56 165.584 339.716 165.712 339.844 165.958C353.396 177.059 362.212 209.266 365.421 226.421C365.728 228.063 365.16 229.735 363.926 230.86C342.997 249.944 330.694 250.62 319.215 252.728C313.96 253.172 305.202 253.842 296.207 254.392C291.76 254.663 287.255 254.906 283.087 255.077C278.872 255.25 276.505 250.41 279.057 247.052Z" fill="#F4F0EE"/>
<path d="M339.374 165.584C343.757 165.584 331.486 236.647 319.215 252.728M339.374 165.584C353.193 176.317 362.176 209.069 365.421 226.421C365.728 228.063 365.16 229.735 363.926 230.86C342.997 249.944 330.694 250.62 319.215 252.728M339.374 165.584C337.851 165.584 334.838 165.584 331.486 165.584M319.215 252.728C313.96 253.172 305.202 253.842 296.207 254.392M331.486 165.584C328.868 165.584 326.044 165.584 323.561 165.584C321.161 165.584 319.215 167.53 319.215 169.93V169.93C317.54 191.672 294.701 226.461 279.057 247.052C276.505 250.41 278.872 255.25 283.087 255.077C287.255 254.906 291.76 254.663 296.207 254.392M331.486 165.584C324.62 192.264 307.952 247.377 296.207 254.392" stroke="#4F4133" stroke-width="2.5"/>
<path d="M347.673 239.151C346.217 239.151 347.078 238.796 347.078 237.775" stroke="#4F4133" stroke-width="2.5" stroke-linecap="round"/>
<path d="M343.909 229.131C343.909 230.075 343.948 230.113 344.9 230.113" stroke="#4F4133" stroke-width="2.5" stroke-linecap="round"/>
<path d="M299.143 252.508C298.922 252.508 298.862 252.361 299.086 252.297C299.376 252.215 298.776 251.56 298.678 251.483C298.142 251.057 299.515 250.856 299.7 250.816C300.165 250.716 299.992 250.593 300.079 250.201C300.142 249.924 300.693 249.601 300.947 249.529C301.106 249.484 300.932 249.002 301.061 248.874C301.512 248.427 302.094 248.114 302.135 247.371C302.157 246.977 302.148 246.603 301.94 246.26C301.86 246.128 301.785 245.945 301.842 245.787C301.899 245.634 302.884 245.203 302.652 245.127C301.901 244.878 303.679 244.338 303.887 244.318C304.006 244.306 305.088 244.407 305.133 244.249C305.171 244.119 305.036 244.021 305.053 243.891C305.084 243.64 305.415 243.417 305.604 243.287C306.114 242.935 306.221 242.855 306.167 242.125C306.13 241.631 305.114 241.11 304.679 241.031C304.178 240.941 305.446 240.616 305.639 240.616C306.05 240.616 305.826 240.556 305.989 240.308C306.355 239.75 308.01 239.667 307.758 238.85C307.623 238.413 307.397 237.907 307.046 237.722C306.541 237.457 308.14 236.588 308.194 236.56C308.81 236.252 309.631 236.275 309.308 235.342C309.052 234.599 308.353 234.145 308.217 233.394C308.069 232.576 308.66 232.284 309.044 231.696C309.214 231.436 309.139 231.198 309.17 230.899C309.22 230.428 309.71 230.461 309.871 230.159C309.998 229.92 309.6 229.835 309.928 229.578C310.572 229.074 311.444 228.775 312.168 228.416C312.234 228.383 310.614 227.703 310.537 227.573C310.281 227.137 311.994 226.134 312.272 225.898C312.559 225.654 312.347 225.483 312.547 225.158C312.629 225.025 312.949 224.94 312.949 224.77C312.949 224.677 312.788 224.619 312.788 224.474C312.788 224.187 312.995 224.153 312.995 223.802" stroke="#4F4133" stroke-width="2.5" stroke-linecap="round"/>
<path d="M313.306 223.7C313.103 223.473 313.169 222.94 313.26 222.68C313.351 222.424 313.749 222.201 313.714 221.957C313.678 221.703 313.358 221.409 313.433 221.16C313.543 220.79 313.874 220.656 313.904 220.26C313.964 219.467 313.616 218.709 313.616 217.919C313.616 217.354 314.511 216.933 315.001 216.933C315.268 216.933 315.097 216.658 315.293 216.523C315.408 216.444 315.994 216.327 315.994 216.216C315.994 216.062 315.7 215.938 315.805 215.749C316.062 215.28 316.756 215.362 317.171 215.179C317.556 215.009 316.607 214.061 316.465 213.96C316.12 213.714 315.757 213.486 316.212 213.095C316.759 212.625 317.35 212.499 317.952 212.2C318.134 212.11 317.728 211.349 317.757 211.09C317.828 210.459 318.819 210.413 318.716 209.666C318.646 209.156 318.165 208.802 318.165 208.27C318.165 207.76 318.565 207.624 318.992 207.422C319.665 207.103 318.526 206.639 318.234 206.317C318.204 206.284 317.952 206.049 317.998 205.998C318.311 205.657 318.989 205.507 319.428 205.462C319.84 205.421 320.128 205.545 319.876 205.081C319.514 204.413 320.911 203.796 321.3 203.492C321.595 203.262 321.59 202.96 321.576 202.603C321.542 201.714 321.752 200.884 322.145 200.074C322.442 199.462 322.65 198.805 322.972 198.218C323.388 197.458 323.591 196.367 323.54 195.507C323.526 195.258 322.828 195.243 322.662 195.091C322.314 194.773 322.089 194.632 322.529 194.117C322.642 193.985 324.295 192.319 323.85 192.044C323.649 191.919 323.666 191.556 323.356 191.508C322.74 191.414 323.528 191.122 323.747 191.098" stroke="#4F4133" stroke-width="2.5" stroke-linecap="round"/>
<path d="M323.953 190.996C324.21 190.713 324.439 190.303 324.729 190.073C325.204 189.696 324.219 188.143 323.976 187.795C323.835 187.592 324.249 187.53 324.361 187.516C324.828 187.458 324.797 187.114 324.723 186.696C324.667 186.381 324.55 186.113 324.574 185.79C324.604 185.379 325.198 185.279 325.458 185.072C325.769 184.826 325.619 184.076 325.458 183.779C325.226 183.352 325.91 183.061 326.228 182.965C326.728 182.813 327.971 183.11 327.238 182.202C327.102 182.032 327.179 181.75 327.416 181.678C328.191 181.441 327.238 179.878 327.026 179.496C326.792 179.074 326.366 178.524 326.808 178.124C326.957 177.989 327.736 177.715 327.623 177.514C327.139 176.651 328.738 176.282 329.375 176.153C330.294 175.967 329.008 174.3 328.76 173.727C328.654 173.481 328.242 172.812 328.605 172.565C328.761 172.458 328.755 172.22 328.875 172.075C329.206 171.674 329.99 171.294 330.506 171.215C330.658 171.192 329.69 170.579 329.501 170.492C329.121 170.316 329.506 169.94 329.742 169.82C329.96 169.709 330.156 169.881 330.156 169.569C330.156 169.196 330.39 169.045 330.615 168.76C331.166 168.065 330.486 166.535 331.396 166.083" stroke="#4F4133" stroke-width="2.5" stroke-linecap="round"/>
<path d="M281.777 251.839C281.983 251.813 282.044 251.669 282.29 251.669" stroke="#4F4133" stroke-width="2.5" stroke-linecap="round"/>
<path d="M296.676 236.552C296.569 237.028 295.23 237.633 294.792 237.741" stroke="#4F4133" stroke-width="2.5" stroke-linecap="round"/>
<path d="M300.1 227.38C300.346 227.108 300.451 226.852 300.613 226.531" stroke="#4F4133" stroke-width="2.5" stroke-linecap="round"/>
<path d="M315.855 238.76C316.168 238.502 316.545 238.304 316.883 238.081" stroke="#4F4133" stroke-width="2.5" stroke-linecap="round"/>
<path d="M318.253 244.026C318.048 244.071 318.027 244.212 317.911 244.365" stroke="#4F4133" stroke-width="2.5" stroke-linecap="round"/>
<path d="M327.503 210.565C327.721 210.268 327.674 209.897 327.674 209.546" stroke="#4F4133" stroke-width="2.5" stroke-linecap="round"/>
<path d="M344.628 186.277V186.787" stroke="#4F4133" stroke-width="2.5" stroke-linecap="round"/>
<path d="M342.915 195.619C342.538 196.743 342.177 197.868 341.888 199.016" stroke="#4F4133" stroke-width="2.5" stroke-linecap="round"/>
<path d="M352.849 210.056C352.866 210.215 352.935 210.269 353.02 210.396" stroke="#4F4133" stroke-width="2.5" stroke-linecap="round"/>
<path d="M336.407 224.154C336.184 224.403 336.236 224.687 336.236 225.003" stroke="#4F4133" stroke-width="2.5" stroke-linecap="round"/>
<path d="M331.612 243.006C331.612 243.656 331.37 244.488 331.954 244.875" stroke="#4F4133" stroke-width="2.5" stroke-linecap="round"/>
<path d="M333.668 233.665C333.668 233.242 333.97 233.13 334.181 232.816" stroke="#4F4133" stroke-width="2.5" stroke-linecap="round"/>
<path d="M356.273 229.249C356.35 228.752 356.668 228.359 356.786 227.89" stroke="#4F4133" stroke-width="2.5" stroke-linecap="round"/>
<path d="M347.368 177.615C347.158 177.355 347.152 177.133 346.854 176.936" stroke="#4F4133" stroke-width="2.5" stroke-linecap="round"/>
<path d="M340.86 214.812V214.982" stroke="#4F4133" stroke-width="2.5" stroke-linecap="round"/>
<path d="M335.38 175.068H335.722" stroke="#4F4133" stroke-width="2.5" stroke-linecap="round"/>
<path d="M326.817 168.274H326.646" stroke="#4F4133" stroke-width="2.5" stroke-linecap="round"/>
<path d="M319.281 183.899V185.258" stroke="#4F4133" stroke-width="2.5" stroke-linecap="round"/>
<path d="M47 30.5C60.5 41 72.5 60.5 89 80C91.1667 83.6667 104 110.3 100 101.5C96 92.7 108.333 70.6667 114.5 60.5C69 34 60.5 18.5 54.5 18.5C49.7 18.5 47.5 26.5 47 30.5Z" fill="#F4F0EE" stroke="#4F4133"/>
<path d="M191.517 236.595C191.091 236.723 190.742 237.043 190.388 237.3C189.816 237.715 189.28 238.002 188.573 238.105C187.89 238.204 187.007 238.338 186.326 238.134C186.058 238.053 186.573 237.876 186.578 237.875C187.493 237.549 188.461 237.302 189.4 237.055C190.294 236.82 191.208 236.642 192.128 236.545C192.318 236.525 192.474 236.509 192.233 236.692C190.919 237.691 189.212 238.183 187.613 238.479C187.437 238.511 187.14 238.583 186.952 238.536C186.907 238.525 187.018 238.47 187.06 238.45C187.593 238.19 188.152 237.973 188.702 237.753C190.778 236.922 192.937 236.143 195.17 235.876C196.102 235.765 197.05 235.754 197.988 235.754" stroke="#F4F0EE" stroke-width="5" stroke-linecap="round"/>
</svg>
