<svg width="387" height="279" viewBox="0 0 387 279" fill="none" xmlns="http://www.w3.org/2000/svg">
<path d="M147.744 189.034C60.7404 114.397 111.837 53.746 148.359 32.7116C189.848 5.2905 371.842 22.1088 329.655 134.718C318.123 165.503 298.716 183.901 276.313 194.015C277.068 197.23 273.715 203.159 271.431 206.492C270.983 207.146 270.367 207.662 269.652 208.005C235.647 224.318 187.206 216.702 165.069 210.288C163.746 209.904 162.659 208.968 162.052 207.731L154.286 191.889C152.488 191.221 150.753 190.543 149.087 189.86C148.604 189.663 148.139 189.374 147.744 189.034Z" fill="#F4F0EE"/>
<path d="M154.286 191.889C152.488 191.221 150.753 190.543 149.087 189.86C148.604 189.663 148.139 189.374 147.744 189.034C60.7404 114.397 111.837 53.746 148.359 32.7116C189.848 5.2905 371.842 22.1088 329.655 134.718C318.123 165.503 298.716 183.901 276.313 194.015M154.286 191.889L162.052 207.731C162.659 208.968 163.746 209.904 165.069 210.288C187.206 216.702 235.647 224.318 269.652 208.005C270.367 207.662 270.983 207.146 271.431 206.492C273.715 203.159 277.068 197.23 276.313 194.015M154.286 191.889C185.553 203.511 235.826 212.291 276.313 194.015" stroke="#4F4133" stroke-width="2.5"/>
<path d="M195.774 2C241.796 2 274.917 3.09684 280.844 16.9902C294.441 35.271 273.522 49.8955 219.831 55.3798C178.566 59.5947 156.308 42.3262 149.469 32.1014C148.944 31.3164 148.708 30.3817 148.824 29.4445C149.329 25.3659 151.407 20.0376 156.08 15.1621C162.843 8.107 175.04 2 195.774 2Z" fill="#F4F0EE"/>
<path d="M280.844 16.9902C274.917 3.09684 241.796 2 195.774 2C175.04 2 162.843 8.10699 156.08 15.1621M280.844 16.9902C286.771 30.8836 177.05 57.5735 156.08 15.1621M280.844 16.9902C294.441 35.271 273.522 49.8956 219.831 55.3798C178.566 59.5947 156.308 42.3262 149.469 32.1014C148.944 31.3164 148.708 30.3817 148.824 29.4445C149.329 25.3659 151.407 20.0376 156.08 15.1621" stroke="#4F4133" stroke-width="2.5"/>
<path d="M304.203 45.5082C314.198 34.1741 338.928 14.3578 357.895 25.765C381.528 39.979 393.382 59.6427 378.26 111.557C378.167 111.878 378.044 112.188 377.884 112.483C371.687 123.891 352.056 148.299 320.938 158.118M332.792 132.524C348.365 123.262 376.512 95.7436 364.519 59.7671C349.527 14.7965 314.663 61.9608 320.938 59.7671" stroke="#4F4133" stroke-width="2.5"/>
<path d="M115.586 59.7672C103.964 52.4549 78.699 36.0754 70.6104 29.0556C65.261 24.4131 60.1252 20.6874 56.4533 18.2381C54.1227 16.6835 51.0364 17.5524 49.7029 20.0162L46.6036 25.7426C45.542 27.7041 45.8973 30.1155 47.4693 31.6976C67.7035 52.0624 102.668 92.916 99.1994 112.781" stroke="#4F4133" stroke-width="2.5"/>
<path d="M83.8121 104.713C121.904 101.602 163.892 105.601 172.983 111.377C189.951 116.709 195.636 129.298 196.357 134.926C201.119 169.139 192.894 204.24 178.61 221.568C164.325 238.897 143.548 240.674 116.277 240.674C85.8651 240.674 57.8399 224.234 43.1225 198.464C31.3485 177.847 35.7095 143.072 39.3617 128.261C41.0825 118.874 53.5944 107.18 83.8121 104.713Z" fill="#F4F0EE"/>
<path d="M172.983 111.377C163.892 105.601 121.904 101.602 83.8121 104.713C53.5944 107.18 41.0825 118.874 39.3617 128.261M172.983 111.377C182.073 117.153 192.894 119.819 191.596 134.926C190.297 150.033 130.129 162.918 76.4533 154.476C65.776 151.07 43.5554 142.391 40.0925 134.926C39.1977 132.997 38.9133 130.708 39.3617 128.261M172.983 111.377C189.951 116.709 195.636 129.298 196.357 134.926C201.119 169.139 192.894 204.24 178.61 221.568C164.325 238.897 143.548 240.674 116.277 240.674C85.8651 240.674 57.8399 224.234 43.1225 198.464C31.3485 177.847 35.7095 143.072 39.3617 128.261" stroke="#4F4133" stroke-width="2.5"/>
<path d="M83.8115 234.453C85.2544 237.564 90.9105 244.673 105.455 246.45C123.635 248.672 132.293 246.45 137.054 245.117C141.816 243.784 156.533 236.675 156.533 235.786" stroke="#4F4133" stroke-width="2.5"/>
<path d="M197.223 160.252C207.756 155.661 233.238 149.233 243.973 160.252C257.392 174.026 217.135 200.241 189.864 202.462" stroke="#4F4133" stroke-width="2.5"/>
<path d="M72.1245 228.233C52.0683 229.566 2 234.365 2 241.118C2 249.56 17.5832 273.554 153.936 265.112" stroke="#4F4133" stroke-width="2.5"/>
<path d="M172.983 227.789C193.039 229.122 240.077 230.81 240.077 237.564C240.077 246.006 215.837 269.11 79.4834 266.444" stroke="#4F4133" stroke-width="2.5"/>
<path d="M160.133 266.157C158.402 255.849 173.552 247.353 183.508 244.83C218.571 235.944 224.297 244.849 222.899 252.383C221.168 261.714 201.689 271.934 192.165 275.044C182.642 278.154 162.298 279.043 160.133 266.157Z" fill="#F4F0EE" stroke="#4F4133" stroke-width="2.5"/>
<path d="M168.361 259.357C168.361 259.471 168.329 259.582 168.429 259.634" stroke="#4F4133" stroke-width="2.5" stroke-linecap="round"/>
<path d="M181.44 255.482H181.508" stroke="#4F4133" stroke-width="2.5" stroke-linecap="round"/>
<path d="M179.08 267.177C179.005 267.109 178.948 267.005 178.878 266.969" stroke="#4F4133" stroke-width="2.5" stroke-linecap="round"/>
<path d="M194.856 261.71L194.924 261.779" stroke="#4F4133" stroke-width="2.5" stroke-linecap="round"/>
<path d="M197.957 247.454C197.909 247.41 197.88 247.405 197.822 247.385" stroke="#4F4133" stroke-width="2.5" stroke-linecap="round"/>
<path d="M209.284 254.928V254.997" stroke="#4F4133" stroke-width="2.5" stroke-linecap="round"/>
<path d="M214.947 246.347H215.015" stroke="#4F4133" stroke-width="2.5" stroke-linecap="round"/>
<path d="M205.711 267.385H205.778" stroke="#4F4133" stroke-width="2.5" stroke-linecap="round"/>
<path d="M188.789 274.65V274.789" stroke="#4F4133" stroke-width="2.5" stroke-linecap="round"/>
<path d="M77.0713 154.032L79.6977 177.815M79.6977 177.815H70.3415C67.9071 177.815 65.8265 179.568 65.4139 181.967L61.4431 205.057C60.9177 208.112 63.2706 210.904 66.3708 210.904H93.3845C96.5107 210.904 98.8702 208.068 98.3009 204.994L94.0247 181.904C93.5858 179.534 91.5186 177.815 89.1083 177.815H79.6977Z" stroke="#4F4133" stroke-width="2.5"/>
<path d="M253.084 231.056C268.728 210.466 291.568 175.677 293.242 153.935C293.242 151.535 295.188 149.589 297.588 149.589H305.513H313.402C313.588 149.589 313.744 149.717 313.871 149.963C327.424 161.064 336.24 193.271 339.449 210.426C339.756 212.068 339.188 213.74 337.953 214.865C317.024 233.948 304.721 234.625 293.242 236.733C287.987 237.177 279.229 237.847 270.235 238.396C265.787 238.668 261.282 238.911 257.114 239.082C252.9 239.255 250.532 234.415 253.084 231.056Z" fill="#F4F0EE"/>
<path d="M313.402 149.589C317.784 149.589 305.513 220.652 293.242 236.733M313.402 149.589C327.22 160.321 336.203 193.074 339.449 210.426C339.756 212.068 339.188 213.74 337.953 214.865C317.024 233.948 304.721 234.625 293.242 236.733M313.402 149.589C311.878 149.589 308.865 149.589 305.513 149.589M293.242 236.733C287.987 237.177 279.229 237.847 270.235 238.396M305.513 149.589C302.896 149.589 300.071 149.589 297.588 149.589C295.188 149.589 293.242 151.535 293.242 153.935V153.935C291.568 175.677 268.728 210.466 253.084 231.056C250.532 234.415 252.9 239.255 257.114 239.082C261.282 238.911 265.787 238.668 270.235 238.396M305.513 149.589C298.647 176.268 281.98 231.382 270.235 238.396" stroke="#4F4133" stroke-width="2.5"/>
<path d="M321.7 223.155C320.244 223.155 321.106 222.801 321.106 221.78" stroke="#4F4133" stroke-width="2.5" stroke-linecap="round"/>
<path d="M317.938 213.135C317.938 214.08 317.976 214.118 318.928 214.118" stroke="#4F4133" stroke-width="2.5" stroke-linecap="round"/>
<path d="M273.172 236.512C272.95 236.512 272.89 236.365 273.114 236.302C273.404 236.22 272.804 235.565 272.706 235.487C272.17 235.062 273.544 234.861 273.729 234.821C274.193 234.721 274.02 234.598 274.108 234.206C274.17 233.929 274.722 233.605 274.975 233.534C275.135 233.488 274.961 233.007 275.09 232.879C275.541 232.431 276.122 232.118 276.164 231.375C276.186 230.981 276.176 230.608 275.968 230.264C275.889 230.133 275.813 229.949 275.871 229.792C275.927 229.638 276.912 229.207 276.681 229.131C275.929 228.883 277.707 228.343 277.915 228.322C278.035 228.31 279.116 228.412 279.161 228.254C279.199 228.123 279.065 228.025 279.081 227.895C279.113 227.645 279.443 227.422 279.632 227.291C280.142 226.939 280.25 226.86 280.195 226.129C280.158 225.635 279.143 225.114 278.708 225.036C278.206 224.945 279.474 224.62 279.667 224.62C280.078 224.62 279.855 224.56 280.017 224.312C280.383 223.754 282.039 223.672 281.786 222.854C281.651 222.418 281.425 221.911 281.074 221.727C280.569 221.462 282.168 220.592 282.222 220.565C282.839 220.256 283.659 220.28 283.337 219.346C283.08 218.604 282.381 218.149 282.245 217.398C282.097 216.581 282.689 216.289 283.072 215.701C283.243 215.44 283.168 215.202 283.199 214.903C283.248 214.433 283.738 214.465 283.899 214.163C284.027 213.924 283.629 213.839 283.957 213.582C284.6 213.078 285.472 212.779 286.197 212.42C286.262 212.388 284.642 211.708 284.566 211.577C284.309 211.141 286.022 210.139 286.3 209.903C286.587 209.658 286.376 209.487 286.576 209.162C286.657 209.03 286.978 208.945 286.978 208.775C286.978 208.681 286.817 208.623 286.817 208.479C286.817 208.191 287.024 208.158 287.024 207.807" stroke="#4F4133" stroke-width="2.5" stroke-linecap="round"/>
<path d="M287.334 207.704C287.131 207.478 287.196 206.944 287.288 206.685C287.378 206.429 287.777 206.206 287.741 205.962C287.705 205.708 287.386 205.414 287.46 205.164C287.571 204.794 287.901 204.66 287.931 204.264C287.991 203.471 287.644 202.714 287.644 201.923C287.644 201.359 288.538 200.938 289.028 200.938C289.295 200.938 289.124 200.663 289.321 200.528C289.436 200.449 290.021 200.331 290.021 200.22C290.021 200.066 289.728 199.943 289.832 199.753C290.09 199.284 290.784 199.367 291.199 199.184C291.584 199.014 290.634 198.066 290.492 197.965C290.147 197.718 289.784 197.491 290.24 197.099C290.786 196.63 291.377 196.504 291.98 196.205C292.161 196.115 291.755 195.353 291.784 195.094C291.855 194.463 292.846 194.418 292.744 193.67C292.673 193.161 292.192 192.806 292.192 192.275C292.192 191.765 292.592 191.629 293.019 191.426C293.692 191.107 292.554 190.644 292.261 190.321C292.232 190.289 291.979 190.054 292.026 190.002C292.338 189.662 293.017 189.512 293.456 189.467C293.867 189.425 294.156 189.55 293.904 189.085C293.541 188.418 294.939 187.8 295.328 187.496C295.622 187.267 295.617 186.964 295.603 186.608C295.569 185.718 295.779 184.889 296.172 184.079C296.469 183.467 296.677 182.81 296.999 182.222C297.415 181.462 297.619 180.372 297.568 179.511C297.553 179.263 296.856 179.248 296.689 179.095C296.341 178.777 296.116 178.636 296.557 178.121C296.67 177.989 298.322 176.324 297.878 176.048C297.677 175.924 297.694 175.56 297.384 175.513C296.767 175.419 297.556 175.127 297.774 175.103" stroke="#4F4133" stroke-width="2.5" stroke-linecap="round"/>
<path d="M297.981 175C298.237 174.718 298.467 174.307 298.756 174.078C299.231 173.701 298.247 172.147 298.004 171.799C297.862 171.596 298.276 171.534 298.389 171.52C298.855 171.462 298.824 171.118 298.75 170.7C298.695 170.385 298.577 170.117 298.601 169.794C298.632 169.383 299.225 169.283 299.485 169.077C299.797 168.83 299.647 168.081 299.485 167.784C299.253 167.357 299.937 167.066 300.255 166.969C300.755 166.818 301.998 167.114 301.266 166.206C301.129 166.037 301.206 165.755 301.444 165.682C302.219 165.446 301.265 163.883 301.053 163.501C300.819 163.079 300.393 162.528 300.835 162.128C300.984 161.993 301.763 161.72 301.651 161.519C301.167 160.655 302.766 160.286 303.402 160.157C304.322 159.972 303.035 158.304 302.788 157.731C302.681 157.485 302.27 156.817 302.633 156.569C302.789 156.463 302.783 156.225 302.902 156.079C303.234 155.678 304.017 155.298 304.533 155.219C304.685 155.196 303.717 154.583 303.528 154.496C303.149 154.321 303.533 153.945 303.77 153.824C303.987 153.713 304.183 153.885 304.183 153.573C304.183 153.2 304.417 153.05 304.643 152.765C305.193 152.069 304.513 150.539 305.424 150.088" stroke="#4F4133" stroke-width="2.5" stroke-linecap="round"/>
<path d="M255.805 235.843C256.011 235.818 256.072 235.673 256.318 235.673" stroke="#4F4133" stroke-width="2.5" stroke-linecap="round"/>
<path d="M270.703 220.557C270.597 221.033 269.258 221.637 268.819 221.746" stroke="#4F4133" stroke-width="2.5" stroke-linecap="round"/>
<path d="M274.128 211.385C274.374 211.112 274.479 210.857 274.641 210.536" stroke="#4F4133" stroke-width="2.5" stroke-linecap="round"/>
<path d="M289.883 222.765C290.196 222.506 290.572 222.309 290.91 222.085" stroke="#4F4133" stroke-width="2.5" stroke-linecap="round"/>
<path d="M292.281 228.03C292.076 228.075 292.054 228.216 291.938 228.37" stroke="#4F4133" stroke-width="2.5" stroke-linecap="round"/>
<path d="M301.53 194.57C301.748 194.273 301.701 193.901 301.701 193.551" stroke="#4F4133" stroke-width="2.5" stroke-linecap="round"/>
<path d="M318.655 170.282V170.792" stroke="#4F4133" stroke-width="2.5" stroke-linecap="round"/>
<path d="M316.943 179.624C316.565 180.747 316.205 181.872 315.915 183.021" stroke="#4F4133" stroke-width="2.5" stroke-linecap="round"/>
<path d="M326.876 194.061C326.894 194.219 326.962 194.274 327.047 194.4" stroke="#4F4133" stroke-width="2.5" stroke-linecap="round"/>
<path d="M310.435 208.158C310.212 208.407 310.264 208.692 310.264 209.007" stroke="#4F4133" stroke-width="2.5" stroke-linecap="round"/>
<path d="M305.64 227.011C305.64 227.66 305.398 228.493 305.982 228.879" stroke="#4F4133" stroke-width="2.5" stroke-linecap="round"/>
<path d="M307.695 217.669C307.695 217.247 307.997 217.135 308.208 216.82" stroke="#4F4133" stroke-width="2.5" stroke-linecap="round"/>
<path d="M330.301 213.253C330.378 212.757 330.696 212.363 330.814 211.895" stroke="#4F4133" stroke-width="2.5" stroke-linecap="round"/>
<path d="M321.395 161.62C321.185 161.359 321.179 161.137 320.882 160.94" stroke="#4F4133" stroke-width="2.5" stroke-linecap="round"/>
<path d="M314.888 198.816V198.986" stroke="#4F4133" stroke-width="2.5" stroke-linecap="round"/>
<path d="M309.407 159.072H309.75" stroke="#4F4133" stroke-width="2.5" stroke-linecap="round"/>
<path d="M300.844 152.278H300.673" stroke="#4F4133" stroke-width="2.5" stroke-linecap="round"/>
<path d="M293.309 167.904V169.263" stroke="#4F4133" stroke-width="2.5" stroke-linecap="round"/>
<path d="M279.057 247.052C294.701 226.461 317.54 191.672 319.215 169.93C319.215 167.53 321.161 165.584 323.561 165.584H331.486H339.374C339.56 165.584 339.716 165.712 339.844 165.958C353.396 177.059 362.212 209.266 365.421 226.421C365.728 228.063 365.16 229.735 363.926 230.86C342.997 249.944 330.694 250.62 319.215 252.728C313.96 253.172 305.202 253.842 296.207 254.392C291.76 254.663 287.255 254.906 283.087 255.077C278.872 255.25 276.505 250.41 279.057 247.052Z" fill="#F4F0EE"/>
<path d="M339.374 165.584C343.757 165.584 331.486 236.647 319.215 252.728M339.374 165.584C353.193 176.317 362.176 209.069 365.421 226.421C365.728 228.063 365.16 229.735 363.926 230.86C342.997 249.944 330.694 250.62 319.215 252.728M339.374 165.584C337.851 165.584 334.838 165.584 331.486 165.584M319.215 252.728C313.96 253.172 305.202 253.842 296.207 254.392M331.486 165.584C328.868 165.584 326.044 165.584 323.561 165.584C321.161 165.584 319.215 167.53 319.215 169.93V169.93C317.54 191.672 294.701 226.461 279.057 247.052C276.505 250.41 278.872 255.25 283.087 255.077C287.255 254.906 291.76 254.663 296.207 254.392M331.486 165.584C324.62 192.264 307.952 247.377 296.207 254.392" stroke="#4F4133" stroke-width="2.5"/>
<path d="M347.673 239.151C346.217 239.151 347.078 238.796 347.078 237.775" stroke="#4F4133" stroke-width="2.5" stroke-linecap="round"/>
<path d="M343.909 229.131C343.909 230.075 343.948 230.113 344.9 230.113" stroke="#4F4133" stroke-width="2.5" stroke-linecap="round"/>
<path d="M299.143 252.508C298.922 252.508 298.862 252.361 299.086 252.297C299.376 252.215 298.776 251.56 298.678 251.483C298.142 251.057 299.515 250.856 299.7 250.816C300.165 250.716 299.992 250.593 300.079 250.201C300.142 249.924 300.693 249.601 300.947 249.529C301.106 249.484 300.932 249.002 301.061 248.874C301.512 248.427 302.094 248.114 302.135 247.371C302.157 246.977 302.148 246.603 301.94 246.26C301.86 246.128 301.785 245.945 301.842 245.787C301.899 245.634 302.884 245.203 302.652 245.127C301.901 244.878 303.679 244.338 303.887 244.318C304.006 244.306 305.088 244.407 305.133 244.249C305.171 244.119 305.036 244.021 305.053 243.891C305.084 243.64 305.415 243.417 305.604 243.287C306.114 242.935 306.221 242.855 306.167 242.125C306.13 241.631 305.114 241.11 304.679 241.031C304.178 240.941 305.446 240.616 305.639 240.616C306.05 240.616 305.826 240.556 305.989 240.308C306.355 239.75 308.01 239.667 307.758 238.85C307.623 238.413 307.397 237.907 307.046 237.722C306.541 237.457 308.14 236.588 308.194 236.56C308.81 236.252 309.631 236.275 309.308 235.342C309.052 234.599 308.353 234.145 308.217 233.394C308.069 232.576 308.66 232.284 309.044 231.696C309.214 231.436 309.139 231.198 309.17 230.899C309.22 230.428 309.71 230.461 309.871 230.159C309.998 229.92 309.6 229.835 309.928 229.578C310.572 229.074 311.444 228.775 312.168 228.416C312.234 228.383 310.614 227.703 310.537 227.573C310.281 227.137 311.994 226.134 312.272 225.898C312.559 225.654 312.347 225.483 312.547 225.158C312.629 225.025 312.949 224.94 312.949 224.77C312.949 224.677 312.788 224.619 312.788 224.474C312.788 224.187 312.995 224.153 312.995 223.802" stroke="#4F4133" stroke-width="2.5" stroke-linecap="round"/>
<path d="M313.306 223.7C313.103 223.473 313.169 222.94 313.26 222.68C313.351 222.424 313.749 222.201 313.714 221.957C313.678 221.703 313.358 221.409 313.433 221.16C313.543 220.79 313.874 220.656 313.904 220.26C313.964 219.467 313.616 218.709 313.616 217.919C313.616 217.354 314.511 216.933 315.001 216.933C315.268 216.933 315.097 216.658 315.293 216.523C315.408 216.444 315.994 216.327 315.994 216.216C315.994 216.062 315.7 215.938 315.805 215.749C316.062 215.28 316.756 215.362 317.171 215.179C317.556 215.009 316.607 214.061 316.465 213.96C316.12 213.714 315.757 213.486 316.212 213.095C316.759 212.625 317.35 212.499 317.952 212.2C318.134 212.11 317.728 211.349 317.757 211.09C317.828 210.459 318.819 210.413 318.716 209.666C318.646 209.156 318.165 208.802 318.165 208.27C318.165 207.76 318.565 207.624 318.992 207.422C319.665 207.103 318.526 206.639 318.234 206.317C318.204 206.284 317.952 206.049 317.998 205.998C318.311 205.657 318.989 205.507 319.428 205.462C319.84 205.421 320.128 205.545 319.876 205.081C319.514 204.413 320.911 203.796 321.3 203.492C321.595 203.262 321.59 202.96 321.576 202.603C321.542 201.714 321.752 200.884 322.145 200.074C322.442 199.462 322.65 198.805 322.972 198.218C323.388 197.458 323.591 196.367 323.54 195.507C323.526 195.258 322.828 195.243 322.662 195.091C322.314 194.773 322.089 194.632 322.529 194.117C322.642 193.985 324.295 192.319 323.85 192.044C323.649 191.919 323.666 191.556 323.356 191.508C322.74 191.414 323.528 191.122 323.747 191.098" stroke="#4F4133" stroke-width="2.5" stroke-linecap="round"/>
<path d="M323.953 190.996C324.21 190.713 324.439 190.303 324.729 190.073C325.204 189.696 324.219 188.143 323.976 187.795C323.835 187.592 324.249 187.53 324.361 187.516C324.828 187.458 324.797 187.114 324.723 186.696C324.667 186.381 324.55 186.113 324.574 185.79C324.604 185.379 325.198 185.279 325.458 185.072C325.769 184.826 325.619 184.076 325.458 183.779C325.226 183.352 325.91 183.061 326.228 182.965C326.728 182.813 327.971 183.11 327.238 182.202C327.102 182.032 327.179 181.75 327.416 181.678C328.191 181.441 327.238 179.878 327.026 179.496C326.792 179.074 326.366 178.524 326.808 178.124C326.957 177.989 327.736 177.715 327.623 177.514C327.139 176.651 328.738 176.282 329.375 176.153C330.294 175.967 329.008 174.3 328.76 173.727C328.654 173.481 328.242 172.812 328.605 172.565C328.761 172.458 328.755 172.22 328.875 172.075C329.206 171.674 329.99 171.294 330.506 171.215C330.658 171.192 329.69 170.579 329.501 170.492C329.121 170.316 329.506 169.94 329.742 169.82C329.96 169.709 330.156 169.881 330.156 169.569C330.156 169.196 330.39 169.045 330.615 168.76C331.166 168.065 330.486 166.535 331.396 166.083" stroke="#4F4133" stroke-width="2.5" stroke-linecap="round"/>
<path d="M281.777 251.839C281.983 251.813 282.044 251.669 282.29 251.669" stroke="#4F4133" stroke-width="2.5" stroke-linecap="round"/>
<path d="M296.676 236.552C296.569 237.028 295.23 237.633 294.792 237.741" stroke="#4F4133" stroke-width="2.5" stroke-linecap="round"/>
<path d="M300.1 227.38C300.346 227.108 300.451 226.852 300.613 226.531" stroke="#4F4133" stroke-width="2.5" stroke-linecap="round"/>
<path d="M315.855 238.76C316.168 238.502 316.545 238.304 316.883 238.081" stroke="#4F4133" stroke-width="2.5" stroke-linecap="round"/>
<path d="M318.253 244.026C318.048 244.071 318.027 244.212 317.911 244.365" stroke="#4F4133" stroke-width="2.5" stroke-linecap="round"/>
<path d="M327.503 210.565C327.721 210.268 327.674 209.897 327.674 209.546" stroke="#4F4133" stroke-width="2.5" stroke-linecap="round"/>
<path d="M344.628 186.277V186.787" stroke="#4F4133" stroke-width="2.5" stroke-linecap="round"/>
<path d="M342.915 195.619C342.538 196.743 342.177 197.868 341.888 199.016" stroke="#4F4133" stroke-width="2.5" stroke-linecap="round"/>
<path d="M352.849 210.056C352.866 210.215 352.935 210.269 353.02 210.396" stroke="#4F4133" stroke-width="2.5" stroke-linecap="round"/>
<path d="M336.407 224.154C336.184 224.403 336.236 224.687 336.236 225.003" stroke="#4F4133" stroke-width="2.5" stroke-linecap="round"/>
<path d="M331.612 243.006C331.612 243.656 331.37 244.488 331.954 244.875" stroke="#4F4133" stroke-width="2.5" stroke-linecap="round"/>
<path d="M333.668 233.665C333.668 233.242 333.97 233.13 334.181 232.816" stroke="#4F4133" stroke-width="2.5" stroke-linecap="round"/>
<path d="M356.273 229.249C356.35 228.752 356.668 228.359 356.786 227.89" stroke="#4F4133" stroke-width="2.5" stroke-linecap="round"/>
<path d="M347.368 177.615C347.158 177.355 347.152 177.133 346.854 176.936" stroke="#4F4133" stroke-width="2.5" stroke-linecap="round"/>
<path d="M340.86 214.812V214.982" stroke="#4F4133" stroke-width="2.5" stroke-linecap="round"/>
<path d="M335.38 175.068H335.722" stroke="#4F4133" stroke-width="2.5" stroke-linecap="round"/>
<path d="M326.817 168.274H326.646" stroke="#4F4133" stroke-width="2.5" stroke-linecap="round"/>
<path d="M319.281 183.899V185.258" stroke="#4F4133" stroke-width="2.5" stroke-linecap="round"/>
</svg>
