<svg width="430" height="332" viewBox="0 0 430 332" fill="none" xmlns="http://www.w3.org/2000/svg">
<path d="M103.305 164.652C103.074 163.82 102.386 163.091 101.76 162.603C101.055 162.055 101.121 160.499 101.018 159.723C100.906 158.886 101.277 159.958 101.367 160.222C101.494 160.596 101.576 161.027 101.61 161.418C101.63 161.637 101.874 161.717 101.904 161.955C101.94 162.245 102.062 162.227 102.286 162.404C102.684 162.718 102.984 163.153 103.383 163.456C103.491 163.538 103.451 163.667 103.527 163.733C103.627 163.821 103.56 163.374 103.549 163.345C103.313 162.738 102.831 162.258 102.707 161.606C102.631 161.21 102.416 160.892 102.319 160.554C102.213 160.181 102.223 159.786 102.059 159.424C101.683 158.598 101.311 157.428 101.311 156.528C101.311 155.862 100.906 155.283 100.818 154.628C100.71 153.813 100.709 153.002 100.613 152.191C100.589 151.982 100.314 151.892 100.314 151.593C100.314 151.213 100.106 150.812 100.038 150.419C99.8737 149.477 99.9923 148.501 99.8215 147.562C99.6741 146.751 99.6166 145.79 99.6166 144.964C99.6166 144.887 99.2837 143.962 99.4172 143.962C99.4757 143.962 99.5556 144.88 99.5723 144.959C99.66 145.372 99.8345 145.768 99.8935 146.188C100.016 147.062 99.9966 147.997 100.015 148.88C100.022 149.191 100.178 149.472 100.209 149.782C100.21 149.794 100.259 150.202 100.292 150.109C100.374 149.876 99.9665 149.07 99.9101 148.841C99.6917 147.954 99.618 147.08 99.4505 146.188C99.3137 145.46 99.1182 144.758 99.1182 144.017C99.1182 143.087 99.1182 142.156 99.1182 141.226" stroke="#F4F0EE" stroke-width="2" stroke-linecap="round"/>
<path d="M99.1187 140.727C99.1096 139.464 98.9577 138.282 98.8196 137.039C98.7657 136.553 98.7779 136.018 98.6701 135.544C98.5963 135.219 98.7118 133.795 98.4209 133.65" stroke="#F4F0EE" stroke-width="2" stroke-linecap="round"/>
<path d="M103.105 161.562C103.497 162.062 103.56 162.802 103.759 163.401C103.925 163.899 104.146 164.304 104.346 164.791C104.566 165.325 104.733 165.822 104.922 166.369C105.231 167.264 105.87 167.876 106.096 168.839" stroke="#F4F0EE" stroke-width="2" stroke-linecap="round"/>
<path d="M270.607 120C270.607 120.922 269.709 120.714 269 120.714" stroke="#F4F0EE" stroke-width="5" stroke-linecap="round"/>
<path d="M48.0446 205.161C46.6767 202.955 45.3838 200.698 43.955 198.53C43.179 197.353 42.2709 196.21 41.8565 194.839C41.7111 194.358 41.7111 193.836 41.6551 193.342C41.5503 192.418 41.3252 191.53 41.0197 190.653C40.7377 189.843 40.3975 189.043 40.2546 188.194C40.1511 187.58 40.0711 186.965 40.0711 186.342C40.0711 186.236 40.056 186.174 40.013 186.076C39.9744 185.988 39.9413 185.939 39.9749 186.089C40.0224 186.3 40.1144 186.45 40.2546 186.615C40.5465 186.958 40.8424 187.287 41.0868 187.669C41.6484 188.544 41.9501 189.562 42.2368 190.552C42.3066 190.794 42.3575 191.161 42.5008 191.376C42.5669 191.475 42.4207 191.151 42.3777 191.04C42.1987 190.577 42.0071 190.119 41.8028 189.666C41.4002 188.775 40.8545 187.957 40.4649 187.062C40.2661 186.606 40.249 186.001 39.9638 185.59C39.6422 185.127 39.1659 184.779 38.863 184.293C38.7483 184.108 38.616 183.942 38.5096 183.751C38.4696 183.679 38.2086 183.197 38.438 183.487C38.9629 184.151 39.3844 184.984 39.7848 185.724C40.501 187.048 40.7625 188.573 40.9727 190.044C41.1455 191.254 41.2173 192.474 41.4403 193.676C41.6822 194.979 42.0396 196.183 42.6484 197.367C43.4213 198.87 44.3842 200.199 45.5949 201.381C45.9801 201.756 46.3382 202.098 46.6508 202.537C46.7922 202.736 46.9078 202.938 47.1363 203.045C47.2338 203.091 47.3343 203.161 47.3645 203.034C47.6824 201.694 47.3653 200.198 46.9573 198.92C46.3336 196.965 45.3065 195.179 44.8141 193.179C44.4869 191.85 44.2592 190.414 44.2592 189.04C44.2592 188.957 44.2592 188.874 44.2592 188.792C44.2592 188.769 44.2438 188.728 44.266 188.725C44.2993 188.719 44.317 188.769 44.3398 188.794C44.4621 188.927 44.4548 188.924 44.615 189.078C45.131 189.574 45.6642 190.048 46.1385 190.586C46.5732 191.079 46.9436 191.617 47.3198 192.154" stroke="#F4F0EE" stroke-width="5" stroke-linecap="round"/>
<path d="M152.448 296.276C151.063 296.748 149.606 296.06 148.362 295.383C147.867 295.115 147.523 294.76 146.973 294.63C146.617 294.545 146.401 294.198 146.1 294.144C144.953 293.935 143.948 293.388 142.777 293.221C141.847 293.088 140.788 292.889 139.871 292.666C138.919 292.434 138.031 292.098 137.054 291.951C136.053 291.801 135.15 291.897 134.257 291.376C132.46 290.328 130.508 289.458 128.543 288.599C127.955 288.341 127.422 287.67 126.817 287.527C126.34 287.415 126.224 286.997 125.835 286.744C125.325 286.412 124.656 286.291 124.099 286.059C123.412 285.773 122.697 285.711 122.016 285.425C121.822 285.343 121.586 285.396 121.381 285.385C121.108 285.37 121.007 285.093 120.756 285.038C120.358 284.949 119.643 284.698 119.348 284.403C119.029 284.084 118.688 284.117 118.306 283.877C116.925 283.008 115.751 282.433 114.597 281.278" stroke="#F4F0EE" stroke-width="5" stroke-linecap="round"/>
<path d="M74.2179 247.577C71.6583 244.538 69.714 241.005 67.4622 237.739C65.1542 234.391 62.864 231.087 60.8405 227.552C58.9398 224.231 56.9757 220.893 55.2107 217.498C53.2875 213.8 52.1624 210.222 51.243 206.158C50.0709 200.977 49.3432 195.468 47.4362 190.489C46.5862 188.269 45.8948 186.052 45.1441 183.8C44.1045 180.681 43.6773 178.192 44.0583 174.953" stroke="#F4F0EE" stroke-width="10" stroke-linecap="round"/>
<path d="M164.456 211.868C166.719 211.868 168.988 211.627 171.212 211.627" stroke="#F4F0EE" stroke-width="10" stroke-linecap="round"/>
<path d="M173.865 278.702C176.694 278.756 179.865 279 182.551 279.895C183.592 280.242 185.303 280.603 186.412 280.632C189.745 280.72 193.206 280.73 196.492 281.356C197.377 281.525 198.315 281.58 199.173 281.866C200.158 282.194 200.923 282.732 201.974 282.911C203.524 283.176 204.794 283.476 206.277 283.903C206.711 284.028 207.221 283.897 207.631 284.05C208.021 284.197 208.111 284.677 208.502 284.855C208.969 285.067 209.358 285.309 209.695 285.713C212.053 288.542 196.749 292.224 194.99 292.576C191.256 293.322 187.219 292.696 183.516 292.696" stroke="#F4F0EE" stroke-width="10" stroke-linecap="round"/>
<path d="M150.703 294.627C152.595 294.627 154.434 295.592 156.373 295.592C157.247 295.592 157.532 295.885 158.303 296.047C159.83 296.369 161.402 296.315 162.955 296.315C169.847 296.315 176.7 296.557 183.597 296.557C186.094 296.557 188.19 295.954 190.634 295.578C192.524 295.288 194.349 294.499 196.036 293.608C198.119 292.508 200.392 291.635 202.323 290.284C204.348 288.866 207.485 287.074 210.004 286.906C211.021 286.838 211.868 286.423 212.899 286.423C213.344 286.423 215.484 286.695 214.226 286.276C212.027 285.543 209.919 284.762 207.671 284.144C205.8 283.63 204.043 283.342 202.176 282.992C200.252 282.631 198.423 281.874 196.439 281.839C195.125 281.816 193.822 281.356 192.565 281.356C191.509 281.356 190.454 281.115 189.374 281.115C187.823 281.115 185.527 281.553 184.053 281.061C183.619 280.917 183.291 280.514 182.981 280.204C182.783 280.006 185.364 281.069 185.661 281.195C187.444 281.955 189.195 282.815 190.996 283.528C191.829 283.857 192.778 283.913 193.543 284.372C194.442 284.911 195.149 284.975 196.17 284.975C196.314 284.975 192.919 281.953 192.578 281.705C188.987 279.085 184.895 277.358 180.89 275.485C176.304 273.342 170.625 271.257 168.316 266.638" stroke="#F4F0EE" stroke-width="10" stroke-linecap="round"/>
<path d="M98.7803 173.892C101.156 177.587 102.729 181.764 104.442 185.795C106.327 190.229 108.42 194.607 110.694 198.856C112.21 201.688 113.696 204.523 115.144 207.392C115.753 208.597 116.692 209.801 117.182 211.059C117.482 211.831 115.805 210.13 115.187 209.579C112.566 207.239 110.631 203.893 108.796 200.947C103.116 191.827 98.2907 181.845 93.8905 172.047C92.668 169.325 91.6759 166.507 90.5984 163.726C90.2189 162.747 88.9014 159.981 89.644 160.723C90.8283 161.907 91.7495 163.591 92.7967 164.905C95.2835 168.026 97.2559 171.518 99.3594 174.9C104.296 182.835 109.357 190.679 114.319 198.598C116.364 201.862 118.734 204.85 120.849 208.056C123.358 211.86 125.573 215.818 128.291 219.488C132.375 225.001 136.494 230.3 140.977 235.498C143.298 238.189 146.137 240.87 148.044 243.83C148.273 244.185 148.687 244.244 148.869 244.645C149.089 245.127 148.881 245.685 148.987 246.189C149.159 247.004 149.631 247.702 149.781 248.548C149.804 248.68 150.399 250.108 150.467 249.964C150.915 249.018 150.51 247.035 150.51 246.017C150.51 242.471 150.51 238.926 150.51 235.38C150.51 234.853 150.41 231.047 150.553 233.492C150.756 236.97 151.141 240.473 151.518 243.937C151.624 244.913 151.712 245.98 152.033 246.918C152.267 247.603 152.247 245.239 152.247 245.202C152.247 240.799 152.247 236.395 152.247 231.991C152.247 230.725 151.799 227.063 152.365 228.195C152.607 228.679 152.668 230.327 153.223 230.501C154.208 230.808 157.578 221.443 158.017 220.646C158.292 220.144 160.629 217.533 159.968 217.514C159.191 217.492 158.312 217.944 157.738 218.426C155.685 220.146 153.824 222.194 152.269 224.367C150.625 226.663 146.326 233.859 148.323 231.862C151.59 228.595 154.705 224.962 157.63 221.386C157.871 221.091 163.347 215.001 162.435 214.362C162.142 214.157 160.351 216.81 160.236 216.978C158.406 219.668 156.902 222.323 155.99 225.461C154.595 230.256 153.963 235.066 153.834 240.055C153.705 245.096 153.601 250.223 154.371 255.218C154.756 257.72 155.211 260.28 156.279 262.596C156.652 263.403 156.88 258.629 156.88 258.274C156.88 254.56 156.88 250.846 156.88 247.133C156.88 245.102 156.88 243.072 156.88 241.042C156.88 240.355 156.756 238.317 156.923 238.983C157.651 241.898 157.554 245.155 158.038 248.13C158.834 253.022 159.711 257.902 160.708 262.757C161.036 264.35 161.692 269.189 161.512 267.571C161.312 265.769 160.257 263.814 159.689 262.102C158.953 259.882 158.39 257.599 157.373 255.486C157.226 255.181 155.571 252.297 155.539 252.634C155.174 256.472 157.132 260.305 157.073 264.097C157.042 266.043 148.288 262.97 147.229 262.682" stroke="#F4F0EE" stroke-width="10" stroke-linecap="round"/>
<path d="M145.395 225.139C145.691 225.097 143.32 223.672 142.982 223.557C141.757 223.141 140.548 223.271 139.417 222.592C138.365 221.961 137.32 221.513 136.334 220.796C134.187 219.234 131.027 217.269 129.953 214.764" stroke="#F4F0EE" stroke-width="10" stroke-linecap="round"/>
<path d="M136 218.5C133.218 217.513 132.481 215.665 130.436 213.517C128.646 211.638 127.477 209.649 125.396 208.048C124.453 207.322 123.007 207.065 122.179 206.265C121.241 205.36 120.551 204.331 119.874 203.236C119.035 201.882 118.049 200.702 116.804 199.697C115.323 198.503 113.266 197.774 112.086 196.239C109.851 193.334 109.641 189.385 107.032 186.776" stroke="#F4F0EE" stroke-width="10" stroke-linecap="round"/>
<path d="M118.855 199.563C115.852 197.686 114.061 195.193 112.046 192.406C110.709 190.557 109.107 189.237 107.233 187.955C102.307 184.584 102.054 178.301 99.526 173.385C98.4398 171.273 97.7637 168.874 96.4698 166.884C95.3262 165.124 95.0213 163.01 94.3922 161.053C93.8384 159.33 97.1625 163.163 97.5154 163.56C99.5482 165.843 100.799 167.899 101.59 170.878C102.084 172.739 102.055 174.693 102.797 176.495C103.463 178.114 104.212 179.92 104.7 181.628C105.343 183.878 106.398 186.852 108.48 188.277C108.699 188.427 108.832 188.585 108.963 188.813C109.063 188.99 108.746 186.102 108.681 185.851C107.877 182.729 107.239 178.964 105.29 176.294C104.357 175.015 103.163 173.969 102.448 172.54" stroke="#F4F0EE" stroke-width="10" stroke-linecap="round"/>
<path d="M109.686 260.848C121.678 260.715 133.671 260.556 145.663 260.606C147.12 260.613 148.649 260.553 150.087 260.848C150.497 260.932 150.595 261.233 150.931 261.317C151.565 261.475 149.621 261.312 148.974 261.223C144.995 260.674 141.235 258.934 137.54 257.456C133.347 255.779 129.195 253.998 124.779 252.979C122.744 252.51 119.5 251.44 117.353 251.786C117.085 251.83 117.52 252.336 117.729 252.51C118.646 253.278 120.377 254.425 121.294 254.977C125.19 257.323 129.385 259.029 133.465 261.009C137.262 262.85 140.899 264.993 144.645 266.933C147.495 268.41 150.527 269.51 153.371 270.968C153.715 271.145 154.696 271.652 154.309 271.652C153.014 271.652 150.761 270.197 149.752 269.721C144.756 267.369 139.738 265.077 134.658 262.912C131.469 261.552 127.756 259.541 124.243 259.025C122.867 258.822 126.163 261.056 127.273 261.893C130.869 264.608 134.644 267.088 138.318 269.695C141.024 271.615 143.753 273.498 146.468 275.405C146.601 275.499 148.332 276.632 147.151 276.464C139.468 275.366 131.958 271.487 124.9 268.528C116.432 264.979 107.575 261.858 99.5794 257.282C98.4752 256.65 97.4071 255.928 96.3892 255.164C95.8988 254.796 97.4656 255.756 97.9709 256.103C106.987 262.295 114.747 270.502 124.283 275.914C124.725 276.165 125.179 276.406 125.678 276.517C126.701 276.745 123.874 275.448 122.983 274.895C119.323 272.624 115.708 270.424 111.938 268.368C111.27 268.003 113.125 269.334 113.788 269.708C118.056 272.112 122.752 273.665 127.407 275.123C135.608 277.693 143.876 280.431 152.419 281.598C158.292 282.399 164.088 281.221 169.952 280.927C171.496 280.85 173.045 280.874 174.59 280.874C174.722 280.874 176.991 280.796 176.989 280.793C176.473 279.909 174.82 279.175 174.027 278.635C171.327 276.797 169.003 274.615 166.762 272.241C164.449 269.792 162.257 267.222 160.127 264.614C159.88 264.313 157.938 262.298 158.156 261.732C158.412 261.066 161.725 262.856 161.775 262.885C164.156 264.293 166.162 266.295 167.754 268.542C168.262 269.26 170.881 272.828 168.209 271.987C166.899 271.574 163.818 269.048 164.47 270.258C165.063 271.359 166.486 272.363 167.392 273.166C169.237 274.802 171.155 276.308 173.142 277.764C173.142 277.764 174.368 278.851 173.92 278.032C173.086 276.512 171.784 275.139 170.676 273.823C169.046 271.889 167.335 270.014 165.18 268.649C164.424 268.17 162.053 266.588 161.038 267.349C158.418 269.314 158.519 274.939 158.438 277.871C158.413 278.748 158.581 279.864 157.513 280.177C155.002 280.913 151.855 278.907 149.738 277.844C146.815 276.378 144.052 274.721 141.401 272.804C140.533 272.177 138.214 270.965 137.634 269.922C137.199 269.14 139.43 270.027 140.302 270.231C144.142 271.129 148.021 272.471 151.615 274.091C154.915 275.578 159.133 277.941 160.301 281.678C161.05 284.074 159.243 284.711 157.084 285.431C152.748 286.876 148.152 286.857 143.653 286.383C141.11 286.115 138.583 285.726 136.24 284.654C133.462 283.382 130.88 281.56 128.318 279.909C125.221 277.912 122.264 275.772 119.069 273.93C116.255 272.308 113.167 271.293 110.316 269.721C108.587 268.768 107.418 267.443 106.04 266.035C103.03 262.958 99.8185 260.162 96.4294 257.51C91.0657 253.312 85.4872 249.355 80.4649 244.736C77.3703 241.89 75.7894 238.163 72.9987 235.152C72.0699 234.15 71.0247 233.202 70.0096 232.283C68.2826 230.721 70.8545 236.43 70.9211 236.586C71.9741 239.052 73.0372 241.632 74.567 243.851C75.7551 245.574 77.3714 246.953 78.776 248.489C81.8506 251.85 84.5412 255.494 87.8909 258.596C91.3751 261.822 95.136 264.814 98.7886 267.831C101.484 270.058 104.625 271.003 107.93 271.973C113.036 273.472 118.141 275.276 122.849 277.764C126.245 279.558 129.815 281.23 133.385 282.643C140.01 285.265 147.412 284.854 154.389 285.498C158.859 285.911 163.33 286.459 167.646 287.737C170.07 288.454 172.411 289.446 174.804 290.257C178.004 291.341 181.023 291.731 184.375 291.731C186.504 291.731 192.812 290.916 190.688 290.753C189.368 290.651 188.254 289.946 187.016 289.546C186.373 289.339 185.82 288.927 185.166 288.755C183.787 288.394 182.196 288.502 180.783 288.407C179.042 288.289 177.473 287.819 175.796 287.388C173.54 286.809 171.505 286.601 169.161 286.678C166.776 286.756 164.426 287.318 162.043 287.495C157.964 287.799 153.828 287.649 149.738 287.629C148.03 287.621 146.315 287.606 144.618 287.388C144.55 287.38 144.362 287.301 144.43 287.308C146.015 287.463 147.596 287.735 149.162 288.018C153.445 288.794 157.515 290.293 161.802 291.007" stroke="#F4F0EE" stroke-width="10" stroke-linecap="round"/>
<path d="M170.971 294.868C165.377 293.724 159.48 293.367 153.8 292.817C149.568 292.408 145.853 291.03 141.923 289.439C139.167 288.323 136.565 286.907 133.841 285.726C131.545 284.731 129.132 284.086 126.844 283.059C122.859 281.27 118.715 280.768 114.619 279.453C110.936 278.27 107.422 276.026 104.271 273.796C102.069 272.239 100.295 270.054 98.0245 268.622C97.5437 268.319 97.2341 268.086 96.6572 268.086" stroke="#F4F0EE" stroke-width="10" stroke-linecap="round"/>
<path d="M94.5336 250.521C90.5907 248.311 87.3748 244.378 84.6466 240.848C80.0175 234.86 76.023 228.16 72.6042 221.418C63.121 202.716 55.7321 182.647 50.1815 162.439C49.7427 160.841 49.4272 159.226 49.1091 157.603C49.0557 157.33 48.969 156.351 48.6373 156.112C48.4529 155.979 49.082 160.432 49.1091 160.573C51.8718 174.862 56.5969 188.666 61.4518 202.351C64.4801 210.887 67.375 219.479 70.6739 227.916C72.6746 233.033 74.8445 238.058 76.5826 243.272C76.9237 244.295 74.8398 241.316 74.6738 241.084C72.2251 237.67 70.2341 233.953 68.3577 230.2C62.7011 218.887 57.2755 207.56 53.2055 195.553C49.3523 184.185 46.2041 172.761 43.2756 161.131C42.7847 159.181 42.4341 157.109 41.6885 155.233C41.145 153.864 41.1677 156.846 41.1738 156.927C41.7501 164.583 43.9508 172.167 46.2782 179.446C47.6183 183.638 48.7359 187.918 50.3531 192.014C52.4785 197.397 54.8317 202.663 57.1839 207.949C61.4472 217.53 66.7332 226.943 72.7543 235.53C77.8886 242.852 84.3088 249.101 91.2522 254.703C96.2879 258.766 101.742 262.184 106.908 266.059C107.972 266.857 109.308 267.368 110.297 268.247C110.744 268.644 109.345 267.11 109.225 266.949C101.798 257.047 96.1529 246.485 91.1664 235.165C84.5461 220.136 77.6398 204.79 73.5264 188.851C73.3783 188.277 72.8358 186.592 72.9259 187.178C73.2335 189.178 74.6677 191.183 75.5102 192.979C80.9614 204.598 86.0199 216.4 91.649 227.937C95.0671 234.944 97.9605 242.311 102.212 248.87C102.629 249.513 105.959 254.269 104.796 250.693C103.658 247.195 102.168 243.778 100.828 240.355C98.3103 233.924 95.9352 227.445 93.4827 220.989C90.6471 213.524 87.6222 206.117 84.4964 198.77C81.88 192.62 79.0844 186.013 74.9526 180.701C74.5972 180.244 72.7242 178.119 72.1538 179.586C70.9997 182.553 71.5769 186.556 71.9286 189.591C72.6879 196.143 74.1288 202.546 76.1107 208.828C79.1832 218.568 82.2859 228.355 85.9548 237.889C86.9182 240.392 87.879 242.948 89.0324 245.374C89.2856 245.906 89.9591 247.209 90.2228 246.682C90.6235 245.881 90.0649 243.905 89.9547 243.186C89.5029 240.241 88.9622 237.314 88.3247 234.404C85.0544 219.474 82.046 204.532 78.0195 189.784C77.8857 189.293 77.7589 188.801 77.612 188.314C77.53 188.043 77.4987 187.741 77.3332 187.51C77.258 187.405 77.2949 187.768 77.3117 187.896C77.6172 190.213 78.2906 192.517 78.9203 194.759C80.9364 201.939 83.2004 209.053 85.9334 215.992C90.387 227.299 94.5546 238.922 99.8309 249.878C101.264 252.853 102.841 255.798 104.581 258.606C105.145 259.516 106.554 261.796 106.93 260.794C107.24 259.968 107.071 258.687 107.037 257.856C106.947 255.634 106.678 253.439 106.362 251.239C105.336 244.116 103.969 237.064 102.748 229.975C101.417 222.25 100.384 214.477 99.0803 206.748C98.487 203.23 97.4872 199.673 97.4289 196.089C97.4286 196.074 97.3743 194.869 97.4503 195.896C97.5429 197.146 97.7448 198.376 97.9865 199.606C99.1555 205.556 100.558 211.49 102.094 217.353C103.971 224.523 106.221 231.584 108.345 238.682C109.369 242.104 110.292 245.843 112.045 248.998C112.167 249.219 112.261 248.521 112.249 248.269C112.19 247.047 112.061 245.83 111.863 244.623C110.859 238.508 109.698 232.411 108.624 226.308C107.658 220.817 106.749 215.325 105.9 209.815C105.847 209.467 104.69 202.102 104.592 202.126C103.314 202.446 110.885 233.845 111.369 235.937C113.138 243.575 115.27 251.165 117.911 258.553C118.396 259.909 120.198 263.621 119.927 259.936C119.104 248.778 118.034 237.686 116.849 226.565C116.359 221.966 115.727 217.369 115.316 212.764C115.25 212.029 115.274 211.233 115.144 210.501C115.139 210.474 115.257 212.418 115.273 212.539C116.791 224.507 118.07 236.405 120.667 248.215C120.739 248.547 121.918 255.949 122.736 255.775C123.6 255.592 122.141 247.098 122.071 246.446C120.984 236.349 119.859 226.223 119.047 216.099C118.911 214.4 118.667 212.708 118.468 211.016C118.15 208.307 118.738 216.469 119.069 219.176C119.804 225.196 121.116 231.019 122.607 236.892C124.171 243.047 125.61 249.224 127.862 255.175C128.057 255.689 130.076 260.089 130.511 257.684C131.073 254.57 130.774 251.253 130.629 248.119C130.46 244.497 130.359 240.859 130.05 237.245C129.919 235.719 129.011 231.215 129.138 232.742C129.264 234.251 130.074 235.864 130.693 237.213C132.379 240.888 134.382 244.461 136.634 247.819C140.315 253.308 145.262 257.839 150.006 262.381C150.314 262.676 152.659 265.024 150.917 264.161C148.408 262.919 145.929 260.886 143.808 259.11C135.372 252.053 127.857 243.295 121.449 234.393C119.317 231.43 117.042 228.516 115.123 225.407C114.905 225.054 113.521 222.979 114.897 223.766C116.898 224.909 118.63 226.576 120.248 228.195C124.134 232.08 128.085 235.9 131.937 239.819C135.365 243.308 138.818 246.776 142.446 250.06C144.426 251.852 146.62 254.264 148.987 255.561C149.828 256.022 149.453 255.565 149.073 255.175C147.301 253.353 145.582 251.431 143.915 249.513C141.359 246.574 138.899 243.564 136.398 240.58C133.076 236.617 129.428 232.919 126.275 228.817C119.963 220.605 113.826 211.832 108.989 202.652C107.083 199.035 105.278 195.195 103.82 191.371C103.608 190.814 102.417 187.243 102.812 187.489C104.133 188.309 105.202 189.673 106.233 190.813C108.473 193.289 110.581 195.88 112.763 198.405C117.478 203.861 122.28 209.272 127.304 214.447C131.096 218.353 135.494 221.598 139.057 225.75C139.54 226.312 143.737 230.694 142.51 231.798C141.089 233.077 137.029 230.112 136.012 229.449C133.379 227.735 131.036 225.634 128.913 223.326C126.335 220.525 123.548 217.882 121.203 214.876C110.687 201.397 101.464 186.833 92.4103 172.347" stroke="#F4F0EE" stroke-width="10" stroke-linecap="round"/>
<path d="M94.9197 186.1C93.1819 179.148 91.6592 172.244 91.1022 165.082C90.4024 156.085 89.7838 146.657 90.491 137.641C90.523 137.232 90.6194 132.485 91.2523 132.44C92.043 132.384 92.2658 139.276 92.3032 139.689C93.2228 149.853 94.3989 159.966 95.1986 170.144C95.3025 171.466 96.0309 175.226 95.2951 174.122C94.6034 173.085 94.2929 171.194 93.9654 170.015C91.7821 162.155 91.0211 153.899 90.1371 145.823C89.0534 135.922 89.0421 125.932 88.4428 116.001C88.4302 115.793 88.0794 112.493 87.6814 114.36C86.989 117.609 87.0851 121.006 86.6198 124.29C86.3326 126.317 86.0904 128.372 85.6976 130.381C85.4551 131.622 85.2391 131.825 84.5395 130.617C82.0519 126.324 80.6252 121.501 78.1054 117.191C74.6041 111.202 71.4496 105.117 69.1406 98.554C67.4211 93.6662 65.8402 88.7351 64.0685 83.8629C60.5943 74.309 69.003 103.725 73.3549 112.913C73.7442 113.735 74.449 115.461 75.4031 115.851C76.3667 116.245 75.4432 112.612 75.3817 112.366C74.6669 109.507 74.0397 106.764 72.9153 104.023C71.6136 100.85 70.2596 97.6925 68.9798 94.5113C68.1365 92.4151 67.5276 90.1602 67.2533 87.9164C67.2367 87.7809 66.9097 84.9931 67.4249 85.2355C68.1361 85.5702 68.9521 87.8764 69.3444 88.5705C70.8451 91.2256 72.2852 93.9583 73.6445 96.6882C75.6323 100.68 78.1164 104.394 80.1429 108.366C80.4373 108.943 80.7191 109.584 81.0972 110.114C81.4789 110.648 80.4168 108.99 80.0571 108.441C77.6031 104.693 75.3539 100.819 73.2155 96.8812C70.7108 92.2685 69.6587 87.1129 67.5965 82.3402C67.0787 81.1419 66.4834 79.9704 65.9987 78.7586C65.917 78.5545 65.9686 78.8537 65.9665 78.9087C65.9214 80.0804 65.6981 81.2461 65.5376 82.4046C64.4089 90.5474 64.7832 98.8652 63.543 106.983C63.2214 109.087 62.5993 105.825 62.5028 105.396C61.8484 102.48 61.6617 99.4791 61.0337 96.5487C60.2764 93.0147 59.6144 89.4241 58.5566 85.9647C58.1654 84.6855 57.1013 81.2343 55.1573 81.5467C53.1367 81.8714 51.6792 85.3786 50.9323 86.9298C49.8105 89.2596 48.5694 91.503 47.3935 93.8036C46.7563 95.0503 46.8574 92.8592 46.8574 92.5596C46.8574 89.6965 46.8574 86.8333 46.8574 83.9702C46.8574 83.825 47.1279 81.1934 46.3855 81.7397C45.1853 82.6229 44.599 84.5163 43.8763 85.7717C43.2461 86.8661 43.0287 85.9188 43.0077 85.1283C42.9458 82.8072 43.0088 80.4237 43.2757 78.1152C43.3961 77.0746 43.8643 75.6354 43.383 74.6193C43.0287 73.8715 42.4656 75.3845 42.4393 75.6273C42.0222 79.4854 41.9489 83.7183 42.5465 87.5518C43.6736 94.7817 44.6408 102.022 45.785 109.256C47.6319 120.933 49.8529 132.662 52.3799 144.214C54.8855 155.668 57.6471 167.1 59.7469 178.637C60.374 182.082 61.0517 185.454 62.149 188.781C62.6108 190.181 63.9351 194.215 62.9318 193.135C61.7364 191.847 61.2836 189.519 60.8407 187.912C59.5807 183.341 58.3643 178.717 57.4307 174.068C55.4244 164.08 53.9042 153.916 53.0341 143.764C52.8747 141.905 52.455 139.965 52.455 138.102C52.455 136.055 53.1247 142.142 53.463 144.161C54.4462 150.029 55.4622 155.89 56.68 161.715C58.1011 168.513 60.1617 175.116 62.0632 181.789C63.2508 185.958 64.3014 190.204 65.9879 194.207C66.5506 195.543 67.1113 197.272 68.004 198.432C68.1894 198.673 68.0058 197.821 67.9611 197.52C67.7708 196.241 67.5345 194.968 67.3176 193.692C66.5424 189.132 65.6744 184.578 65.0228 179.998C64.3523 175.286 63.9785 170.55 63.5537 165.811C63.3266 163.278 62.6945 160.376 63.0712 157.833C63.1287 157.445 63.3481 158.568 63.4787 158.938C63.8049 159.862 64.1247 160.788 64.4438 161.715C66.3785 167.335 68.097 173.023 70.2344 178.572C72.0221 183.213 73.9084 187.812 75.9393 192.352C77.5926 196.047 78.9576 200.055 81.0865 203.515C81.6692 204.462 82.0814 205.009 82.1374 203.515C82.2835 199.618 81.3305 195.582 80.7327 191.751C79.9549 186.768 79.5469 181.756 78.6201 176.792C77.8922 172.893 77.3673 168.983 77.2046 165.018C77.0906 162.238 77.9915 165.535 78.3842 166.476C80.2243 170.884 81.876 175.37 83.703 179.784C87.2643 188.387 91.4402 196.875 96.1422 204.92C97.0794 206.523 98.1436 208.861 99.5415 210.142C100.592 211.105 99.4315 205.534 99.4021 205.381C97.5285 195.596 94.9278 185.953 93.1504 176.149C92.7511 173.946 92.2271 171.586 92.078 169.35C92.0543 168.994 92.4299 169.971 92.582 170.294C93.1907 171.584 93.7948 172.866 94.3621 174.176C97.9981 182.566 101.987 190.85 106.394 198.861C108.623 202.913 111.073 207.571 114.597 210.689C115.498 211.486 114.86 210.382 114.651 209.906C113.023 206.202 111.263 202.577 109.568 198.904C103.431 185.607 98.8115 171.394 96.2387 156.975C95.0235 150.165 93.0227 129.51 93.3863 136.418C93.6956 142.295 94.9294 148.21 96.1208 153.951C98.4816 165.328 101.207 176.57 104.324 187.762C106.552 195.761 108.522 203.91 111.134 211.793C111.32 212.358 111.546 212.899 111.777 213.445C111.827 213.563 111.848 213.925 111.906 213.809C112.246 213.13 111.512 211.497 111.316 210.86C109.437 204.753 107.455 198.69 105.321 192.663C102.168 183.754 99.2804 174.674 96.7856 165.554C95.6136 161.269 94.8133 156.907 93.4828 152.664C92.5589 149.719 91.7878 146.863 91.2523 143.828" stroke="#F4F0EE" stroke-width="10" stroke-linecap="round"/>
<path d="M92.7969 124.285C93.3698 125.503 93.7675 126.324 94.0569 127.663C94.2428 128.523 94.9193 129.482 94.9684 130.317C95.0004 130.862 95.0114 130.986 94.9416 130.183C94.7858 128.392 94.2852 126.655 94.0569 124.875C93.8176 123.009 93.3392 121.271 92.9577 119.433C92.7673 118.515 92.8439 117.57 92.5556 116.671C92.4834 116.446 91.8653 115.479 92.1267 115.251C92.6309 114.809 93.9845 115.169 94.5395 115.358C96.2443 115.938 97.9999 116.397 99.7939 116.618C101.097 116.778 103.119 116.517 104.137 117.422C104.615 117.847 106.045 117.449 106.55 117.288C108.893 116.538 111.298 116.358 113.547 115.411C113.903 115.262 114.409 115.291 113.52 115.519C111.573 116.017 109.548 116.309 107.622 116.859C106.267 117.246 104.94 117.649 103.654 118.2C102.964 118.496 102.215 118.401 101.496 118.521C100.392 118.705 99.2529 119.218 98.1318 119.46C94.8144 120.173 92.9062 117.35 90.4109 115.492C88.7272 114.238 86.6209 113.389 85.0894 111.953C83.9653 110.899 83.0279 109.604 82.0199 108.441C80.1635 106.301 78.0814 104.308 75.9343 102.463C73.8599 100.68 72.6129 98.4201 71.3232 96.0557" stroke="#F4F0EE" stroke-width="10" stroke-linecap="round"/>
<path d="M86.8129 185.135C84.6763 183.511 84.5514 181.247 84.2392 178.637C83.7769 174.77 83.7281 170.838 83.7674 166.948C83.814 162.337 84.3047 157.816 84.8397 153.244C85.0571 151.386 85.2717 145.967 85.8906 147.732C86.2873 148.863 86.255 150.365 86.3303 151.517C86.5145 154.337 86.6508 157.159 86.8558 159.978C87.2175 164.952 87.4993 170.012 88.3999 174.926C88.4467 175.182 89.3256 179.648 89.9012 178.036C90.5918 176.103 90.3127 173.678 90.2015 171.688C89.991 167.923 89.5321 164.167 89.2364 160.407C89.1868 159.777 89.1389 157.571 89.1398 157.587C89.2708 159.617 89.4629 161.642 89.5044 163.678C89.5258 164.725 89.5043 165.774 89.6009 166.82C89.6252 167.082 89.6555 167.344 89.7082 167.602C89.8549 168.321 89.8583 167.437 89.8583 167.334C89.8583 163.648 89.5152 159.962 89.5152 156.268C89.5152 150.591 89.5152 144.915 89.5152 139.239C89.5152 137.932 89.6072 136.544 89.3436 135.25C89.2543 134.811 88.863 133.711 88.6466 134.102C88.0394 135.201 87.9342 137.196 87.7351 138.36C87.1993 141.49 86.8298 144.634 86.5448 147.796C85.9456 154.445 85.8413 161.146 85.1829 167.785C85.1072 168.548 84.2216 173.213 83.7674 169.908C83.125 165.234 83.2224 160.451 82.8237 155.753C82.4251 151.056 81.8576 146.234 80.5718 141.684C80.0996 140.013 79.0154 138.658 77.9339 140.912C75.921 145.107 75.4018 150.364 74.8241 154.917C74.2402 159.517 73.9079 164.155 73.1083 168.728C72.7493 170.782 71.6861 172.9 70.7706 169.736C70.3062 168.131 70.1962 166.352 69.9985 164.707C69.4831 160.418 69.1623 156.133 68.9691 151.817C68.8892 150.034 67.5177 124.611 66.996 124.719C66.3148 124.86 66.0085 127.626 65.9451 128.001C65.5783 130.167 65.4958 132.385 65.3875 134.574C65.0065 142.275 64.9715 149.985 65.0121 157.694C65.0307 161.209 65.2084 164.764 65.0229 168.278C65.0093 168.536 65.1409 169.022 64.8835 169.039C64.63 169.056 64.7374 168.551 64.7012 168.299C64.6228 167.755 64.5857 167.206 64.5403 166.659C64.1823 162.335 63.9967 157.986 63.8433 153.651C63.6614 148.514 63.271 143.389 63.0819 138.252C63.0702 137.934 62.7574 130.753 61.3769 132.612C60.594 133.666 60.4643 135.475 60.2831 136.687C59.9004 139.247 59.6588 141.832 59.4038 144.408C59.0195 148.288 58.9259 152.206 58.4387 156.075C58.4177 156.241 58.3056 158.373 57.9454 158.541C57.3962 158.797 57.4928 157.404 57.4092 156.804C56.7973 152.407 56.6612 147.827 56.4012 143.4C56.065 137.674 56.2382 131.949 56.0795 126.221C56.0383 124.731 55.8964 123.262 55.7471 121.781C55.6992 121.306 55.7734 119.849 55.5005 119.358C55.1749 118.772 55.3708 120.693 55.3503 121.363C55.2945 123.19 55.2392 125.016 55.1573 126.843C54.9036 132.503 55.1327 138.11 55.4361 143.764C55.5342 145.591 55.633 151.07 55.7471 149.244C55.971 145.662 56.2174 142.082 56.4334 138.499C57.0825 127.732 58.4651 117.001 58.8998 106.221C58.9247 105.603 59.2497 103.88 58.8676 104.366C58.575 104.739 58.426 106.9 58.3958 107.09C57.3455 113.692 56.6987 120.372 56.3583 127.046C56.1198 131.725 56.0422 136.431 56.1331 141.115C56.1422 141.58 56.2052 142.951 56.3154 142.499C56.7835 140.58 56.8968 138.526 57.2377 136.579C58.9096 127.033 60.0844 117.419 61.6772 107.862C62.0897 105.387 61.9131 109.565 61.9131 109.9C61.9131 114.239 61.9131 118.578 61.9131 122.918C61.9131 124.598 61.465 129.565 61.956 127.958C62.7659 125.307 62.7292 122.18 62.8782 119.443C63.1182 115.034 63.2895 110.621 63.5216 106.211C63.5484 105.7 63.5748 98.0656 62.5136 99.1762C61.5186 100.217 60.9761 101.926 60.519 103.23C59.4836 106.183 58.7366 109.236 58.0741 112.291C56.7803 118.257 55.9036 124.295 54.8571 130.306C54.7921 130.679 53.2962 138.698 52.2834 137.094C50.7818 134.717 50.9364 130.448 50.8358 127.786C50.6263 122.248 50.7178 116.696 50.7178 111.154C50.7178 109.955 50.8945 108.423 50.5034 107.24C50.3595 106.805 49.887 106.102 49.4632 106.768C48.6521 108.043 48.464 110.164 48.2085 111.572C47.6242 114.793 47.2141 118.044 46.7823 121.288C45.8346 128.407 45.238 135.507 44.7341 142.67C44.7036 143.105 44.3843 151.261 43.769 151.292C43.1644 151.322 43.0465 142.923 43.0398 142.563C42.8147 130.43 43.0252 118.282 42.997 106.146C42.9931 104.498 43.0177 102.837 42.8897 101.192C42.8676 100.908 42.6074 100.186 42.4822 100.442C40.5698 104.35 40.4216 109.697 39.9515 113.91C38.5524 126.449 38.4921 139.029 37.4958 151.582C36.9446 158.526 37.3993 137.648 37.3993 130.682C37.3993 120.106 37.388 109.472 38.3537 98.9295C38.4561 97.8118 38.8557 94.5585 38.3537 95.5624C37.9789 96.312 37.9856 97.5355 37.8926 98.3183C37.6259 100.563 37.3924 102.81 37.217 105.063C36.748 111.09 36.4666 117.128 35.9731 123.154C35.6486 127.117 35.9195 131.164 35.3619 135.1C34.8871 138.451 34.9014 128.34 34.89 124.955C34.8653 117.582 34.613 110.267 35.319 102.908C35.7782 98.1212 35.3461 92.0378 37.7425 87.6807C38.4578 86.3801 38.6513 88.6008 38.7076 89.0533C39.267 93.5491 39.3991 98.1139 39.7478 102.629C40.2095 108.609 40.8159 114.638 42.0426 120.516C42.4699 122.564 42.7912 126.729 44.4875 128.301C46.3149 129.995 47.4914 124.845 47.7045 124.012C48.755 119.903 49.2249 115.652 49.6669 111.444C50.1985 106.383 50.6246 101.315 51.0931 96.2487C51.2569 94.4778 51.0876 91.7355 51.9832 90.1149C52.6134 88.9745 54.0044 94.2439 54.0742 94.5115C55.4108 99.6297 56.8 104.724 58.2457 109.814C58.5361 110.837 62.6618 127.343 64.4867 126.928C65.2812 126.748 64.6436 122.101 64.6154 121.61C64.3153 116.392 64.0507 111.173 63.8004 105.953C63.75 104.902 62.9101 83.051 63.3929 83.0696C64.114 83.0973 65.1623 90.6627 65.2373 91.0478C66.7713 98.9212 68.5896 106.7 70.406 114.511C72.5256 123.625 74.2983 132.8 76.6792 141.855C78.0931 147.233 79.2954 153.238 81.6334 158.327C82.3843 159.961 81.236 154.752 81.0329 152.965C80.5608 148.81 80.2047 144.756 79.3494 140.654C77.3057 130.853 75.9721 120.912 74.0734 111.079C73.9989 110.693 72.7619 105.279 73.2477 105.117C73.7054 104.964 75.2479 112.432 75.2745 112.559C78.2748 126.887 81.0774 141.379 84.7969 155.538C85.8159 159.418 87.1384 163.288 89.3007 166.691C89.9604 167.729 90.4319 167.343 90.6304 166.198C91.0827 163.588 90.6501 160.773 90.4803 158.155C90.2373 154.41 90.1892 150.661 89.9012 146.917C89.6116 143.151 89.437 139.374 89.0862 135.614C88.8477 133.058 88.3905 130.198 88.8503 127.636C88.9549 127.053 89.3666 128.73 89.4187 129.32C89.7662 133.259 89.9281 137.215 90.2122 141.158C90.8135 149.507 91.5211 157.907 92.4105 166.23C92.5848 167.861 92.7965 169.467 92.7965 171.109C92.7965 171.805 92.7965 172.227 92.7965 171.259C92.7965 166.294 91.644 161.614 90.6733 156.761" stroke="#F4F0EE" stroke-width="10" stroke-linecap="round"/>
<path d="M52.5032 204.389C52.4729 204.601 52.4266 204.533 52.2888 204.309C51.3198 202.728 50.5173 200.963 49.809 199.255C48.0884 195.105 47.2193 190.82 44.7556 186.977C42.3915 183.289 40.1626 178.64 39.0453 174.363C38.106 170.768 37.4679 166.914 35.7211 163.586C33.7488 159.83 33.6836 154.821 33.6836 150.638C33.6836 145.11 33.4909 139.6 31.9947 134.231C31.5817 132.749 31.2711 131.776 31.1502 130.156C30.9985 128.123 31.0105 126.081 31.0296 124.044C31.05 121.859 31.636 121.593 33.4423 120.425" stroke="#F4F0EE" stroke-width="10" stroke-linecap="round"/>
<path d="M64.0848 78.2011C64.5868 78.7658 64.4194 74.4395 64.4333 74.2066C64.7714 68.5563 66.1078 63.1736 67.3019 57.6657C67.7161 55.7552 67.7643 51.873 69.1517 50.2666C69.4397 49.9331 69.3462 51.1421 69.2991 51.5802C69.0779 53.6377 68.5011 55.6521 68.0525 57.6657C66.885 62.9064 65.6698 68.1247 64.4333 73.3487C64.0785 74.8479 63.8289 75.8894 63.1733 73.5364C61.9611 69.1852 62.3959 64.3511 62.3959 59.8908C62.3959 57.697 62.3959 55.5032 62.3959 53.3093C62.3959 52.3512 62.4294 51.8454 61.967 53.1083C59.371 60.1973 56.8952 67.296 53.4687 74.0457C51.3447 78.2296 49.0461 82.3817 46.7665 86.4849C46.6946 86.6143 46.5084 87.1523 46.485 86.6726C46.3945 84.8163 46.5867 82.8415 46.8469 81.016C47.6903 75.0997 49.7453 69.5014 52.0478 64.0193C52.0663 63.9752 53.7884 59.8421 53.1469 61.821C51.5922 66.6176 49.261 71.1523 47.544 75.8955C47.3841 76.3371 47.0718 77.9488 46.6325 78.3083C45.9684 78.8517 46.5116 76.5901 46.5789 75.7347C47.0637 69.5641 48.8791 63.5124 50.828 57.6657C53.5764 49.4205 44.8077 74.2595 39.5282 81.1634C39.2024 81.5894 35.8345 86.5069 35.7884 83.6968C35.7299 80.1263 37.5563 76.3122 39.1797 73.2415C41.1791 69.4596 43.5075 65.8607 45.4797 62.0623C47.767 57.6571 50.2623 54.9704 54.5946 52.5721C57.0244 51.227 59.6902 49.3363 61.8061 47.5589C63.5016 46.1347 65.0311 44.6351 66.9802 43.5376C68.3178 42.7843 69.652 42.1256 70.9478 41.2857C72.0616 40.5638 73.2452 39.9921 74.4061 39.3555C74.587 39.2563 75.9743 38.4109 75.3444 39.1142C72.8069 41.9478 69.7561 44.3097 67.0874 47.0227C64.6723 49.4779 62.4436 52.1403 59.6614 54.1806C58.8425 54.7811 59.6002 53.0182 59.6882 52.8C60.5102 50.7614 61.7437 48.956 63.3476 47.4651C65.5134 45.4518 67.5284 43.3195 69.8219 41.4465C70.6972 40.7317 71.6775 40.1102 72.5161 39.3555C73.1294 38.8035 77.4985 36.1891 75.6259 34.7846C74.2965 33.7876 71.509 34.845 70.2374 35.5084C67.4565 36.9594 64.7553 38.6217 62.0742 40.267C60.918 40.9764 60.0029 41.9667 58.884 42.7333C56.6851 44.24 54.4624 45.746 52.718 47.8002C50.1725 50.7976 48.2644 54.3721 46.284 57.7461C45.1055 59.7539 44.0939 61.8552 42.9061 63.8585C41.9015 65.5528 40.6385 67.0603 39.7293 68.8181C38.2026 71.7697 37.734 75.4144 36.9144 78.63C35.9978 82.2258 34.5928 85.6848 33.6035 89.2462C32.5206 93.1448 32.8379 97.2162 32.4641 101.203C31.861 107.636 32.5628 113.749 31 120" stroke="#F4F0EE" stroke-width="10" stroke-linecap="round"/>
<rect x="0.786808" y="1.17866" width="240.744" height="118.342" rx="16" transform="matrix(0.980292 0.197554 -0.193484 0.981103 192.284 101.467)" fill="#F4F0EE" stroke="#57493C" stroke-width="2"/>
<path d="M198.585 111.687L294.724 186.595L300.457 189.941C301.678 190.653 303.141 190.817 304.485 190.39L420.688 153.523" stroke="#57493C" stroke-width="2"/>
<path d="M237.468 249.126C244.002 285.509 209.71 292.925 192.255 283.747C146.096 259.475 159.02 207.602 179.207 198.684C199.393 189.765 229.3 203.648 237.468 249.126Z" fill="#F4F0EE" stroke="#514941" stroke-width="2"/>
<path d="M137.255 279.479C56.6581 238.137 41.7884 147.972 44.4281 108.057C46.1478 110.461 48.1106 112.727 50.3432 114.788C46.4938 149.948 57.5379 229.461 132.51 266.234L137.255 279.479Z" fill="#F4F0EE"/>
<path d="M34.8335 67.4339C34.1672 78.386 35.1432 95.0725 44.4281 108.057M85.8388 125.266C71.5781 125.247 57.7283 121.607 50.3432 114.788M146.284 221.708C138.94 231.149 129.871 249.033 132.51 266.234M221.078 285.574C209.348 295.771 177.361 312.93 148.568 291.645C143.537 287.926 139.852 283.813 137.255 279.479M44.4281 108.057C41.7884 147.972 56.6581 238.137 137.255 279.479M44.4281 108.057C46.1478 110.461 48.1106 112.727 50.3432 114.788M137.255 279.479C134.703 275.222 133.203 270.751 132.51 266.234M137.255 279.479L132.51 266.234M132.51 266.234C57.5379 229.461 46.4938 149.948 50.3432 114.788" stroke="#514941" stroke-width="2"/>
<path d="M65.6693 33.1776C4.76215 46.1484 0.996503 269.891 159.363 301.184C168.176 302.265 180.352 304.307 192.228 300.273M100.218 124.154C98.403 144.357 106.828 194.516 147.423 221.747" stroke="#514941" stroke-width="2"/>
<path d="M91.3273 23.4899L66.1522 32.9587C65.6004 33.1663 65.0966 33.4595 64.6569 33.8537C50.3699 46.6597 31.6504 79.3478 66.1141 112.846C66.3491 113.075 66.6153 113.284 66.8879 113.465C73.9587 118.182 80.3309 127.545 94.5135 125.347C108.971 123.108 119.927 117.109 123.598 114.389M177.027 199.928L151.931 215.416C151.412 215.737 150.956 216.141 150.599 216.636C143.312 226.728 134.522 251.112 154.045 273.913C178.717 302.728 193.672 297.504 207.38 294.43C207.764 294.343 208.137 294.216 208.488 294.037C213.959 291.246 223.863 284.355 226.186 282.122" stroke="#514941" stroke-width="2"/>
<path d="M68.9009 58.2449C67.8444 21.1782 103.375 17.8195 119.502 29.0324C162.149 58.6846 141.34 108.912 119.736 115.432C98.1319 121.951 70.2214 104.578 68.9009 58.2449Z" fill="#F4F0EE" stroke="#514941" stroke-width="2"/>
<path d="M181.2 214.007C181.804 213.845 181.873 213.8 182.236 214.183" stroke="#514941" stroke-width="4" stroke-linecap="round"/>
<path d="M206.199 228.176L206.535 229.449" stroke="#514941" stroke-width="4" stroke-linecap="round"/>
<path d="M179.626 239.889L179.738 240.313" stroke="#514941" stroke-width="4" stroke-linecap="round"/>
<path d="M193.832 265.606C194.028 266.347 194.173 266.423 194.979 266.205" stroke="#514941" stroke-width="4" stroke-linecap="round"/>
<path d="M204.651 250.412L204.539 249.989" stroke="#514941" stroke-width="4" stroke-linecap="round"/>
<path d="M222.037 235.722L222.261 236.572" stroke="#514941" stroke-width="4" stroke-linecap="round"/>
<path d="M222.717 268.27C222.38 268.32 222.003 268.149 221.682 268.094" stroke="#514941" stroke-width="4" stroke-linecap="round"/>
<path d="M91.877 36.719C92.8143 36.4662 93.3704 36.7568 93.5979 37.6186" stroke="#514941" stroke-width="4" stroke-linecap="round"/>
<path d="M84.3271 60.5752L84.6632 61.8483" stroke="#514941" stroke-width="4" stroke-linecap="round"/>
<path d="M95.5977 93.9021C96.2178 93.7348 96.5312 93.8575 97.0945 93.9529" stroke="#514941" stroke-width="4" stroke-linecap="round"/>
<path d="M103.567 75.3873C103.505 74.8879 103.918 74.5787 104.266 74.2895" stroke="#514941" stroke-width="4" stroke-linecap="round"/>
<path d="M122.766 95.6658L123.226 95.5415" stroke="#514941" stroke-width="4" stroke-linecap="round"/>
<path d="M114.123 49.8108C113.786 49.8615 113.409 49.6899 113.088 49.6355" stroke="#514941" stroke-width="4" stroke-linecap="round"/>
<path d="M125.138 70.9329C125.294 71.3088 125.361 71.1731 125.71 71.2322" stroke="#514941" stroke-width="4" stroke-linecap="round"/>
<path d="M83.7807 193.134C78.2004 181.442 73.7787 169.48 66.2713 158.866C65.3436 157.554 64.3523 155.782 66.8966 157.49C72.4927 161.246 76.5178 167.621 79.2158 173.624C80.8086 177.168 82.4815 180.656 84.2184 184.129C85.8889 187.47 81.6129 177.117 79.9974 173.749C78.2409 170.087 75.9301 166.812 74.0255 163.243C70.9756 157.528 69.0929 151.199 66.9592 145.108C65.9262 142.16 62.957 137.568 62.957 134.321C62.957 131.511 65.9535 139.093 67.1468 141.638C72.7153 153.512 78.1899 165.366 82.53 177.751C83.8162 181.421 85.5025 185.231 86.5635 188.945C87.6509 192.75 84.1159 181.415 82.7802 177.688C81.4732 174.043 80.125 170.009 77.9026 166.776C76.6684 164.981 80.7203 174.329 80.9042 174.812C83.8228 182.48 86.6773 190.575 91.4411 197.324C91.9731 198.078 92.069 198.967 92.7855 199.325" stroke="#F4F0EE" stroke-width="8" stroke-linecap="round"/>
</svg>
