<svg width="412" height="364" viewBox="0 0 412 364" fill="none" xmlns="http://www.w3.org/2000/svg">
<path d="M82.5454 80.1064C83.3876 79.8817 83.8872 80.1401 84.0916 80.9059" stroke="#514941" stroke-width="4" stroke-linecap="round"/>
<path d="M75.7627 101.31L76.0646 102.441" stroke="#514941" stroke-width="4" stroke-linecap="round"/>
<path d="M93.0489 114.474C92.9935 114.03 93.3642 113.755 93.6771 113.498" stroke="#514941" stroke-width="4" stroke-linecap="round"/>
<rect x="173.321" y="138.947" width="216" height="105" rx="16" transform="rotate(11.2745 173.321 138.947)" fill="#F4F0EE" stroke="#57493C" stroke-width="2"/>
<path d="M178.416 146.736L264.791 213.313L269.763 216.183C270.975 216.883 272.425 217.042 273.76 216.623L377.963 183.919" stroke="#57493C" stroke-width="2"/>
<path d="M213.353 268.888C219.223 301.224 188.414 307.815 172.732 299.657C131.261 278.085 142.872 231.982 161.009 224.055C179.145 216.129 206.015 228.467 213.353 268.888Z" fill="#F4F0EE" stroke="#514941" stroke-width="2"/>
<path d="M123.316 295.866C50.9041 259.122 37.5444 178.985 39.9161 143.51C41.4611 145.647 43.2246 147.661 45.2304 149.493C41.772 180.742 51.6945 251.411 119.053 284.093L123.316 295.866Z" fill="#F4F0EE"/>
<path d="M31.2959 107.405C30.6973 117.139 31.5742 131.97 39.9161 143.51M77.1212 158.805C64.3088 158.788 51.8656 155.553 45.2304 149.493M131.427 244.52C124.829 252.911 116.682 268.806 119.053 284.093M198.626 301.283C188.087 310.345 159.348 325.595 133.48 306.678C128.96 303.373 125.649 299.717 123.316 295.866M39.9161 143.51C37.5444 178.985 50.9041 259.122 123.316 295.866M39.9161 143.51C41.4611 145.647 43.2246 147.661 45.2304 149.493M123.316 295.866C121.023 292.081 119.675 288.108 119.053 284.093M123.316 295.866L119.053 284.093M119.053 284.093C51.6945 251.411 41.772 180.742 45.2304 149.493" stroke="#514941" stroke-width="2"/>
<path d="M58.9999 76.9593C4.27839 88.4873 0.895173 287.343 143.178 315.156C151.096 316.117 162.036 317.932 172.706 314.346M90.0399 157.817C88.4093 175.773 95.9784 220.352 132.451 244.554" stroke="#514941" stroke-width="2"/>
<path d="M82.0517 68.349L59.5121 76.7354C58.9642 76.9392 58.4626 77.2281 58.026 77.6169C45.2038 89.0332 28.5015 118.018 59.3588 147.728C59.5961 147.956 59.8651 148.165 60.1396 148.347C66.4743 152.548 72.2024 160.825 84.9144 158.877C97.9032 156.887 107.747 151.555 111.045 149.138M159.048 225.162L136.578 238.881C136.061 239.197 135.604 239.598 135.249 240.088C128.713 249.104 120.909 270.71 138.4 290.918C160.534 316.491 173.963 311.898 186.265 309.165C186.646 309.08 187.014 308.956 187.362 308.779C192.288 306.283 201.134 300.192 203.215 298.214" stroke="#514941" stroke-width="2"/>
<path d="M61.9023 99.2384C60.9532 66.2946 92.875 63.3094 107.364 73.2752C145.68 99.6292 126.984 144.27 107.575 150.064C88.1648 155.858 63.0888 140.418 61.9023 99.2384Z" fill="#F4F0EE" stroke="#514941" stroke-width="2"/>
<path d="M162.798 237.676C163.34 237.531 163.402 237.491 163.728 237.832" stroke="#514941" stroke-width="4" stroke-linecap="round"/>
<path d="M185.26 250.267L185.562 251.399" stroke="#514941" stroke-width="4" stroke-linecap="round"/>
<path d="M161.384 260.678L161.484 261.055" stroke="#514941" stroke-width="4" stroke-linecap="round"/>
<path d="M174.146 283.535C174.322 284.194 174.453 284.261 175.177 284.068" stroke="#514941" stroke-width="4" stroke-linecap="round"/>
<path d="M183.87 270.031L183.77 269.654" stroke="#514941" stroke-width="4" stroke-linecap="round"/>
<path d="M199.489 256.975L199.691 257.73" stroke="#514941" stroke-width="4" stroke-linecap="round"/>
<path d="M200.1 285.902C199.797 285.947 199.459 285.794 199.17 285.746" stroke="#514941" stroke-width="4" stroke-linecap="round"/>
<path d="M85.8882 130.929C86.4454 130.781 86.7269 130.89 87.233 130.975" stroke="#514941" stroke-width="4" stroke-linecap="round"/>
<path d="M110.298 132.497L110.712 132.387" stroke="#514941" stroke-width="4" stroke-linecap="round"/>
<rect x="173.321" y="138.947" width="216" height="105" rx="16" transform="rotate(11.2745 173.321 138.947)" fill="#F4F0EE" stroke="#57493C" stroke-width="2"/>
<path d="M178.416 146.736L264.791 213.313L269.763 216.183C270.975 216.883 272.425 217.042 273.76 216.623L377.963 183.919" stroke="#57493C" stroke-width="2"/>
<path d="M213.353 268.888C219.223 301.224 188.414 307.815 172.732 299.657C131.261 278.085 142.872 231.982 161.009 224.055C179.145 216.129 206.015 228.467 213.353 268.888Z" fill="#F4F0EE" stroke="#514941" stroke-width="2"/>
<path d="M123.316 295.866C50.9041 259.122 37.5444 178.985 39.9161 143.51C41.4611 145.647 43.2246 147.661 45.2304 149.493C41.772 180.742 51.6945 251.411 119.053 284.093L123.316 295.866Z" fill="#F4F0EE"/>
<path d="M31.2959 107.405C30.6973 117.139 31.5742 131.97 39.9161 143.51M77.1212 158.805C64.3088 158.788 51.8656 155.553 45.2304 149.493M131.427 244.52C124.829 252.911 116.682 268.806 119.053 284.093M198.626 301.283C188.087 310.345 159.348 325.595 133.48 306.678C128.96 303.373 125.649 299.717 123.316 295.866M39.9161 143.51C37.5444 178.985 50.9041 259.122 123.316 295.866M39.9161 143.51C41.4611 145.647 43.2246 147.661 45.2304 149.493M123.316 295.866C121.023 292.081 119.675 288.108 119.053 284.093M123.316 295.866L119.053 284.093M119.053 284.093C51.6945 251.411 41.772 180.742 45.2304 149.493" stroke="#514941" stroke-width="2"/>
<path d="M58.9999 76.9593C4.27839 88.4873 0.895173 287.343 143.178 315.156C151.096 316.117 162.036 317.932 172.706 314.346M90.0399 157.817C88.4093 175.773 95.9784 220.352 132.451 244.554" stroke="#514941" stroke-width="2"/>
<path d="M82.0517 68.349L59.5121 76.7354C58.9642 76.9392 58.4626 77.2281 58.026 77.6169C45.2038 89.0332 28.5015 118.018 59.3588 147.728C59.5961 147.956 59.8651 148.165 60.1396 148.347C66.4743 152.548 72.2024 160.825 84.9144 158.877C97.9032 156.887 107.747 151.555 111.045 149.138M159.048 225.162L136.578 238.881C136.061 239.197 135.604 239.598 135.249 240.088C128.713 249.104 120.909 270.71 138.4 290.918C160.534 316.491 173.963 311.898 186.265 309.165C186.646 309.08 187.014 308.956 187.362 308.779C192.288 306.283 201.134 300.192 203.215 298.214" stroke="#514941" stroke-width="2"/>
<path d="M61.9023 99.2384C60.9532 66.2946 92.875 63.3094 107.364 73.2752C145.68 99.6292 126.984 144.27 107.575 150.064C88.1648 155.858 63.0888 140.418 61.9023 99.2384Z" fill="#F4F0EE" stroke="#514941" stroke-width="2"/>
<path d="M162.798 237.676C163.34 237.531 163.402 237.491 163.728 237.832" stroke="#514941" stroke-width="4" stroke-linecap="round"/>
<path d="M184 242L184.302 243.132" stroke="#514941" stroke-width="4" stroke-linecap="round"/>
<path d="M161.384 260.678L161.484 261.055" stroke="#514941" stroke-width="4" stroke-linecap="round"/>
<path d="M174.146 283.535C174.322 284.194 174.453 284.261 175.177 284.068" stroke="#514941" stroke-width="4" stroke-linecap="round"/>
<path d="M183.87 270.031L183.77 269.654" stroke="#514941" stroke-width="4" stroke-linecap="round"/>
<path d="M199.489 256.975L199.691 257.73" stroke="#514941" stroke-width="4" stroke-linecap="round"/>
<path d="M200.1 285.902C199.797 285.947 199.459 285.794 199.17 285.746" stroke="#514941" stroke-width="4" stroke-linecap="round"/>
<path d="M85.8882 130.929C86.4454 130.781 86.7269 130.89 87.233 130.975" stroke="#514941" stroke-width="4" stroke-linecap="round"/>
<path d="M82 102.332C82.5572 102.183 82.8387 102.292 83.3449 102.377" stroke="#514941" stroke-width="4" stroke-linecap="round"/>
<path d="M110.298 132.497L110.712 132.387" stroke="#514941" stroke-width="4" stroke-linecap="round"/>
<path d="M102.533 91.7425C102.23 91.7875 101.891 91.6351 101.603 91.5867" stroke="#514941" stroke-width="4" stroke-linecap="round"/>
<path d="M112.428 110.515C112.568 110.849 112.629 110.728 112.942 110.781" stroke="#514941" stroke-width="4" stroke-linecap="round"/>
</svg>
