<svg width="345" height="409" viewBox="0 0 345 409" fill="none" xmlns="http://www.w3.org/2000/svg">
<path d="M119.711 309.772C120.796 310.018 121.494 309.871 122.107 309.721C123.065 309.487 123.512 308.803 123.931 308.477C124.306 308.185 124.915 308.001 125.705 307.563C126.245 307.264 126.801 307.087 127.435 306.938C128.262 306.744 129.169 305.831 129.785 305.331C130.287 304.923 131.232 304.221 132.266 303.626C132.852 303.288 133.909 302.462 134.84 301.592C135.193 301.112 135.462 300.645 135.64 300.297C135.729 300.141 135.817 300.026 136.041 299.676" stroke="#F4F0EE" stroke-width="2" stroke-linecap="round"/>
<path d="M73.7079 281.953C73.7413 282.845 73.8171 283.934 73.9181 284.638C73.9405 284.794 73.9369 284.949 73.8939 284.931C72.6716 284.436 72.1794 282.251 71.7748 281.448C71.3602 280.625 71.0705 280.058 70.6199 279.392C70.5126 279.233 70.4267 279.117 70.3619 278.999C70.2971 278.881 70.2552 278.765 70.4681 278.978C71.9112 280.418 72.1845 281.541 72.4152 282.461C72.6178 283.269 73.2008 284.317 73.542 285.061C74.0158 286.094 73.9488 287.704 74.0491 288.648C74.1246 289.359 74.868 290.981 75.4241 292.417C75.6934 293.113 75.9762 293.727 76.7745 294.359C77.3886 294.845 77.7916 295.187 78.2412 295.95C78.5559 296.485 78.8172 297.104 79.0517 297.673C79.3131 298.306 79.977 298.713 80.4528 299.051C80.9496 299.403 81.7069 299.86 82.2492 300.276C82.7647 300.672 83.0475 301.199 83.3237 301.727C83.817 302.492 84.206 302.808 84.4652 302.966C84.5958 303.046 84.7245 303.125 85.1173 303.325" stroke="#F4F0EE" stroke-width="2" stroke-linecap="round"/>
<path d="M154.493 250.843C154.706 251.154 155.225 251.667 155.333 251.785C155.623 252.104 154.846 250.618 154.271 249.425C153.549 247.926 152.754 246.547 152.141 245.089C151.039 242.469 150.292 240.448 149.842 239.822C148.981 238.626 148.412 236.97 148.092 236.084C147.903 235.561 147.218 234.736 146.299 232.82C145.979 232.154 145.983 231.606 145.755 230.617C145.291 228.606 145.075 226.927 144.886 226.246C144.375 224.4 144.21 222.17 144.042 221.66C143.786 220.884 142.929 219.9 142.672 219.311C142.476 218.861 142.463 218.49 142.313 218.256C142.24 218.142 142.206 218.022 142.355 218.195C143.505 219.537 144.043 221.105 144.728 222.343C145.497 223.731 145.53 224.899 145.628 226.031C145.698 226.837 146.544 227.675 147.682 229.28C148.422 230.325 148.723 231.741 149.347 232.726C149.836 234.095 149.912 234.989 150.034 235.786C150.075 236.159 150.071 236.467 150.068 236.785" stroke="#F4F0EE" stroke-width="2" stroke-linecap="round"/>
<path d="M102.253 195.169C102.52 194.551 103.047 194.09 103.532 193.667C103.966 193.29 104.198 192.664 104.688 191.581C104.781 191.23 104.827 190.957 104.939 190.667C105.006 190.53 105.093 190.416 105.317 190.066" stroke="#F4F0EE" stroke-width="2" stroke-linecap="round"/>
<path d="M78.7593 238.461C79.4692 236.696 80.2744 235.06 81.0513 233.69C81.6993 232.547 82.2325 231.46 82.9603 230.574C83.5199 229.893 84.2211 229.031 84.8865 227.931C85.3695 227.132 85.4729 226.511 86.6211 224.189C87.6668 222.075 89.8818 218.153 91.0585 216.103C92.2352 214.052 92.3651 214.015 93.1148 212.732C93.8646 211.449 95.2303 208.921 96.0006 207.427C97.2313 205.04 97.6577 204.385 97.9494 203.842C98.3972 203.009 98.9014 202.607 99.3689 201.544C99.6731 200.852 99.7551 200.127 99.9804 199.564C100.205 199.001 100.471 198.538 100.783 197.861C101.067 197.246 101.622 196.839 102.195 196.241C102.637 195.759 103.033 195.413 103.297 195.202C103.429 195.105 103.56 195.03 103.693 195.068" stroke="#F4F0EE" stroke-width="2" stroke-linecap="round"/>
<path d="M129.98 183.446C129.636 183.173 128.775 182.385 128.211 181.911C127.733 181.51 126.878 180.501 126.021 178.875C125.57 178.019 125.38 177.484 125.3 176.86C125.212 176.184 124.66 175.685 124.272 175.194C123.972 174.9 123.667 174.661 123.43 174.484C123.321 174.385 123.236 174.269 123.148 174.149" stroke="#F4F0EE" stroke-width="2" stroke-linecap="round"/>
<path d="M116.916 157.853C117.351 157.819 117.962 157.67 118.639 157.541C119.389 157.398 120.1 157.343 120.823 157.176C120.978 157.119 121.108 157.044 121.24 156.967C121.373 156.89 121.503 156.814 121.768 156.738" stroke="#F4F0EE" stroke-width="2" stroke-linecap="round"/>
<path d="M87.2341 26.2185C87.2344 26.1901 87.9069 25.7148 88.9975 24.9822C89.8188 24.4304 90.3996 24.1627 90.7165 23.9579C90.9173 23.8282 91.2237 23.741 91.5145 23.6084C91.9049 23.4304 92.3832 23.3815 93.146 23.2179C93.5179 23.1381 93.8459 23.125 94.991 23.137C95.4014 23.184 95.612 23.2155 95.74 23.224C95.8044 23.2318 95.8678 23.2467 95.9331 23.262" stroke="#F4F0EE" stroke-width="2" stroke-linecap="round"/>
<path d="M117.331 182.643C118.292 183.423 118.124 179.175 118.133 178.27C118.153 176.511 117.709 174.209 118.196 172.54C118.682 170.876 119.685 175.72 120.494 177.284C121 178.262 120.945 179.294 121.51 180.329C122.191 181.576 122.911 182.632 123.569 183.909C124.053 184.848 124.974 185.872 125.216 186.773" stroke="#F4F0EE" stroke-width="6" stroke-linecap="round"/>
<path d="M150.072 276.449C151.089 275.816 151.479 273.697 151.904 272.694C152.241 271.897 152.435 271.056 152.696 270.236C153.417 267.963 153.461 265.449 153.487 263.1C153.518 260.247 153.977 257.442 153.45 254.589C153.299 253.772 153.163 253.077 153.138 252.258C153.112 251.422 152.398 250.866 152.227 250.106C151.904 248.667 151.083 247.455 150.87 246.027" stroke="#F4F0EE" stroke-width="3" stroke-linecap="round"/>
<path d="M236.027 192.32C236.08 192.758 236.152 193.333 236.425 193.707" stroke="#F4F0EE" stroke-width="3" stroke-linecap="round"/>
<path d="M253.696 295.352C253.288 296.712 253.141 298.031 252.935 299.393C252.86 299.89 252.089 300.344 251.733 300.711C251.502 300.95 251.241 301.417 250.995 301.589C250.774 301.743 250.551 301.884 250.319 302.042C249.813 302.387 248.784 302.21 248.184 302.203C247.735 302.198 247.306 302.19 247.064 301.781C246.88 301.472 246.612 301.159 246.616 300.804" stroke="#F4F0EE" stroke-width="3" stroke-linecap="round"/>
<path d="M237.537 224.405C239.44 225.795 240.897 227.581 242.071 229.487C243.082 231.128 244.198 232.708 245.069 234.418C245.585 235.434 246.007 236.49 246.411 237.546C246.791 238.538 246.827 239.518 246.883 240.551C246.932 241.449 247.254 242.36 247.244 243.242C247.233 244.26 247.444 245.2 247.734 246.176C248.159 247.607 248.007 249.062 247.991 250.536C247.988 250.803 248.019 250.991 248.086 251.243C248.246 251.839 248.451 250.063 248.633 249.473C248.922 248.534 249.262 247.599 249.272 246.618C249.285 245.473 249.336 244.322 249.304 243.178C249.268 241.872 248.525 240.791 248.225 239.547C247.876 238.102 247.657 236.55 247.499 235.08C247.328 233.487 247.295 231.68 246.422 230.245C246.133 229.771 245.806 229.524 245.395 229.149C245.163 228.937 244.856 228.908 244.614 228.721C244.495 228.628 244.406 228.626 244.254 228.625C244.06 228.622 243.842 228.391 243.69 228.296C242.966 227.847 242.37 227.236 241.635 226.799C241.335 226.621 240.979 226.385 240.823 226.099" stroke="#F4F0EE" stroke-width="3" stroke-linecap="round"/>
<path d="M266.556 328.205C266.553 328.5 266.729 329.433 266.429 328.761C265.82 327.398 265.899 325.854 265.507 324.436C265.47 324.304 265.464 324.18 265.465 324.046C265.469 323.745 265.488 324.648 265.513 324.948C265.573 325.685 265.599 326.424 265.661 327.161C265.672 327.295 265.834 327.648 265.72 327.561C265.441 327.349 265.348 326.606 265.274 326.343C265.009 325.398 264.689 324.476 264.381 323.543C264.058 322.567 264.253 323.205 264.62 323.689C264.628 323.7 264.909 324.118 264.926 324.01C265.089 323.022 264.679 321.78 264.468 320.82C263.933 318.387 263.363 316.057 262.198 313.782C261.188 311.808 259.641 309.832 259.098 307.692C258.999 307.302 259.113 306.884 258.945 306.508C258.842 306.277 258.751 306.026 258.666 305.798C258.5 305.357 258.245 305.229 257.942 304.848C257.816 304.69 257.644 304.564 257.522 304.404C257.338 304.16 257.221 304.26 257.032 304.122C256.95 304.062 256.816 303.985 256.707 303.959C256.272 303.857 257.342 304.533 257.702 304.774C258.119 305.054 258.626 305.288 258.96 305.653C259.946 306.733 259.833 308.319 260.726 309.425C261.25 310.074 261.914 310.638 262.496 311.246C262.968 311.74 263.2 312.237 263.546 312.793C263.813 313.224 264.063 313.787 264.403 314.175C264.964 314.815 265.473 315.431 265.757 316.217C265.815 316.377 266.163 317.034 266.025 316.859C265.399 316.066 264.943 315.185 264.47 314.319C264.001 313.46 263.802 312.65 263.483 311.738C263.242 311.052 263.088 310.299 262.708 309.661C262.694 309.638 262.15 308.773 262.248 308.735C262.814 308.512 263.977 311.258 264.076 311.524C264.61 312.974 264.918 314.5 265.255 315.991C265.673 317.843 266.316 319.653 266.318 321.567C266.32 323.381 266.74 325.397 266.074 327.145C265.937 327.505 265.852 327.879 265.53 328.142C265.419 328.233 265.339 328.567 265.209 328.595C265.05 328.628 265.022 327.738 265.013 327.615C264.991 327.305 264.78 327.655 264.748 327.755C264.513 328.496 264.381 329.281 264.264 330.043C264.149 330.796 264.044 331.509 263.776 332.229C263.514 332.932 262.9 333.562 262.419 334.15C261.487 335.285 260.688 336.413 260.36 337.808C260.17 338.612 259.179 339.3 258.559 339.841C257.976 340.35 257.189 340.778 256.503 341.176C255.755 341.61 254.989 341.533 254.124 341.523C253.835 341.52 253.535 341.443 253.307 341.274C253.125 341.139 253.032 340.92 252.865 340.767C252.529 340.461 252.116 340.228 251.767 339.931C251.371 339.595 250.783 339.431 250.446 339.047C250.347 338.934 249.801 338.63 249.997 338.632C251.002 338.643 251.72 339.294 252.62 339.551C253.497 339.803 254.653 339.502 255.546 339.512C255.844 339.515 256.957 339.372 257.186 339.581C257.315 339.699 255.092 339.997 254.921 340.017C253.703 340.16 252.412 340.265 251.252 339.854C249.422 339.205 247.88 338.265 246.325 337.2" stroke="#F4F0EE" stroke-width="3" stroke-linecap="round"/>
<path d="M239.473 302.569C240.243 301.525 241.089 300.488 241.699 299.368C241.812 299.161 242.036 298.892 242.091 298.681C242.221 298.183 240.912 298.913 240.745 298.989C240.229 299.226 239.746 299.552 239.195 299.709" stroke="#F4F0EE" stroke-width="3" stroke-linecap="round"/>
<path d="M245.178 338.016C244.216 336.497 243.123 334.975 242.591 333.278C242.432 332.77 242.364 332.277 242.103 331.799C241.313 330.353 240.677 328.854 239.965 327.378C239.125 325.634 238.766 323.782 238.091 321.977C237.688 320.9 237.302 319.898 237.019 318.791C236.646 317.336 236.557 315.986 236.555 314.496C236.553 313.228 236.225 311.978 236.189 310.709C236.153 309.459 236.166 308.192 236.373 306.958C236.503 306.186 236.618 305.17 236.148 304.488C236.072 304.378 236.006 304.271 235.893 304.189C235.76 304.092 236.367 304.347 236.481 304.461C237.101 305.088 237.948 305.777 238.921 305.788" stroke="#F4F0EE" stroke-width="3" stroke-linecap="round"/>
<path d="M242.173 300.94C243.535 301.084 244.89 301.305 246.257 301.414C246.641 301.445 247.112 301.426 247.48 301.305C249.158 300.754 250.233 299.302 251.608 298.37C251.991 298.11 252.454 298.036 252.751 297.676C253.134 297.212 253.529 296.799 253.707 296.233C253.965 295.413 254.48 294.834 254.541 293.974C254.625 292.773 254.871 291.597 254.884 290.389C254.897 289.166 254.816 288.002 254.636 286.792C254.572 286.36 254.422 286.152 254.084 285.844C253.533 285.342 253.142 284.724 252.576 284.236C251.815 283.58 251.288 283.138 250.274 282.803C249.123 282.422 247.99 282.665 246.811 282.652" stroke="#F4F0EE" stroke-width="3" stroke-linecap="round"/>
<path d="M246.813 282.653C247.976 283.575 248.882 284.189 250.255 284.763C250.587 284.902 250.848 285.022 251.168 285.183C251.926 285.562 252.592 286.505 252.855 287.234" stroke="#F4F0EE" stroke-width="3" stroke-linecap="round"/>
<path d="M246.66 296.657L247.899 296.671" stroke="#F4F0EE" stroke-width="3" stroke-linecap="round"/>
<path d="M240.656 298.343C239.811 296.692 239.021 294.999 238.175 293.36C237.805 292.645 238.046 291.446 238.055 290.666C238.061 290.044 238.122 289.493 238.258 288.887C238.528 287.676 237.475 291.261 237.255 292.48C237.073 293.488 236.968 294.685 237.151 295.704C237.274 296.388 237.259 296.717 237.985 297.116" stroke="#F4F0EE" stroke-width="3" stroke-linecap="round"/>
<path d="M229.201 259.792C230.03 258.69 231.178 257.802 232.016 256.705C232.159 256.518 232.321 256.302 232.498 256.142C233.039 255.653 233.648 255.068 234.314 254.779" stroke="#F4F0EE" stroke-width="3" stroke-linecap="round"/>
<path d="M233.294 263.154C234.789 262.818 236.434 262.609 237.871 262.078C239.137 261.609 240.499 261.349 241.723 260.783C242.725 260.32 243.316 259.294 244.286 258.779C244.48 258.675 245.135 258.489 245.086 258.516C244.226 258.983 243.732 259.961 243.027 260.588C242.682 260.894 242.348 261.158 242.036 261.493C241.693 261.862 241.016 262.003 240.759 262.406C240.665 262.554 240.303 262.617 240.136 262.747C239.871 262.953 239.374 263.212 239.034 263.303C238.604 263.42 238.258 263.751 237.761 263.756C237.34 263.76 236.938 263.682 236.542 263.553C236.082 263.402 235.872 262.871 235.468 262.625" stroke="#F4F0EE" stroke-width="3" stroke-linecap="round"/>
<path d="M249.195 282.125C250.089 279.907 251.103 277.675 251.557 275.342C251.753 274.341 251.564 273.308 251.459 272.305C251.242 270.247 251.412 267.889 250.507 265.942C250.064 264.989 249.614 263.898 248.949 263.058C248.739 262.793 247.853 262.271 248.027 261.927C248.334 261.316 247.983 260.655 247.99 259.996" stroke="#F4F0EE" stroke-width="3" stroke-linecap="round"/>
<path d="M242.134 285.735C242.425 286.001 242.807 286.399 242.251 286.545C241.618 286.711 241.16 286.28 240.848 285.859C240.144 284.908 239.42 284.118 238.315 283.502C238.053 283.356 237.791 283.199 237.522 283.063C237.168 282.884 237.013 282.591 236.727 282.338C236.109 281.792 235.58 281.177 234.962 280.629C233.797 279.597 233.769 277.878 232.998 276.62C232.249 275.397 231 274.474 230.305 273.217C229.674 272.077 229.397 270.719 229.198 269.468C228.971 268.038 228.869 266.525 229.091 265.089C229.253 264.046 229.476 263.031 229.612 261.988C229.7 261.322 229.725 260.582 229.899 259.933C230.227 258.704 228.985 260.108 228.671 260.436C227.632 261.525 226.53 263.35 226.57 264.852C226.609 266.354 227.092 267.64 227.666 269.036C228.028 269.918 228.137 270.812 228.348 271.721C228.479 272.289 228.907 272.752 229.145 273.286C229.809 274.772 230.315 276.368 231.947 277.223C232.359 277.438 232.806 277.548 233.18 277.825C233.885 278.348 234.556 278.895 235.285 279.394" stroke="#F4F0EE" stroke-width="3" stroke-linecap="round"/>
<path d="M248.306 259.355C247.565 258.223 246.882 257.091 245.741 256.271C245.041 255.768 244.457 255.158 243.809 254.606C243.455 254.305 243.081 254.198 242.662 254C241.133 253.277 239.083 253.265 237.394 253.246C235.864 253.23 233.903 253.709 232.716 254.588C232.03 255.096 231.406 255.878 230.945 256.555C230.033 257.892 229.219 259.195 228.777 260.709" stroke="#F4F0EE" stroke-width="3" stroke-linecap="round"/>
<path d="M225.726 256.437C224.835 254.444 223.467 252.457 223.062 250.326C222.826 249.083 222.882 247.676 222.209 246.533C221.822 245.876 221.531 245.205 221.025 244.611C220.759 244.299 220.802 244.015 220.806 243.631C220.816 242.745 220.826 241.859 220.835 240.974C220.862 238.554 220.888 236.135 220.914 233.715" stroke="#F4F0EE" stroke-width="3" stroke-linecap="round"/>
<path d="M218.841 225.215C218.684 225.163 218.568 225.102 218.43 225.026" stroke="#F4F0EE" stroke-width="3" stroke-linecap="round"/>
<path d="M220.388 244.123C219.643 242.483 218.757 240.818 218.401 239.063C218.264 238.386 218.206 237.684 218.102 237.002C217.847 235.33 217.61 233.749 217.628 232.067C217.64 231.032 217.634 230.016 217.662 228.98C217.669 228.705 217.653 228.426 217.671 228.151C217.688 227.879 217.988 227.723 218.137 227.511C218.361 227.191 218.548 226.671 218.928 226.506" stroke="#F4F0EE" stroke-width="3" stroke-linecap="round"/>
<path d="M221.205 225.978C221.291 226.62 221.426 227.255 221.414 227.905C221.4 228.621 221.068 229.226 220.916 229.912C220.813 230.378 220.732 230.782 220.529 231.223" stroke="#F4F0EE" stroke-width="3" stroke-linecap="round"/>
<path d="M227.616 225.126C226.119 224.005 224.619 222.888 223.139 221.75C222.798 221.488 222.521 221.29 222.136 221.099C221.656 220.861 221.185 220.447 221.191 219.926C221.203 218.824 221.492 217.731 221.514 216.623C221.525 216.053 221.526 215.483 221.532 214.913C221.542 213.997 221.513 213.092 221.304 212.192C221.211 211.794 221.495 210.875 221.264 210.559C221.224 210.504 221.199 210.678 221.188 210.742C221.106 211.194 221.042 211.656 220.989 212.112C220.908 212.813 220.879 213.536 221.023 214.232C221.228 215.218 221.642 216.103 222.025 217.043C222.309 217.739 222.643 219.007 223.237 219.549C223.523 219.81 223.96 219.863 224.299 220.042C224.634 220.22 224.906 220.463 225.209 220.677C226.236 221.4 227.52 221.838 228.673 222.368C229.18 222.601 229.818 222.883 230.37 222.965C231.336 223.108 232.121 223.1 232.955 222.599C233.29 222.398 233.67 222.141 233.893 221.836C234.043 221.629 233.567 222.375 233.479 222.461C232.698 223.226 231.808 223.669 230.626 223.684C229.576 223.698 230.761 223.941 231.242 223.962C232.378 224.012 233.328 223.894 234.267 223.294C235.418 222.558 236.111 221.548 236.707 220.433C237.309 219.308 237.298 217.753 237.312 216.528C237.313 216.429 237.336 216.14 237.292 216.231C236.855 217.135 236.629 218.109 236.149 219.004C235.973 219.331 235.934 219.671 235.611 219.914C235.324 220.131 234.911 220.227 234.642 220.462C234.615 220.485 234.56 220.642 234.618 220.579C235.055 220.102 235.408 219.52 235.805 219.015C236.731 217.837 237.888 216.611 238.501 215.267C238.909 214.373 239.299 213.224 239.136 212.258C238.974 211.295 238.742 210.363 238.41 209.429C238.065 208.458 237.59 207.237 236.535 206.752C235.917 206.468 235.519 205.868 235.058 205.436C233.909 204.358 232.244 204.535 230.731 204.518C230.308 204.514 230.005 204.838 229.642 205.013C229.406 205.127 230.973 205.64 231.228 205.773C232.075 206.213 233.066 206.603 234.033 206.786C234.432 206.862 235.011 207.383 235.176 207.71C235.433 208.218 235.765 208.86 236.197 209.277C236.437 209.508 236.583 209.811 236.866 210.001C237.086 210.149 237.206 210.138 237.275 210.395" stroke="#F4F0EE" stroke-width="3" stroke-linecap="round"/>
<path d="M225.521 208.977C225.775 208.98 224.978 208.916 224.801 208.754C224.67 208.635 224.51 208.635 224.343 208.59C224.102 208.526 224.003 208.182 224.427 208.248C224.791 208.305 225.113 208.604 225.456 208.608C225.632 208.61 225.101 208.616 224.929 208.581C224.552 208.507 224.386 208.244 224.178 207.979C223.626 207.278 223.362 206.344 222.688 205.741C222.123 205.237 221.376 205.059 220.773 204.64C219.694 203.892 219.108 202.755 218.164 201.894" stroke="#F4F0EE" stroke-width="3" stroke-linecap="round"/>
<path d="M234.874 203.181C235.193 202.39 235.553 201.613 235.852 200.816C236.215 199.849 236.249 198.789 236.332 197.781C236.378 197.222 236.585 196.259 236.297 195.732" stroke="#F4F0EE" stroke-width="3" stroke-linecap="round"/>
<path d="M232.313 201.679C232.877 199.445 233.705 197.111 233.73 194.798C233.737 194.137 233.652 193.512 233.59 192.856C233.346 190.268 233.555 187.601 233.01 185.038C232.81 184.099 231.743 183.286 231.19 182.509C230.894 182.094 230.688 181.644 230.419 181.216C230.272 180.984 230.018 180.812 229.961 180.546C229.887 180.195 229.575 179.96 229.409 179.628C229.169 179.147 229.103 178.612 228.846 178.143C228.473 177.46 227.994 176.836 227.322 176.375" stroke="#F4F0EE" stroke-width="3" stroke-linecap="round"/>
<path d="M213.687 176.688C215.998 175.646 218.437 174.544 220.994 174.1C221.916 173.94 222.896 174.024 223.834 174.034C224.02 174.036 224.405 174.093 224.474 174.246C224.575 174.468 224.955 174.503 225.17 174.601" stroke="#F4F0EE" stroke-width="3" stroke-linecap="round"/>
<path d="M218.579 201.714C218.186 200.993 217.353 200.388 216.77 199.784C216.345 199.344 216.09 198.873 215.828 198.346C214.766 196.208 213.195 194.336 212.224 192.153C211.904 191.433 211.327 190.718 211.239 189.931C211.141 189.059 211.534 188.187 211.663 187.335C211.965 185.337 212.523 182.734 214.372 181.436C214.939 181.037 215.293 180.736 215.636 180.159C215.913 179.694 216.036 179.194 216.294 178.713C216.801 177.769 213.898 178.754 213.625 178.894C212.527 179.455 211.429 180.315 210.908 181.378C210.163 182.896 210.029 184.73 209.815 186.373C209.669 187.494 209.925 188.633 210.048 189.749C210.187 191.014 210.519 192.303 210.925 193.521" stroke="#F4F0EE" stroke-width="3" stroke-linecap="round"/>
<path d="M227.031 155.454C226.532 154.604 226.099 153.717 225.579 152.879C225.463 152.692 225.428 152.542 225.251 152.384C225.18 152.32 224.223 151.658 224.798 151.836" stroke="#F4F0EE" stroke-width="3" stroke-linecap="round"/>
<path d="M227.786 152.514C226.66 151.043 225.369 149.582 224.491 147.973C224.216 147.469 224.047 146.908 223.745 146.419C222.91 145.064 221.418 144.091 220.584 142.729C220.379 142.394 220.29 142.041 220.114 141.7C220.007 141.493 219.838 140.717 219.615 140.635C219.403 140.556 220.078 140.655 220.296 140.719C220.863 140.885 221.409 141.193 221.906 141.484C222.963 142.103 223.824 142.837 224.502 143.801C225.457 145.157 226.392 146.573 227.238 147.992C227.58 148.565 228.164 148.988 228.483 149.573C228.794 150.142 228.903 150.839 229.036 151.463C229.255 152.494 229.426 153.591 229.414 154.646C229.406 155.385 229.398 156.123 229.39 156.862C229.386 157.246 229.382 157.63 229.378 158.014C229.374 158.384 229.409 158.429 228.96 158.424" stroke="#F4F0EE" stroke-width="3" stroke-linecap="round"/>
<path d="M225.177 174.048C225.649 172.826 226.266 171.652 227.096 170.588C228.104 169.297 228.302 167.509 228.695 166.013C229.253 163.888 229.305 161.547 229.111 159.368C229.038 158.54 228.792 157.868 228.424 157.133C227.905 156.095 228.03 154.882 227.629 153.812C227.58 153.682 227.56 153.372 227.445 153.268C227.141 152.99 227.405 153.748 227.411 153.784C227.877 156.701 228.649 159.632 227.7 162.567C227.414 163.452 227.406 164.417 226.902 165.241C226.321 166.193 226.522 167.46 225.961 168.436" stroke="#F4F0EE" stroke-width="3" stroke-linecap="round"/>
<path d="M211.203 177.306C210.06 175.539 208.813 173.914 207.443 172.289C207.082 171.861 206.888 171.333 206.621 170.857C206.285 170.257 205.651 169.839 205.308 169.251C204.647 168.116 203.784 166.977 203.425 165.729C202.792 163.532 202.373 161.459 202.205 159.193C202.089 157.631 201.544 156.188 200.894 154.751C200.389 153.632 200.116 152.404 199.843 151.227C199.655 150.42 199.423 149.738 199.432 148.888C199.437 148.458 199.442 148.028 199.446 147.598" stroke="#F4F0EE" stroke-width="3" stroke-linecap="round"/>
<path d="M200.475 147.886C200.845 145.49 201.242 143.095 201.643 140.706C201.828 139.605 203.266 139.205 204.083 138.444C204.456 138.096 204.868 137.511 205.34 137.27C205.788 137.041 205.615 136.398 206.04 136.151C206.514 135.876 207.084 135.711 207.55 135.543C208.568 135.177 206.504 134.8 206.205 134.776C205.379 134.71 204.897 135.207 204.507 135.817C204.168 136.346 203.517 136.729 203.121 137.235C202.527 137.993 201.938 138.662 201.439 139.47C200.893 140.352 200.265 141.705 200.634 142.727" stroke="#F4F0EE" stroke-width="3" stroke-linecap="round"/>
<path d="M216.067 138.38C214.738 138.107 213.39 137.924 212.042 137.747C211.433 137.667 209.647 137.296 210.263 137.303C211.89 137.321 213.28 136.584 214.411 135.572C215.234 134.835 215.942 134.1 217.025 133.67C217.524 133.472 218.123 133.245 218.581 132.97C219.297 132.54 219.502 131.725 220.069 131.195C220.262 131.014 220.373 130.776 220.489 130.549C220.563 130.405 219.986 131.551 219.856 131.755C219.212 132.768 218.8 133.916 218.227 134.958C217.938 135.484 217.598 135.929 217.27 136.422C216.364 137.786 213.912 138.08 212.302 138.062C211.968 138.059 211.633 138.055 211.298 138.051C210.637 138.044 210.007 137.853 209.362 137.846C208.836 137.84 209.54 137.89 209.705 137.921C209.98 137.974 210.21 138.039 210.495 138.043C210.84 138.046 211.184 138.05 211.528 138.054" stroke="#F4F0EE" stroke-width="3" stroke-linecap="round"/>
<path d="M193.757 101.185C193.437 102.688 192.71 105.331 194.468 106.435C195.506 107.086 195.93 107.973 196.627 108.87C196.92 109.245 197.187 109.638 197.481 110.01C197.611 110.175 197.788 110.234 197.786 110.444" stroke="#F4F0EE" stroke-width="3" stroke-linecap="round"/>
<path d="M210.903 119.617C212.908 119.39 214.589 119.139 216.542 119.555C217.272 119.711 218.098 119.796 218.552 120.376C218.906 120.829 219.231 121.304 219.546 121.779C219.716 122.035 219.825 122.31 219.979 122.572C220.166 122.891 220.524 123.094 220.75 123.39C221.398 124.236 221.488 125.445 221.463 126.428C221.446 127.067 221.174 127.678 220.932 128.27C220.877 128.407 220.865 128.924 220.651 128.789C218.687 127.546 219.372 125.326 218.402 123.625C217.994 122.91 217.309 122.188 216.732 121.564C215.967 120.737 214.738 120.133 213.522 120.347C212.693 120.492 211.975 121.043 211.386 121.557C210.911 121.972 210.231 122.724 209.582 122.899C208.896 123.085 208.271 123.09 207.561 123.082" stroke="#F4F0EE" stroke-width="3" stroke-linecap="round"/>
<path d="M205.358 135.591C204.223 134.009 203.538 132.195 203.189 130.355C203.004 129.381 202.772 128.226 203.079 127.257C203.307 126.541 203.491 125.822 203.762 125.119C203.872 124.836 204.166 124.56 204.236 124.29C204.594 122.916 204.536 127.126 204.322 128.525C204.036 130.389 204.191 132.327 204.237 134.196" stroke="#F4F0EE" stroke-width="3" stroke-linecap="round"/>
<path d="M195.512 101.296C196.129 99.8693 196.61 98.2641 197.441 96.9141C197.888 96.1866 198.334 95.4738 198.669 94.6954C198.977 93.9815 199.58 91.7493 199.427 92.5023C199.192 93.6664 198.56 94.7985 197.969 95.8448C197.522 96.6355 197.029 97.3516 196.442 98.0603C196.345 98.1765 196.085 98.3907 196.058 98.5373C195.986 98.9218 195.772 99.1414 195.598 98.6449C195.303 97.8041 195.351 96.9969 195.51 96.1355C195.609 95.6006 196.194 94.0654 195.929 94.553C195.36 95.603 195.028 96.8804 194.698 98.0106C194.582 98.409 194.296 98.9222 194.397 99.3486C194.428 99.4803 194.485 99.0914 194.522 98.9609C194.654 98.4865 194.785 98.011 194.979 97.5529C195.552 96.1995 196.446 94.9081 197.338 93.7083C198.168 92.5908 199.071 91.6009 200.317 90.8431C200.896 90.4915 201.542 90.2208 202.084 89.8282C202.694 89.3859 203.283 89.0776 204.077 89.041C205.005 88.9982 205.932 88.5486 206.837 88.3748C207.263 88.2931 207.756 88.3139 208.168 88.42C208.943 88.6199 209.773 88.5243 210.549 88.8349C211.557 89.2379 212.277 90.2039 213.028 90.8892C213.66 91.4661 213.959 92.1777 214.291 92.9098C214.475 93.3163 214.558 93.7334 214.69 94.153C214.777 94.4284 214.984 94.6511 215.072 94.9148C215.624 96.5743 215.333 98.2764 215.74 99.9494C216 101.018 215.636 102.105 215.624 103.184C215.603 105.123 216.43 106.838 216.803 108.725C217.159 110.527 216.868 112.295 216.848 114.091C216.846 114.275 216.83 115.745 217.399 115.101C218.168 114.231 218.644 113.491 218.748 112.392C218.856 111.249 218.866 110.102 219.049 108.965C219.206 107.984 218.964 106.795 218.796 105.819C218.657 105.005 218.423 104.17 218.33 103.356C218.236 102.534 218.143 101.648 217.944 100.844C217.858 100.495 217.687 100.252 217.495 99.9378C216.876 98.9219 216.538 97.7179 216.109 96.636" stroke="#F4F0EE" stroke-width="3" stroke-linecap="round"/>
<path d="M207.48 120.962C206.575 120.475 205.299 119.831 204.448 119.229C203.586 118.62 203.117 117.921 202.607 117.08C201.892 115.898 201.05 114.779 200.397 113.569C199.817 112.496 199.26 111.408 198.74 110.311C198.448 109.694 198.343 109.051 198.072 108.44C197.789 107.802 197.657 107.207 197.145 106.684C196.518 106.043 196.298 105.137 196.029 104.342C195.928 104.045 195.794 103.734 195.798 103.418" stroke="#F4F0EE" stroke-width="3" stroke-linecap="round"/>
<path d="M200.822 97.1149C201.538 97.1837 202.332 97.0846 203.037 97.0366C204.068 96.9664 205.166 96.95 206.183 96.7535C207.442 96.5101 208.687 96.0201 209.889 95.6265C210.526 95.418 210.976 95.1708 211.521 94.8405C211.682 94.743 211.769 94.4203 211.949 94.4868C212.095 94.5408 211.82 95.0916 211.787 95.166C211.6 95.5865 210.913 95.8762 210.515 96.1146C209.782 96.5531 208.789 97.1433 208.402 97.8834C207.842 98.9548 206.391 99.4793 205.155 99.4658C204.597 99.4597 204.261 99.4205 203.741 99.2252C203.13 98.9954 202.586 99.0663 202.043 98.6948" stroke="#F4F0EE" stroke-width="3" stroke-linecap="round"/>
<path d="M208.472 53.5729C208.293 54.8596 207.935 56.15 207.921 57.4503C207.914 58.077 207.093 58.5714 206.612 58.9554C205.742 59.6497 204.5 59.952 203.358 59.9918C202.322 60.0279 201.306 60.1157 200.264 60.059C199.626 60.0243 199.455 59.7814 198.97 59.509C198.571 59.285 197.423 59.1446 197.226 58.784" stroke="#F4F0EE" stroke-width="3" stroke-linecap="round"/>
<path d="M213.825 90.278C215.946 88.9549 216.753 87.7776 217.083 85.4934C217.372 83.4941 217.644 81.4107 217.322 79.3994C217.207 78.6819 216.93 77.9841 216.865 77.2595C216.678 75.206 214.479 73.8435 214.262 71.6959C214.181 70.8919 212.994 69.9612 212.5 69.2667C211.703 68.1451 211.066 66.9845 210.43 65.7887C209.842 64.6832 209.142 63.5452 208.79 62.4035C208.371 61.0434 210.075 62.2244 210.894 62.7565C213.125 64.2054 214.296 65.5804 215.401 67.8677C216.077 69.2688 216.775 70.4367 217.355 71.8506C217.883 73.1369 217.798 74.6001 217.754 75.9487C217.724 76.8966 217.409 77.8954 217.267 78.8376C216.976 80.7616 216.786 82.8005 216.131 84.6357C215.997 85.0103 215.93 85.5476 215.87 85.9424C215.869 85.9516 215.264 84.5052 215.224 84.1526C215.028 82.4238 215.454 80.1544 214.718 78.5127C214.522 78.0749 214.279 77.3028 214.02 76.9645C213.867 76.7655 214.336 75.8748 214.538 75.7376C215.236 75.2647 216.478 77.6854 216.646 78.0495C217.436 79.7535 217.117 81.4878 217.009 83.2256C216.974 83.79 216.852 85.714 216.314 85.9472" stroke="#F4F0EE" stroke-width="3" stroke-linecap="round"/>
<path d="M193.933 92.5647C193.404 90.6283 192.724 88.6507 191.749 86.8545C190.795 85.0975 190.692 83.0472 190.292 81.1458C189.842 79.0043 189.092 76.9346 188.687 74.7799C188.444 73.4836 188.112 72.1946 187.889 70.9004C187.717 69.9023 187.706 68.8554 187.717 67.8473C187.725 67.1218 187.937 66.8547 188.173 66.2068C188.53 65.228 188.702 64.1766 189.04 63.1838C189.34 62.2997 189.739 61.4411 190.148 60.5922C190.73 59.3857 191.129 58.7492 192.345 58.0503C192.666 57.8653 193.684 57.177 194.064 57.1612C194.579 57.1397 195.723 56.5565 195.729 56.0445" stroke="#F4F0EE" stroke-width="3" stroke-linecap="round"/>
<path d="M190.431 63.9302C189.963 65.9813 188.913 67.8723 188.459 69.923" stroke="#F4F0EE" stroke-width="3" stroke-linecap="round"/>
<path d="M193.229 52.1589C193.353 50.263 192.831 48.2864 192.698 46.3909C192.646 45.6487 192.759 44.8495 192.554 44.1198C192.39 43.5375 192.203 44.0672 192.106 44.3923C191.737 45.6218 191.795 46.8993 191.676 48.1576C191.478 50.2561 191.193 52.2986 191.17 54.406" stroke="#F4F0EE" stroke-width="3" stroke-linecap="round"/>
<path d="M195.699 58.8809C196.526 59.0186 197.406 59.0017 198.24 59.0031C199 59.0044 200.081 59.0869 200.841 58.8486C201.242 58.723 201.637 58.4112 201.972 58.18C202.157 58.0517 202.709 57.3811 202.913 57.3833C203.28 57.3873 203.156 57.8168 203.238 58.0047C203.567 58.7621 205.944 55.4123 206.201 55.0613C206.721 54.35 206.946 53.4376 206.956 52.5856C206.98 50.3818 207.131 48.1951 207.155 45.9934C207.177 43.9245 206.637 42.2814 205.108 40.6755C204.244 39.7695 203.009 39.8524 201.782 39.8828C201.121 39.8992 200.46 40.5493 199.776 40.5419C199.3 40.5367 201.537 41.8835 201.773 42.0325C202.628 42.5715 203.236 43.1907 204.258 43.4906C204.967 43.699 206.168 43.9309 206.605 44.5438C207.474 45.7604 207.595 46.9004 207.256 48.3397" stroke="#F4F0EE" stroke-width="3" stroke-linecap="round"/>
<path d="M196.762 43.0055C196.112 43.4725 196.796 44.5257 195.675 44.1789C194.774 43.9001 194.13 42.5831 193.751 41.8884C193.377 41.2048 193.242 40.462 192.663 39.8844C190.934 38.159 188.968 36.3912 187.772 34.3212C186.902 32.8153 186.359 31.1977 185.279 29.7928C184.656 28.9831 183.759 28.3344 183.355 27.4015C182.947 26.4593 182.845 25.4202 182.667 24.431C182.52 23.6131 182.615 22.7458 182.624 21.9214C182.633 21.0829 182.588 20.2137 182.934 19.4156C183.201 18.7972 183.822 18.2134 184.252 17.6774C184.864 16.915 185.26 15.9782 185.777 15.1596C186.455 14.0854 187.519 13.2352 188.169 12.1596C188.408 11.7646 188.449 12.0573 188.286 12.3878C187.658 13.67 187.009 14.9512 186.429 16.2511C185.975 17.2677 185.806 18.3779 185.42 19.4175C184.94 20.7078 184.93 21.9711 184.714 23.3058C184.66 23.6371 184.761 24.1827 184.602 24.4898C184.392 24.8945 184.196 25.3321 184.115 25.7769C184.064 26.0519 183.88 25.4553 183.913 25.491C184.762 26.4018 184.861 27.9836 185.28 29.0741C185.553 29.786 186.157 30.7015 186.207 31.4547C186.211 31.5175 186.36 31.9798 186.387 31.797C186.49 31.1185 186.254 30.366 186.085 29.7133C185.805 28.6318 185.584 27.5738 185.428 26.4721C185.068 23.9413 184.489 21.4565 184.592 18.8915C184.643 17.6191 184.752 16.3034 184.924 15.0369C184.999 14.4841 185.262 14.0981 185.455 13.5801C186.062 11.9565 187.623 11.658 189.268 11.0872C189.728 10.9276 190.185 11.01 190.634 10.8751C190.997 10.7661 191.4 10.5768 191.775 10.5219C195.04 10.044 199.085 10.4852 200.693 13.4306C201.273 14.4934 201.722 15.7398 202.174 16.8511C202.566 17.8118 202.77 18.8768 203.053 19.8678C203.294 20.7146 203.797 21.328 204.265 22.0812C205.405 23.9192 205.435 25.9178 205.543 27.9581C205.633 29.6535 205.281 31.2604 205.263 32.9354C205.251 33.9944 205.24 35.0534 205.228 36.1124C205.225 36.3683 205.201 36.6542 205.41 36.2909C205.895 35.4467 206.133 34.7622 206.143 33.8024C206.161 32.1619 206.212 30.6104 205.821 28.995C205.649 28.2849 205.856 27.502 205.583 26.8238C205.222 25.9222 205.276 24.7647 205.242 23.8129C205.224 23.3025 205.295 22.7851 205.188 22.2803C205.148 22.0943 205.157 21.9019 205.116 21.7185C205.074 21.5316 204.856 21.5004 204.781 21.3303C204.56 20.8207 204.099 20.4088 204.007 19.8214C203.922 19.2783 203.936 18.7219 203.742 18.2046C203.563 17.7281 203.016 17.4291 202.893 16.9724" stroke="#F4F0EE" stroke-width="3" stroke-linecap="round"/>
<path d="M141.585 94.5547C142.499 93.3144 142.135 90.2267 141.966 88.693C141.83 87.4565 141.473 86.1406 141.486 84.9053" stroke="#F4F0EE" stroke-width="3" stroke-linecap="round"/>
<path d="M116.396 162.283C116.672 162.618 117.799 162.811 118.264 162.816C119.109 162.825 120.05 162.649 120.828 162.36C122.879 161.597 124.112 159.52 125.229 157.953C126.066 156.779 127.341 155.918 128.45 154.985C129.504 154.1 129.826 153.166 130.349 151.946C131.355 149.602 132.571 147.431 133.136 144.946C134.011 141.093 135.859 137.396 137.753 133.867C138.195 133.044 138.14 132.118 138.332 131.234C138.534 130.303 138.692 129.423 138.721 128.47C138.739 127.857 138.771 127.134 139.037 126.559C139.174 126.262 139.321 126.1 139.324 125.772" stroke="#F4F0EE" stroke-width="6" stroke-linecap="round"/>
<path d="M87.5916 145.303C88.1133 145.727 86.8749 144.047 86.7468 143.797C86.4542 143.227 86.1484 142.661 85.8588 142.089C85.5815 141.541 85.3561 140.527 84.8721 140.086C84.3183 139.58 83.3013 138.938 82.9766 138.295C82.44 137.234 81.2315 136.411 80.5719 135.387C80.3977 135.116 78.9958 133.389 79.2404 133.825C79.7048 134.651 80.5585 135.475 81.1633 136.232C81.6359 136.825 82.5577 137.637 82.7722 138.333C83.0451 139.219 84.171 139.222 84.4328 139.848C84.7995 140.725 85.4917 141.552 85.7753 142.472C85.9693 143.101 85.9751 143.9 85.968 144.558" stroke="#F4F0EE" stroke-width="3" stroke-linecap="round"/>
<path d="M96.4851 152.864C94.2675 151.56 92.9326 149.445 90.8262 148.07" stroke="#F4F0EE" stroke-width="6" stroke-linecap="round"/>
<path d="M115.155 161.442C113.159 161.42 111.279 160.944 109.303 160.842C108.297 160.79 107.698 160.688 106.804 160.299C105.016 159.52 103.742 158.055 102.069 157.112C100.892 156.449 100.161 155.308 99.0238 154.712C98.7632 154.576 98.1349 154.059 98.1046 153.792C98.0579 153.381 97.4208 153.387 97.0908 153.235" stroke="#F4F0EE" stroke-width="6" stroke-linecap="round"/>
<path d="M85.9656 144.74C85.8053 144.065 84.1462 143.003 83.5416 142.57C83.1395 142.281 82.6907 142.063 82.2115 141.928C81.2064 141.644 80.3981 140.183 80.1087 139.397C79.373 137.398 79.8039 134.907 78.7046 133.051C78.1451 132.106 77.3924 131.313 76.6472 130.51C76.2833 130.118 76.3719 129.618 75.9357 129.248C75.3643 128.764 75.1306 127.894 74.8469 127.254C74.5978 126.692 74.0445 126.211 73.947 125.606C73.8876 125.237 75.2172 127.078 75.3672 127.341C75.8429 128.172 76.869 129.12 77.14 130C77.2163 130.247 77.5958 130.805 77.297 130.153C76.5643 128.555 75.6465 127.07 74.7295 125.554C73.6 123.686 72.813 121.627 71.8471 119.687C70.2214 116.421 68.1292 113.237 66.855 109.843C66.7512 109.566 66.7769 108.681 66.7738 108.972C66.7636 109.911 66.7522 110.837 66.9474 111.765C67.3566 113.712 67.5275 115.54 68.2687 117.382C68.6859 118.42 69.4204 119.315 70.0276 120.274C70.6391 121.239 71.1037 122.582 71.9313 123.399C72.3807 123.843 73.1215 125.445 73.1152 126.032C73.1135 126.181 73.381 126.569 73.2692 126.458C72.5602 125.753 71.8281 124.967 71.2544 124.171C69.5993 121.873 68.9207 118.918 68.0195 116.328C66.5866 112.209 66.938 107.726 66.8224 103.46C66.793 102.377 66.4686 101.369 66.3582 100.3C66.1522 98.3061 66.1768 96.2424 66.1295 94.2395C66.087 92.4385 66.0537 87.0375 65.973 88.8371C65.6822 95.3208 65.4867 114.79 65.5573 108.301C65.5873 105.538 65.2092 102.799 65.2391 100.045C65.2673 97.4563 65.2955 94.8675 65.3236 92.2788C65.3649 88.4903 65.8137 84.734 65.8549 80.9472C65.8704 79.5197 65.8736 81.0944 65.8023 81.6142C65.6966 82.3834 65.4508 83.162 65.4144 83.9361C65.3549 85.2011 64.981 86.2806 64.9675 87.5215C64.949 89.2209 64.3186 90.9201 64.3001 92.6216" stroke="#F4F0EE" stroke-width="3" stroke-linecap="round"/>
<path d="M66.2935 78.0796C67.1634 77.0828 66.6908 75.1244 66.7581 73.9179C66.8241 72.7333 67.1121 71.505 67.3749 70.3444C67.6596 69.0863 68.0368 67.8292 68.0508 66.5389C68.0632 65.4056 67.1423 68.6638 66.8825 69.7727C66.1987 72.6908 65.7969 75.6527 65.2681 78.5944C65.1031 79.512 64.777 80.5905 64.8283 81.5225C64.9256 83.2915 65.8337 78.0984 66.312 76.3807C66.4742 75.7981 66.8858 74.3689 67.3588 73.9042C67.7154 73.5538 67.5979 73.7977 67.5364 74.2399C67.3384 75.6636 67.0032 77.0754 66.6292 78.4676C66.2541 79.864 66.2586 81.2858 66.2431 82.7111C66.2105 85.7068 67.7677 76.8777 68.6497 73.989C69.3745 71.6148 69.2208 69.1245 69.8049 66.7501C70.0057 65.9342 70.4137 65.2467 70.5669 64.4121C70.7916 63.1881 70.954 61.9967 71.0713 60.7565C71.2549 58.8151 71.7598 57.1522 72.1622 55.2665C72.3702 54.2917 72.6818 53.3367 72.6926 52.3394C72.6933 52.2786 72.6919 52.0969 72.6833 52.1572C72.5415 53.1496 72.4322 54.14 72.2317 55.1257C71.5671 58.3934 70.7054 61.6767 69.7347 64.8683C69.5386 65.5132 69.5673 65.8601 69.1734 66.4702C68.8143 67.0265 68.2517 67.3944 67.8773 67.9023C67.3914 68.5618 67.836 66.3014 68.0617 65.5378C68.7046 63.3632 69.5939 61.0696 70.4901 58.9701C71.0633 57.6273 72.0534 56.1632 72.3036 54.7624C72.5865 53.1787 73.6485 51.4515 75.1149 50.5048C76.235 49.7817 76.8852 48.4337 77.5283 47.3959C77.6692 47.1686 78.6165 45.2665 78.6376 45.4257C78.943 47.7293 76.0674 49.641 74.9908 51.4946C74.2097 52.8394 73.6164 54.2664 73.1657 55.7224C72.8478 56.7496 72.227 57.6635 71.9096 58.6923C71.4384 60.2198 71.4277 61.8332 71.0993 63.3863C70.9651 64.0212 70.723 64.6441 70.716 65.2936C70.707 66.1197 71.3125 63.7306 71.6027 62.9468C72.1228 61.5419 72.7102 60.0868 73.45 58.7596C74.9024 56.1541 75.7019 53.385 76.3723 50.5387C76.7643 48.8743 77.2354 47.2424 77.254 45.532C77.2581 45.155 75.4555 47.213 75.3076 47.3717C73.8323 48.9547 72.5174 50.5032 71.7055 52.4601C71.1509 53.7967 70.6229 55.0986 70.6074 56.5239C70.5886 58.2506 70.9956 52.9317 72.1122 51.524C73.3169 50.0054 74.5205 47.811 74.8018 45.9503" stroke="#F4F0EE" stroke-width="3" stroke-linecap="round"/>
<path d="M81.3487 44.201C81.0618 44.4829 81.143 44.3613 81.1475 43.946C81.1637 42.4528 81.2938 41.0475 81.7952 39.6143C82.1979 38.4631 82.5338 37.3501 83.2476 36.3129C83.3551 36.1566 83.8886 35.7149 83.8911 35.4906C83.8939 35.2343 83.3379 35.6628 83.1169 35.826C81.7121 36.8631 80.5864 38.2807 79.5066 39.5793C78.8269 40.3968 77.0343 42.9241 77.3392 41.9425C78.0601 39.6221 79.2517 37.6233 80.4913 35.5143C80.8533 34.8984 81.7968 33.8305 80.8029 35.0019C79.273 36.8049 77.4433 38.2892 76.1335 40.2809C75.4911 41.2577 74.6109 42.2037 74.0619 43.2115C73.9481 43.4205 74.0357 43.6958 73.9975 43.9188C73.987 43.9804 73.6632 44.3653 73.9024 44.3324C75.1279 44.1637 76.4759 42.9623 77.3807 42.297C79.3418 40.855 80.7955 39.0802 82.4203 37.3557C84.2486 35.4152 86.0629 33.4635 87.799 31.4573C88.8238 30.2731 90.3125 29.083 90.9112 27.6581C90.9414 27.5863 91.2314 27.231 91.2755 27.5003C91.4818 28.7591 89.6304 30.4849 88.8317 31.3168C87.5868 32.6137 86.0174 33.5463 84.7148 34.7713C83.6117 35.8087 83.0305 37.2277 82.4302 38.529C82.2334 38.9558 82.116 39.4667 82.0185 39.9202C81.8457 40.7235 83.0284 38.266 83.2524 37.9513C83.9686 36.9451 84.5952 35.7893 85.6634 35.0648C86.6022 34.4282 87.641 33.8189 88.4839 33.0829C89.2391 32.4235 89.861 31.6082 90.6712 30.9728C91.5439 30.2883 92.4893 29.7928 92.9823 28.9347C93.0797 28.7652 93.1011 29.0377 93.014 29.1475C92.5159 29.7754 91.8228 30.2573 91.2843 30.8581C89.9402 32.3577 88.2871 33.3656 86.5759 34.5185C84.6916 35.7881 82.9235 38.2607 82.2522 40.307C82.1178 40.7169 81.8088 41.4864 81.8042 41.9102C81.8014 42.1711 82.163 41.4939 82.2872 41.2581C83.0781 39.7568 84.0022 38.3155 84.9636 36.8979C85.6276 35.9189 86.2242 34.9636 87.1801 34.1812C88.2846 33.2773 89.6221 32.649 90.7307 31.7522C93.2298 29.7303 96.2694 28.2658 99.304 26.9808C100.807 26.3444 102.736 27.7065 104.164 28.1057C104.726 28.2627 105.492 28.6389 104.497 28.797C101.378 29.2924 98.1976 28.9502 95.4663 30.8024C94.5608 31.4165 93.5349 31.8644 92.6041 32.4501C91.5754 33.0975 90.4388 33.1881 89.3164 33.6381C88.4917 33.9687 87.3077 34.5865 86.3503 34.425C85.8375 34.3386 86.539 33.1433 86.6152 32.9918C87.3354 31.5602 88.5555 30.7277 89.8464 29.7097C91.0242 28.7809 92.4524 28.2504 93.5893 27.3029C94.038 26.929 95.2344 25.9949 95.8248 25.972C96.2829 25.9543 96.3547 25.3633 96.7617 25.2642C97.049 25.1942 96.955 25.0231 97.1734 24.9147C97.6128 24.6966 97.1435 25.2015 96.9768 25.2867C94.1098 26.7524 91.4193 28.4243 88.4412 29.7146C85.8946 30.818 84.5855 33.2023 82.225 34.4813C81.799 34.7121 81.3779 35.0424 80.9475 35.2462C80.7739 35.3283 80.1613 35.2679 80.358 35.2701C80.6876 35.2737 80.7449 34.5494 80.9007 34.3455C81.48 33.5873 82.1181 32.72 82.8068 32.0401C84.0829 30.7803 84.9297 29.4747 86.7071 28.7046C88.3585 27.9892 90.2722 27.5647 91.7384 26.6153C93.5792 25.4235 95.7814 24.597 97.7767 23.6267C100.912 22.1021 104.381 22.6114 106.564 25.209C107.011 25.7409 107.34 26.3414 107.781 26.8707C108.569 27.8146 109.693 28.4196 110.68 29.1677C111.535 29.8159 112.665 30.7009 113.272 31.5322C113.724 32.1521 113.295 31.2658 113.107 31.0348C112.521 30.3129 111.526 30.0005 110.72 29.5929C109.869 29.1622 108.914 29.0272 107.928 29.0164C106.679 29.0028 105.654 28.7496 104.571 28.2517" stroke="#F4F0EE" stroke-width="3" stroke-linecap="round"/>
<path d="M103.187 24.2317C105.627 24.8442 108.097 25.9493 110.179 27.2609C111.633 28.1766 114.012 28.7005 115.124 30.0049C115.701 30.6818 116.36 31.2947 116.972 31.9466C117.613 32.6287 118.434 33.0664 119.084 33.699C120.023 34.6132 120.974 35.4613 121.773 36.4893C122.484 37.4034 123.447 38.2504 123.93 39.2839C124.323 40.1267 125.017 40.8537 125.479 41.6673C125.571 41.8304 126.443 43.9048 126.001 43.6451C124.884 42.9879 124.229 41.6677 123.175 40.9242C122.125 40.1827 121.034 39.6954 120.116 38.8378C119.286 38.0631 118.165 37.3002 117.65 36.313C117.251 35.5487 116.816 34.8728 116.131 34.2838C115.376 33.6341 114.302 33.2489 113.394 32.8078C112.7 32.4709 111.512 32.0853 110.948 31.5979C110.379 31.1065 108.755 30.5321 108.428 29.9321" stroke="#F4F0EE" stroke-width="3" stroke-linecap="round"/>
<path d="M118.159 35.3174C120.498 36.9077 123.823 37.7983 125.451 40.049C126.43 41.4031 126.784 43.1048 127.988 44.3243C128.771 45.1181 129.831 45.7202 130.684 46.4775C131.751 47.4254 132.353 48.6445 132.788 49.939C133.337 51.5753 133.952 53.205 134.218 54.9304C134.434 56.3303 134.579 58.012 135.144 59.35C135.283 59.678 136.412 61.6689 135.955 61.9176C135.426 62.2049 133.987 59.7849 133.818 59.4266C132.791 57.2473 132.515 54.7604 131.797 52.497C131.481 51.503 130.223 50.307 129.552 49.4588C128.69 48.3692 128 47.2356 127.014 46.3364" stroke="#F4F0EE" stroke-width="3" stroke-linecap="round"/>
<path d="M140.974 94.3661C140.797 91.7692 140.622 89.2022 140.65 86.6054C140.67 84.7757 140.902 82.7773 140.485 80.9704C140.207 79.7671 139.729 78.5172 139.312 77.3471C138.94 76.3025 138.588 75.2077 138.134 74.1889C137.856 73.5638 137.303 73.0805 136.974 72.4772C136.001 70.6958 135.9 68.6688 135.359 66.7758C134.932 65.2807 134.983 63.8808 134.999 62.3422C135.014 61.0298 135.618 62.2854 136.058 62.92C136.941 64.1926 138.179 65.1589 138.67 66.6096C139.334 68.576 139.893 70.6151 140.395 72.6055C140.885 74.5502 140.554 76.7172 140.532 78.7055C140.486 82.9971 141.05 87.3316 141.004 91.6357" stroke="#F4F0EE" stroke-width="3" stroke-linecap="round"/>
<path d="M139.065 123.208C139.081 121.673 139.617 120.029 139.682 118.491C139.705 117.941 139.627 117.589 139.698 117.067C139.766 116.564 140.384 116.338 140.508 115.837C140.846 114.471 139.741 113.918 140.543 112.652C140.799 112.247 140.37 111.147 140.564 110.709C140.8 110.176 140.903 109.625 140.909 109.054C140.923 107.72 141.222 106.164 141.274 104.845C141.369 102.405 141.47 99.9452 141.497 97.4897" stroke="#F4F0EE" stroke-width="6" stroke-linecap="round"/>
<path d="M151.96 274.594C151.425 277.783 151.437 281.413 149.894 284.402C149.342 285.473 148.629 286.532 147.966 287.554C147.128 288.845 145.94 290.171 144.774 291.19" stroke="#F4F0EE" stroke-width="3" stroke-linecap="round"/>
<path d="M81.1134 283.367C81.1037 283.417 80.235 281.633 79.9612 281.276C78.9323 279.935 78.1347 279.019 76.8491 278.059C75.4496 277.014 74.0119 275.553 73.284 274.05C72.4228 272.273 72.9551 269.573 72.9767 267.587C73.0037 265.106 73.7672 263.521 74.5572 261.162C75.7055 257.733 77.0565 254.61 78.9844 251.492C79.5946 250.505 80.1691 248.731 80.5582 247.614C81.2773 245.55 81.7852 242.03 83.2799 240.434C85.3686 238.205 87.0726 234.999 88.7585 232.479C90.4366 229.972 91.8886 226.557 94.2162 224.524" stroke="#F4F0EE" stroke-width="6" stroke-linecap="round"/>
<path d="M126.548 237.684C124.597 246.003 123.301 254.773 120.525 262.898C119.254 266.619 117.438 270.089 116.314 273.882C116.1 274.605 110.381 296.761 104.78 292.669C103.353 291.626 102.466 290.026 101.256 288.792C100.367 287.886 99.2084 287.221 98.4512 286.234C95.9511 282.974 95.509 278.972 95.5503 275.173C95.5821 272.253 96.9457 269.335 97.7217 266.508C98.6119 263.264 99.9249 260.341 101.493 257.317C103.908 252.662 104.961 247.935 106.725 243.124C108.222 239.04 108.997 234.986 110.09 230.801C111.145 226.764 113.001 222.896 114.373 218.938C115.704 215.103 116.977 211.273 118.192 207.408C118.633 206.002 118.931 204.683 118.992 203.222C119.019 202.603 119.724 199.703 119.287 199.255C119.28 199.247 114.234 204.752 113.682 205.355C111.284 207.972 109.97 210.261 109.061 213.563C108.314 216.275 107.218 218.884 106.623 221.626C106.176 223.687 105.788 225.755 104.753 227.654C103.294 230.333 102.268 233.216 100.344 235.658C99.0273 237.329 97.182 238.779 96.093 240.723C94.4367 243.681 92.9837 246.833 91.2948 249.772" stroke="#F4F0EE" stroke-width="17" stroke-linecap="round"/>
<path d="M125.214 186.773C126.737 190.932 128.932 194.869 131.885 198.381C134.183 201.112 135.688 204.744 136.858 207.985C138.042 211.263 138.499 215.297 138.462 218.751C138.436 221.053 139.76 222.943 139.903 225.096C140.108 228.19 142.438 231.129 143.964 233.641C145.053 235.434 145.382 236.646 145.883 238.568C146.094 239.378 146.624 240.141 146.906 240.939C147.277 241.987 147.054 243.116 147.459 244.128C149.362 248.885 149.029 254.064 148.974 259.163" stroke="#F4F0EE" stroke-width="6" stroke-linecap="round"/>
<path d="M91.2958 249.772C90.6491 250.61 90.0254 251.765 88.9816 252.275C88.5531 252.484 87.7957 252.593 87.4848 252.933C87.0165 253.444 85.9773 252.647 85.967 253.59C85.9457 255.551 86.0487 257.484 86.4701 259.419C86.6961 260.457 86.6153 262.445 87.1823 263.378C90.6448 269.078 93.6164 275.523 95.3109 281.837C96.5426 286.425 93.9448 291.918 95.929 296.374C96.5408 297.748 96.8069 298.605 96.7912 300.054C96.7832 300.79 97.3338 301.833 98.1328 302.091C101.302 303.113 103.365 303.688 106.744 303.177C109.985 302.687 112.592 299.671 115.108 298.081C117.49 296.575 119.338 294.774 121.872 293.436C123.286 292.689 125.043 292.237 126.571 291.596C128.959 290.593 130.119 289.658 131.835 287.945C135.406 284.381 134.789 278.74 134.836 274.364C134.919 266.721 133.389 259.334 132.901 251.685C132.549 246.166 132.03 240.806 131.19 235.338C131.032 234.306 130.705 233.469 130.214 232.519C128.879 229.935 128.277 227.206 127.196 224.546C124.072 216.864 121.445 209.631 120.817 201.444C120.657 199.358 120.658 197.31 120.591 195.225C120.563 194.37 119.491 192.752 119.032 191.912C118.754 191.402 118.65 190.906 118.377 190.407" stroke="#F4F0EE" stroke-width="17" stroke-linecap="round"/>
<path d="M113.62 215.622C115.369 224.669 116.128 233.787 117.796 242.816C118.911 248.847 116.982 237.316 116.862 236.577C115.572 228.614 114.261 220.527 114.349 212.464C114.384 209.16 116.02 218.906 116.865 222.126C119.162 230.878 120.756 239.698 122.631 248.511C123.044 250.453 123.754 252.451 123.513 248.899C122.984 241.104 122.468 233.237 121.455 225.479C121.093 222.705 118.87 217.876 119.872 215.07C120.106 214.413 120.988 216.048 121.397 216.635C123.735 219.991 125.769 223.514 128.07 226.893C130.62 230.636 132.813 234.806 135.967 238.162C136.984 239.244 133.29 231.32 132.813 230.351C129.387 223.393 126.892 216.92 125.485 209.42C125.401 208.975 124.169 204.633 125.314 207.388C127.549 212.766 130.998 217.665 133.356 222.993C133.977 224.397 133.849 228.717 134.619 227.377C136.104 224.793 132.695 217.628 131.824 214.994C131.185 213.062 131.016 211.336 131.037 209.342C131.058 207.452 133.792 212.951 133.925 213.228C138.076 221.819 137.662 230.272 134.569 239.041C131.784 246.938 127.786 254.434 124.948 262.3C124.876 262.499 122.235 266.505 121.938 266.086C121.154 264.98 120.928 262.661 120.754 261.566C119.901 256.213 119.649 250.781 119.581 245.381C119.522 240.738 119.643 236.09 119.694 231.447C119.697 231.152 119.958 228.822 118.943 229.581C117.494 230.664 116.951 233.77 116.569 235.129C114.411 242.82 113.019 250.665 111.073 258.398C110.98 258.768 106.778 274.065 106.585 274.005C105.022 273.522 104.083 268.518 103.953 267.887C102.522 260.923 102.674 253.584 103.029 246.543C103.407 239.036 104.452 230.997 106.9 223.772C107.029 223.394 107.522 222.3 107.298 222.641C105.55 225.308 104.289 228.558 103.116 231.404C97.477 245.096 91.9818 259.043 87.0889 272.968C86.0338 275.97 81.7232 286.392 83.5773 276.818C85.4375 267.212 88.0906 256.779 92.2978 247.768C95.0945 241.779 98.9004 236.379 102.199 230.637C103.722 227.988 102.936 229.566 101.808 231.218C99.2426 234.975 96.7256 238.803 94.1283 242.524C93.7897 243.009 91.6337 245.639 91.9966 243.567C93.7497 233.558 96.3926 223.21 99.7639 213.544C101.34 209.025 103.261 204.654 105.459 200.359C105.598 200.087 107.167 198.573 106.715 198.342C104.54 197.235 87.2766 230.781 84.9277 237.744C82.8576 243.88 82.137 250.413 79.867 256.407C77.46 262.764 76.2582 269.192 76.1851 275.911C76.1257 281.366 78.34 285.353 80.346 290.339C81.9466 294.318 85.7914 299.527 90.4852 300.979C92.183 301.504 94.3029 302.496 96.0122 303.241C97.6312 303.946 100.586 304.495 101.846 305.644C103.641 307.282 110.95 307.317 113.292 306.044C118.79 303.055 125.041 303.731 129.141 298.578C134.061 292.394 137.445 285.851 140.036 278.774C141.353 275.176 143.542 271.866 143.585 267.939C143.631 263.684 144.503 258.614 143.384 254.449C142.175 249.944 139.831 246.061 138.667 241.597C137.953 238.862 137.084 236.18 135.087 233.954C133.957 232.694 134.226 230.967 133.205 229.77C133.063 229.603 131.286 227.625 131.597 228.755C133.036 233.978 135.107 239.359 136.861 244.537C139.629 252.705 139.214 260.209 137.025 268.453C135.79 273.105 135.617 277.917 134.558 282.602C134.298 283.752 134.718 285.162 133.979 286.175C133.062 287.432 129.99 291.157 127.964 289.86C121.922 285.993 125.088 272.599 125.856 267.437C127.294 257.766 130.296 248.382 130.68 238.586C130.8 235.538 130.785 232.484 130.819 229.435C130.9 221.935 129.601 244.394 129.225 251.886C128.8 260.347 128.508 268.783 126.984 277.152C126.942 277.382 127.067 278.743 126.472 278.11C122.959 274.371 120.585 269.172 118.831 264.642C113.312 250.384 110.912 234.544 108.873 219.63C108.853 219.479 108.474 212.259 106.714 212.553C104.172 212.978 109.548 249.743 110.446 255.776C110.714 257.576 111.424 251.482 111.459 251.246C112.744 242.5 113.184 233.626 113.482 224.807C113.828 214.562 114.437 204.305 114.549 194.058C114.59 190.244 114.044 188.8 116.823 194.082C120.132 200.373 123.073 206.839 125.596 213.412C126.054 214.608 126.633 216.764 127.824 217.634C127.913 217.699 127.598 208.995 127.429 207.927C126.728 203.51 125.486 199.154 124.951 194.721C124.619 191.975 122.923 189.726 122.953 186.958C122.958 186.535 121.591 185.846 122.039 185.984C123.563 186.456 124.416 187.951 125.67 188.811C128.588 190.81 128.681 195.243 129.076 198.207C130.019 205.27 131.69 211.983 133.362 218.864C134.709 224.405 136.811 231.848 140.77 236.115C145.709 241.44 146.566 249.019 146.495 255.618" stroke="#F4F0EE" stroke-width="5" stroke-linecap="round"/>
<path d="M139.389 272.541C138.605 265.968 138.347 259.079 136.794 252.607C136.667 252.078 135.634 248.683 135.3 251.149C134.258 258.83 135.334 266.686 134.459 274.397C134.363 275.244 134.422 276.852 134.004 277.669C133.652 278.357 131.784 275.654 131.719 275.566C125.861 267.677 125.96 257.248 126.059 248.128C126.127 241.899 126.194 235.67 126.262 229.442C126.284 227.424 126.74 233.46 127.162 235.444C127.337 236.264 127.816 237.698 126.55 237.684" stroke="#F4F0EE" stroke-width="17" stroke-linecap="round"/>
<path d="M309.864 105.232L309.769 104.758L310.065 104.925L323.753 84.1235L310.519 105.161L343.345 101.632L311.841 105.928L334.679 118.834L311.276 106.006L310.051 106.173L309.867 106.198L294.036 131.363L309.225 106.285L265.04 112.311L309.864 105.232Z" fill="#F4F0EE"/>
<path d="M303.164 71.6484L309.864 105.232M316.563 138.815L309.864 105.232M309.864 105.232L265.04 112.311L343.345 101.632L309.864 105.232ZM309.864 105.232L294.036 131.363L323.753 84.1235L309.864 105.232ZM309.864 105.232L334.679 118.834L287.866 92.3809" stroke="#F4F0EE" stroke-width="2"/>
<path d="M25.7357 351.732L25.6827 351.455L25.8492 351.553L33.5452 339.379L26.1038 351.691L44.5494 349.618L26.8467 352.139L39.6761 359.684L26.529 352.185L25.841 352.283L25.7371 352.297L16.8357 367.024L25.3769 352.349L0.54814 355.885L25.7357 351.732Z" fill="#F4F0EE"/>
<path d="M21.9796 332.086L25.7357 351.732M29.4919 371.378L25.7357 351.732M25.7357 351.732L0.54814 355.885L44.5494 349.618L25.7357 351.732ZM25.7357 351.732L16.8357 367.024L33.5452 339.379L25.7357 351.732ZM25.7357 351.732L39.6761 359.684L13.3786 344.219" stroke="#F4F0EE" stroke-width="2"/>
<path d="M68.7444 280.068C60.1563 260.458 95.5944 199.855 114.387 172.005C114.391 169.843 116.092 166.385 122.863 169.85C131.327 174.182 153.534 240.506 156.595 250.598C159.656 260.69 158.046 297.444 122.595 311.106C87.1431 324.768 79.4796 304.581 68.7444 280.068Z" stroke="#4F4133" stroke-width="1.5"/>
<path d="M123.679 184.064C128.581 193.006 138.536 212.918 139.142 221.034M85.4858 256.493C81.5777 269.533 80.2822 297.358 106.364 304.337" stroke="#4F4133"/>
<path d="M212.453 116.681C217.126 110.145 213.179 102.05 213.659 100.244C214.139 98.4386 211.272 85.4291 202.286 94.5926C195.098 101.923 203.813 114.016 208.88 119.033C210.605 116.62 211.855 116.384 212.453 116.681ZM212.453 116.681C217.084 116.558 219.092 117.608 219.517 118.148M219.517 118.148C226.826 110.195 216.665 74.4809 197.5 88.8064C182.167 100.267 197.804 118.26 207.539 125.824C207.935 135.725 213.295 134.704 216.011 131.397M219.517 118.148C220.116 118.445 225.981 122.723 222.023 135.067C221.057 138.082 219.376 139.93 217.357 140.925M208.138 126.121C209.338 125.411 210.922 123.945 210.934 122.21M209.1 119.103C210.447 120.166 210.941 121.231 210.934 122.21M201.674 121.546C200.476 124.358 198.485 131 200.111 135.08C201.647 138.933 211.115 144.004 217.357 140.925M210.934 122.21C213.595 123.028 218.58 125.587 217.237 129.281C216.964 130.03 216.537 130.756 216.011 131.397M216.011 131.397C209.555 130.46 196.64 131.992 196.633 145.617C196.625 162.649 205.478 178.633 215.894 181.084C226.31 183.535 244.645 154.486 222.142 137.17M211.851 133.716C204.154 139.431 196.747 157.94 211.946 172.99C218.53 176.262 233.441 169.635 217.357 140.925" stroke="#4F4133" stroke-width="1.5"/>
<path d="M246.246 280.359C250.485 273.591 246.018 265.713 246.38 263.885C246.741 262.057 243.032 249.217 234.66 258.832C227.963 266.524 237.449 278.147 242.833 282.893C244.398 280.394 245.63 280.093 246.246 280.359ZM246.246 280.359C250.861 279.996 252.934 280.94 253.393 281.457M253.393 281.457C260.17 273.138 247.703 238.006 229.505 253.303C214.947 265.541 231.727 282.695 241.937 289.743C242.977 299.608 248.26 298.31 250.756 294.868M253.393 281.457C254.01 281.723 260.143 285.69 256.996 298.22C256.228 301.281 254.67 303.213 252.72 304.311M242.554 290.009C243.705 289.237 245.191 287.691 245.091 285.959M243.057 282.952C244.471 283.943 245.034 284.981 245.091 285.959M235.804 285.776C234.791 288.645 233.236 295.381 235.125 299.369C236.909 303.137 246.69 307.709 252.72 304.311M245.091 285.959C247.799 286.637 252.942 288.933 251.842 292.691C251.619 293.453 251.24 294.201 250.756 294.868M250.756 294.868C244.25 294.267 231.459 296.466 232.34 310.071C233.44 327.077 243.318 342.578 253.874 344.484C264.431 346.391 280.84 316.436 257.252 300.314M246.755 297.399C239.444 303.505 233.255 322.369 249.407 336.607C256.192 339.532 270.644 332.142 252.72 304.311" stroke="#4F4133" stroke-width="1.5"/>
<path d="M200.571 37.784C205.244 31.2476 201.297 23.1528 201.777 21.347C202.257 19.5411 199.39 6.53164 190.405 15.6951C183.217 23.0259 191.931 35.119 196.998 40.1356C198.723 37.7222 199.973 37.4865 200.571 37.784ZM200.571 37.784C205.202 37.6606 207.21 38.7102 207.636 39.2505M207.636 39.2505C214.944 31.2979 204.783 -4.41659 185.618 9.90893C170.285 21.3693 185.922 39.3624 195.657 46.9264C196.053 56.8274 201.413 55.8062 204.129 52.4997M207.636 39.2505C208.234 39.5479 214.099 43.8258 210.142 56.1692C209.175 59.1849 207.494 61.0322 205.476 62.0276M196.256 47.224C197.456 46.5134 199.04 45.0475 199.053 43.3129M197.218 40.2059C198.565 41.2689 199.059 42.3337 199.053 43.3129M189.793 42.6489C188.594 45.4603 186.603 52.103 188.229 56.1822C189.766 60.0355 199.233 65.1065 205.476 62.0276M199.053 43.3129C201.713 44.1305 206.698 46.6893 205.355 50.3831C205.082 51.1325 204.655 51.859 204.129 52.4997M204.129 52.4997C197.673 51.5624 184.758 53.0943 184.752 66.7199C184.743 83.7517 193.596 99.736 204.012 102.187C214.428 104.638 232.763 75.5889 210.26 58.2726M199.969 54.8189C192.272 60.5338 184.865 79.0423 200.065 94.0921C206.649 97.3643 221.56 90.7371 205.476 62.0276" stroke="#4F4133" stroke-width="1.5"/>
<path d="M258.438 343.936C263.603 343.184 268.988 345.739 273.53 350.701C278.065 355.655 281.676 362.931 283.24 371.36C284.805 379.79 284.013 387.708 281.507 393.687C278.998 399.676 274.82 403.625 269.655 404.377C264.49 405.13 259.105 402.574 254.563 397.613C250.028 392.659 246.417 385.383 244.853 376.953C243.288 368.524 244.08 360.606 246.586 354.626C249.095 348.638 253.273 344.689 258.438 343.936Z" fill="#F4F0EE" stroke="#57493C" stroke-width="1.5"/>
<path d="M113.767 25.296C74.4171 0.74728 50.8981 82.0552 65.0359 118.61C72.2955 133.389 92.8207 164.016 116.845 168.286C146.875 173.623 162.953 55.9819 113.767 25.296Z" stroke="#4F4133" stroke-width="1.5"/>
<path d="M113.767 25.296C74.4171 0.74728 50.8981 82.0552 65.0359 118.61C72.2955 133.389 92.8207 164.016 116.845 168.286C146.875 173.623 162.953 55.9819 113.767 25.296Z" stroke="#4F4133" stroke-width="1.5"/>
<path d="M113.398 35.87C82.2668 15.7613 61.9131 84.6334 72.5933 115.233C78.15 127.581 94.064 153.09 113.265 156.334C137.267 160.39 152.311 61.0058 113.398 35.87Z" stroke="#4F4133" stroke-width="1.5"/>
<path d="M275.461 369.553C277.399 375.461 279.285 388.815 271.321 394.964" stroke="#514941"/>
<path d="M229.246 202.2C233.485 195.432 229.018 187.554 229.38 185.726C229.741 183.898 226.032 171.058 217.66 180.673C210.963 188.365 220.449 199.988 225.833 204.734C227.398 202.234 228.63 201.934 229.246 202.2ZM229.246 202.2C233.861 201.837 235.934 202.781 236.393 203.298M236.393 203.298C243.17 194.979 230.703 159.846 212.505 175.144C197.947 187.382 214.727 204.536 224.937 211.583C225.977 221.449 231.26 220.151 233.756 216.709M236.393 203.298C237.01 203.564 243.143 207.531 239.996 220.061C239.228 223.122 237.67 225.054 235.72 226.152M225.554 211.85C226.705 211.078 228.191 209.532 228.091 207.799M226.057 204.792C227.471 205.784 228.034 206.821 228.091 207.799M218.804 207.617C217.791 210.486 216.236 217.222 218.125 221.21C219.909 224.978 229.69 229.55 235.72 226.152M228.091 207.799C230.799 208.478 235.942 210.774 234.842 214.532C234.619 215.294 234.24 216.042 233.756 216.709M233.756 216.709C227.25 216.108 214.459 218.307 215.34 231.912C216.44 248.918 226.318 264.418 236.874 266.325C247.431 268.232 263.84 238.277 240.252 222.155M229.755 219.24C222.444 225.345 216.255 244.209 232.407 258.448C239.192 261.373 253.644 253.983 235.72 226.152" stroke="#4F4133" stroke-width="1.5"/>
<path d="M147.141 254.087C147.103 257.57 147.065 261.053 147.027 264.535C147.011 265.976 145.969 266.964 145.559 268.339C144.924 270.466 143.565 272.464 142.847 274.601C142.119 276.772 142.538 279.146 141.181 281.156C139.311 283.927 137.655 293.548 132.088 291.562C127.695 289.995 123.848 286.782 119.764 284.668C114.857 282.128 109.635 280.057 104.97 277.148C97.51 272.496 93.3621 265.52 88.7208 258.807C87.6885 257.314 89.6484 258.029 90.696 258.529C97.3895 261.723 101.343 267.925 107.293 271.968C107.753 272.28 111.699 275.257 111.503 272.613C111.285 269.677 109.379 266.494 108.179 263.813C107.386 262.042 106.571 260.258 105.634 258.542C105.481 258.262 104.939 257.618 104.893 257.261C104.832 256.786 106.007 257.436 106.398 257.764C108.849 259.817 110.641 262.569 112.445 265.058C115.367 269.088 118.086 273.236 121.04 277.248C122.405 279.1 121.864 275.821 121.818 275.159C121.505 270.647 121.329 266.173 121.378 261.653C121.414 258.382 130.277 265.136 131.461 266.351C133.535 268.479 132.29 256.793 134.495 261.328C136.186 264.806 136.853 268.442 137.293 272.182C137.332 272.513 137.435 274.451 137.582 272.559C137.763 270.249 137.858 267.93 137.931 265.616C137.938 265.385 138.219 260.122 137.039 262.76C136.225 264.579 135.929 266.581 135.277 268.452" stroke="#F4F0EE" stroke-width="5" stroke-linecap="round"/>
<path d="M222.629 225.553C222.328 225.43 222.289 224.548 222.461 224.308C222.517 224.229 222.497 224.166 222.537 224.089C222.679 223.817 222.286 224.647 222.187 224.934C222.077 225.255 221.778 225.643 221.775 225.977C221.771 226.269 222.066 225.455 222.211 225.194C222.431 224.799 222.675 224.425 222.936 224.052C222.952 224.028 223.112 223.833 223.079 223.897C222.923 224.191 222.789 224.485 222.668 224.792C222.469 225.295 222.339 225.791 222.172 226.301C222.135 226.416 222.145 226.525 222.085 226.631C222.006 226.767 222.202 226.344 222.258 226.199C222.37 225.908 222.473 225.616 222.605 225.33C222.679 225.167 222.847 224.97 222.877 224.797C222.904 224.639 223.116 224.526 223.128 224.367C223.132 224.311 223.171 224.256 223.132 224.267C222.509 224.456 222.157 225.1 221.806 225.55C221.548 225.882 221.212 226.149 220.946 226.468C220.69 226.776 221.109 226.031 221.11 226.03C221.707 224.953 222.306 223.854 223.036 222.843C223.182 222.641 223.628 222.053 223.532 222.276C223.398 222.586 222.998 222.887 222.783 223.153C222.166 223.918 221.568 224.655 220.811 225.317C220.391 225.683 219.858 226.016 219.533 226.459C219.52 226.478 219.476 226.575 219.448 226.59C219.241 226.703 219.63 226.187 219.758 226.004C220.609 224.782 221.625 223.658 222.541 222.476C222.696 222.277 223.202 221.652 222.779 222.274C221.969 223.467 220.773 224.433 219.837 225.523" stroke="#F4F0EE" stroke-linecap="round"/>
<path d="M219.838 225.523C220.309 224.721 220.781 223.919 221.25 223.115C221.332 222.975 221.417 222.775 221.538 222.646C222.007 222.146 220.728 223.733 220.273 224.243C220.005 224.543 219.734 224.905 219.417 225.169C219.109 225.425 219.641 224.438 219.853 224.115C220.478 223.161 221.305 222.341 221.963 221.413C222.085 221.242 222.167 221.174 221.966 221.441C221.205 222.453 220.016 223.285 219.485 224.436" stroke="#F4F0EE" stroke-linecap="round"/>
<path d="M218.934 224.7C219.065 224.252 219.266 223.862 219.555 223.485C219.615 223.407 219.684 223.183 219.774 223.138C219.859 223.096 219.96 222.983 219.983 222.897C220.068 222.568 220.644 222.545 220.721 222.282" stroke="#F4F0EE" stroke-linecap="round"/>
<path d="M248.244 259.352C247.771 259.222 247.624 258.932 247.374 258.59C247.304 258.494 247.265 258.254 247.185 258.203C247.014 258.096 247.063 257.904 247.064 257.74C247.066 257.547 247.547 258.018 247.572 258.042C248.132 258.579 248.68 259.24 248.951 259.944C249.018 260.116 249.167 260.643 249.149 260.461C249.113 260.106 248.761 259.718 248.628 259.384C248.487 259.029 248.43 258.588 248.221 258.258C248.03 257.957 247.766 257.708 247.635 257.377C247.547 257.154 247.361 256.719 247.14 256.585" stroke="#F4F0EE" stroke-linecap="round"/>
<path d="M247.305 258.835C247.536 259.225 247.536 259.694 247.771 260.074C247.845 260.195 247.962 260.222 248.012 260.367C248.084 260.572 248.155 260.777 248.226 260.982C248.379 261.422 248.367 261.928 248.59 262.335" stroke="#F4F0EE" stroke-linecap="round"/>
<path d="M241.598 252.871C242.238 253.031 242.877 253.148 243.496 253.36C243.937 253.51 244.306 253.723 244.698 253.943C244.873 254.041 245.047 254.216 245.239 254.275" stroke="#F4F0EE" stroke-linecap="round"/>
<path d="M245.721 255.734C245.598 255.717 245.41 255.403 245.314 255.318C245.143 255.166 244.994 255.007 244.777 254.901C244.535 254.784 244.306 254.594 244.105 254.429C243.92 254.278 243.668 254.17 243.453 254.055C243.245 253.943 243.05 253.81 242.851 253.686C242.586 253.52 242.152 253.38 241.832 253.312C241.689 253.281 241.531 253.137 241.386 253.136C241.218 253.134 241.721 253.176 241.876 253.232C242.088 253.308 242.279 253.405 242.505 253.446C242.645 253.472 242.911 253.54 243.018 253.628C243.269 253.834 243.62 253.957 243.888 254.142C244.069 254.267 244.251 254.468 244.385 254.635C244.551 254.842 244.77 255.007 244.927 255.221C244.958 255.263 244.946 255.336 244.994 255.364C245.011 255.374 245.093 255.418 245.038 255.364C244.832 255.161 244.613 254.944 244.369 254.777C244.138 254.619 243.902 254.502 243.642 254.39C243.5 254.329 243.35 254.252 243.215 254.179C243.07 254.1 242.967 253.973 242.816 253.896C242.273 253.622 241.676 253.495 241.059 253.488" stroke="#F4F0EE" stroke-linecap="round"/>
<path d="M241.338 252.126C241.592 252.1 241.85 252.064 242.101 252.123C242.237 252.155 242.34 252.231 242.469 252.272C242.736 252.358 242.862 252.561 243.066 252.71C243.464 253.001 243.915 253.19 244.267 253.521C244.492 253.734 244.779 253.89 244.965 254.14C245.13 254.361 245.332 254.535 245.483 254.769C245.641 255.012 245.788 255.281 246.063 255.441C246.336 255.6 246.542 255.787 246.747 256.012" stroke="#F4F0EE" stroke-linecap="round"/>
<path d="M226.291 255.954C226.93 256.389 227.414 256.736 227.804 257.356C227.895 257.501 227.993 257.636 228.088 257.776C228.477 258.344 227.033 256.824 226.601 256.281C226.317 255.924 225.882 255.64 225.686 255.233C225.57 254.993 225.466 254.761 225.43 254.5C225.41 254.358 225.398 254.137 225.306 254.017C225.021 253.649 225.778 254.619 225.862 254.738C226.154 255.148 226.531 255.376 226.917 255.678C227.256 255.943 227.44 256.113 227.667 256.476C227.795 256.68 227.898 256.898 228.047 257.092C228.114 257.18 228.128 257.332 228.218 257.373" stroke="#F4F0EE" stroke-linecap="round"/>
<path d="M228.703 258.888C228.884 258.926 228.341 258.768 228.232 258.715C228.058 258.631 227.945 258.43 227.832 258.291C227.549 257.941 227.223 257.624 226.932 257.272C226.596 256.867 226.24 256.482 225.851 256.117C225.607 255.888 225.473 255.598 225.296 255.328" stroke="#F4F0EE" stroke-linecap="round"/>
<path d="M236.121 262.268C234.508 261.599 233.005 260.768 231.297 260.283C231.24 260.267 230.911 260.254 231.144 260.257C231.634 260.262 232.107 260.283 232.591 260.356C232.879 260.4 233.211 260.441 233.484 260.54C233.732 260.63 233.881 260.734 234.16 260.737C234.425 260.74 234.881 260.742 235.07 260.915" stroke="#F4F0EE" stroke-linecap="round"/>
<path d="M235.238 262.818C234.429 262.473 233.643 262.22 232.796 261.959C232.328 261.814 231.861 261.689 231.434 261.469C231.362 261.431 231.273 261.414 231.195 261.388C231 261.323 231.695 261.475 231.716 261.481C232.078 261.578 232.398 261.723 232.738 261.865C232.913 261.937 233.24 261.999 233.365 262.133C233.719 262.509 234.295 262.906 234.76 263.17C234.816 263.202 235.201 263.482 235.016 263.319C234.762 263.094 234.402 262.86 234.083 262.721C233.677 262.545 233.352 262.268 232.955 262.091C232.686 261.971 232.341 262.001 232.056 261.857C231.896 261.776 231.401 261.634 231.582 261.604C232.008 261.533 232.332 261.771 232.711 261.833C232.864 261.859 233.16 261.887 233.255 262.013C233.323 262.103 233.517 262.162 233.615 262.263C233.77 262.422 233.954 262.578 234.111 262.75" stroke="#F4F0EE" stroke-linecap="round"/>
<path d="M234.37 263.621C234.193 263.356 233.858 263.306 233.576 263.188C233.534 263.171 233.519 263.132 233.472 263.117C233.415 263.1 233.362 263.08 233.307 263.059C233.165 263.006 232.994 262.929 232.875 262.84C232.683 262.697 232.503 262.515 232.261 262.44C232.171 262.412 232.092 262.366 232.002 262.338C231.942 262.32 231.826 262.303 231.789 262.269" stroke="#F4F0EE" stroke-linecap="round"/>
<path d="M192.052 58.794C191.755 59.2475 191.451 59.6984 191.164 60.1573C191.131 60.2103 191.124 60.2801 191.072 60.32C191.051 60.3365 191.037 60.2754 191.039 60.2503C191.066 59.9113 191.191 59.5486 191.326 59.2354C191.691 58.3913 192.276 57.5669 192.851 56.8222C192.982 56.6516 193.164 56.4985 192.851 56.8278C191.87 57.8571 190.92 58.9329 190.149 60.0936C190.119 60.1388 190.097 60.1988 190.054 60.2368C189.994 60.2888 190.127 60.1033 190.168 60.0383C190.482 59.5356 190.768 59.021 191.055 58.5058C191.279 58.1029 191.479 57.6923 191.696 57.2867C191.852 56.9933 191.297 57.8972 191.294 57.9009C190.906 58.5149 190.511 59.1107 189.998 59.6481C189.677 59.9845 189.331 60.3282 189.054 60.6947C189.005 60.7603 188.841 60.9143 188.84 61.0058C188.839 61.0423 188.87 60.9378 188.884 60.9036C189.022 60.5777 189.247 60.2877 189.472 60.0058C190.226 59.06 190.951 58.0972 191.645 57.1197C191.69 57.0557 191.736 56.9324 191.821 56.8998C192.115 56.7869 191.445 57.3618 191.257 57.5926C190.869 58.0695 190.53 58.5866 190.113 59.0447C189.867 59.3157 189.55 59.538 189.294 59.8069C189.17 59.9371 189.061 60.0902 188.985 60.2473C188.93 60.3604 188.859 60.5011 188.972 60.2666C189.193 59.8088 189.572 59.4094 189.912 59.0203C190.397 58.4645 190.861 57.8967 191.298 57.3101C191.425 57.1397 191.589 56.8175 191.795 56.7053C191.83 56.6862 191.923 56.6064 191.83 56.6918C191.501 56.9933 191.234 57.3516 190.946 57.6835C190.418 58.292 189.718 58.8216 189.26 59.4737C189.124 59.6685 189.02 59.8321 189.018 60.0591" stroke="#F4F0EE" stroke-linecap="round"/>
<path d="M188.289 60.151C188.56 59.7199 188.853 59.3268 189.203 58.9405C189.26 58.8781 189.409 58.7873 189.423 58.7155C189.446 58.5994 189.533 58.515 189.622 58.4375C189.744 58.3313 189.758 58.1435 189.878 58.0215C190.188 57.7052 190.485 57.0794 191.063 57.0857" stroke="#F4F0EE" stroke-linecap="round"/>
<path d="M192.846 57.6541C192.418 58.7778 191.453 59.6795 191 60.7961C190.845 61.177 190.696 61.5588 190.562 61.9452C190.553 61.9698 190.515 62.0393 190.53 62.017C190.775 61.6361 190.953 61.2222 191.183 60.8341C191.435 60.4085 191.796 60.0366 192.116 59.6516C192.278 59.4562 192.724 59.0728 192.777 58.8017C192.804 58.6669 192.704 59.0688 192.643 59.1941C192.432 59.6231 192.082 59.9711 191.779 60.3469C191.346 60.8825 190.967 61.4404 190.716 62.0634C190.647 62.2324 190.553 62.7629 190.555 62.5831C190.562 61.9428 191.165 61.1641 191.564 60.658C192.085 59.9965 192.69 59.5249 192.958 58.726C192.967 58.7006 193.075 58.461 193.089 58.4611C193.09 58.4612 192.442 59.668 192.344 59.8066C192.008 60.2794 191.606 60.6695 191.353 61.1883C191.192 61.5187 191.126 61.8812 190.95 62.2046C190.829 62.4279 190.778 62.6276 190.775 62.874" stroke="#F4F0EE" stroke-linecap="round"/>
<path d="M191.818 61.4504C191.814 61.4794 191.844 61.4449 191.858 61.4342C191.926 61.3813 191.966 61.3006 192.012 61.2333C192.115 61.0823 192.246 60.9492 192.357 60.8029C192.375 60.7792 192.413 60.7368 192.415 60.7041C192.417 60.6525 192.443 60.6061 192.459 60.5557C192.495 60.4428 192.549 60.3236 192.605 60.2173C192.627 60.1763 192.68 60.143 192.715 60.1095C192.775 60.0514 192.82 59.9775 192.844 59.9012C192.863 59.8399 192.932 59.783 192.942 59.7153C192.945 59.6956 192.996 59.6445 192.959 59.6911C192.872 59.7985 192.826 59.9329 192.753 60.0479C192.678 60.166 192.567 60.2642 192.492 60.381C192.445 60.453 192.436 60.5697 192.367 60.6262C192.287 60.6913 192.232 60.785 192.178 60.8671C192.131 60.9382 192.067 61.0021 192.022 61.0721C191.981 61.1341 191.928 61.2032 191.904 61.2715C191.879 61.3411 191.854 61.4296 191.794 61.4823" stroke="#F4F0EE" stroke-linecap="round"/>
<path d="M191.833 62.362C191.865 62.2745 191.886 62.1769 191.926 62.0921C191.951 62.0385 191.986 61.9885 192.013 61.9358C192.055 61.8532 192.121 61.7851 192.154 61.695C192.18 61.6239 192.231 61.5589 192.269 61.4925C192.314 61.412 192.33 61.3195 192.344 61.2313C192.378 61.029 192.449 60.8148 192.543 60.6278C192.635 60.4436 192.693 60.2512 192.805 60.075C192.877 59.9606 192.913 59.8294 192.979 59.7112C193.023 59.6324 193.069 59.5536 193.111 59.4733C193.141 59.4162 193.18 59.3121 193.236 59.2793" stroke="#F4F0EE" stroke-linecap="round"/>
<path d="M215.175 93.7557C215.151 93.7738 215.182 93.8428 215.188 93.8629C215.217 93.96 215.247 94.0569 215.271 94.1553C215.295 94.2545 215.317 94.3501 215.354 94.4465C215.364 94.4726 215.379 94.5494 215.401 94.5745C215.421 94.597 215.41 94.6348 215.422 94.6632C215.447 94.7245 215.475 94.817 215.525 94.8668C215.614 94.9572 215.662 95.1216 215.663 95.2399C215.663 95.2952 215.65 95.3589 215.713 95.3879" stroke="#F4F0EE" stroke-linecap="round"/>
<path d="M215.836 98.3185C215.703 97.6254 215.41 96.964 215.272 96.2721C215.202 95.9192 215.139 95.5774 215.003 95.2388C214.929 95.0532 214.924 94.8532 214.849 94.6707C214.784 94.5133 214.663 94.3855 214.588 94.2334" stroke="#F4F0EE" stroke-linecap="round"/>
<path d="M216.551 97.9918C216.477 97.5125 216.45 97.0175 216.232 96.5696C216.08 96.2574 215.903 95.9566 215.797 95.6287C215.765 95.5299 215.745 95.4295 215.698 95.3354C215.638 95.2141 215.577 95.0941 215.524 94.9702" stroke="#F4F0EE" stroke-linecap="round"/>
<path d="M217.109 97.7789C216.965 97.3912 216.793 97.0007 216.581 96.6384C216.444 96.404 216.391 96.1306 216.314 95.8787C216.256 95.6874 216.141 95.5374 216.051 95.3574C215.994 95.2448 215.937 95.1344 215.865 95.0292C215.797 94.9309 215.759 94.8181 215.695 94.7173C215.611 94.5836 215.476 94.5274 215.364 94.4195C215.288 94.3454 215.236 94.2443 215.187 94.1543C215.169 94.1205 215.143 94.0796 215.134 94.0435" stroke="#F4F0EE" stroke-linecap="round"/>
<path d="M213.765 91.5396C213.41 91.2502 213.019 90.9844 212.825 90.5821C212.697 90.3167 212.524 90.1612 212.254 89.989C211.881 89.7505 211.429 89.5805 211.131 89.2606C210.994 89.1139 210.869 88.9629 210.719 88.8263C210.194 88.3471 209.463 88.2269 208.771 88.0334" stroke="#F4F0EE" stroke-linecap="round"/>
<path d="M213.297 91.7837C212.811 91.3663 212.327 90.9473 211.835 90.5364C211.538 90.2888 211.248 90.0223 210.895 89.8399C210.59 89.6826 210.272 89.5109 209.995 89.3172C209.716 89.123 209.393 89.0233 209.136 88.8042C208.927 88.6266 208.686 88.4965 208.441 88.3623" stroke="#F4F0EE" stroke-linecap="round"/>
<path d="M213.899 92.2894C213.316 91.8154 212.648 91.4048 212.191 90.8245C211.99 90.5702 211.694 90.4512 211.367 90.3812C211.188 90.3428 210.99 90.2091 210.811 90.1441C210.648 90.085 210.589 89.9893 210.477 89.8817C210.228 89.6417 209.851 89.4534 209.504 89.3721" stroke="#F4F0EE" stroke-linecap="round"/>
<path d="M209.503 89.3723C209.247 89.3695 209.291 89.4831 209.477 89.6007C209.62 89.691 209.865 89.7505 210.035 89.7524C210.162 89.7538 210.401 89.8888 210.496 89.9653C210.683 90.1171 211.025 90.1861 211.254 90.2647C211.478 90.342 211.738 90.4933 211.886 90.6666C212.066 90.8779 212.232 90.9926 212.508 91.0916C212.604 91.1261 212.749 91.2655 212.826 91.3307C212.942 91.4284 213.107 91.4832 213.186 91.6165C213.387 91.9574 213.495 92.3836 213.801 92.6629" stroke="#F4F0EE" stroke-linecap="round"/>
<path d="M199.224 96.7866C199.743 96.9821 200.242 97.1916 200.744 97.4166C200.86 97.4687 200.992 97.5133 201.121 97.528C201.257 97.5435 202.108 97.7073 201.798 97.4645C201.484 97.219 201.094 97.1884 200.741 97.0137C200.481 96.8846 200.21 96.8378 199.932 96.7538C199.784 96.7091 199.642 96.6498 199.484 96.6436C199.41 96.6407 199.188 96.6404 199.262 96.6412C199.67 96.6457 200.078 96.7169 200.481 96.7719C200.89 96.8278 201.281 96.8276 201.686 96.9207C201.815 96.9504 201.987 96.9989 202.121 97.0003" stroke="#F4F0EE" stroke-linecap="round"/>
<path d="M202.962 98.577C202.456 98.5203 201.992 98.3814 201.509 98.2353C201.185 98.1372 200.84 98.0767 200.597 97.8548C200.23 97.52 199.886 97.2222 199.457 96.9435C199.284 96.8317 199.116 96.7546 198.972 96.6143C198.824 96.4689 198.721 96.2734 198.597 96.1162C198.587 96.1043 198.526 96.0478 198.534 96.0588C198.651 96.2294 198.967 96.4146 199.134 96.5492C199.513 96.8538 199.99 97.0338 200.38 97.324C200.606 97.4921 200.747 97.725 200.923 97.9313C201.129 98.1738 201.293 98.3491 201.615 98.4895C201.826 98.5814 202.081 98.5897 202.308 98.6428" stroke="#F4F0EE" stroke-linecap="round"/>
<path d="M203.928 99.717C203.514 99.5421 203.067 99.3916 202.687 99.1608C202.568 99.0893 202.441 98.9824 202.303 98.9421C202.136 98.8933 201.984 98.7973 201.815 98.7545C201.545 98.6862 201.265 98.6082 200.992 98.5472C200.738 98.4903 200.408 98.3327 200.188 98.2104C200.031 98.1234 199.777 97.9941 199.684 97.8486C199.57 97.6702 199.371 97.5285 199.199 97.3979C198.945 97.2058 198.639 97.1369 198.405 96.9236" stroke="#F4F0EE" stroke-linecap="round"/>
<path d="M193.584 89.7646C194.021 90.387 194.43 91.0368 194.911 91.6337C195.074 91.8364 195.221 92.0229 195.34 92.2498C195.567 92.6849 195.806 93.1106 196.086 93.5213C196.223 93.7225 196.402 93.9222 196.517 94.1334" stroke="#F4F0EE" stroke-linecap="round"/>
<path d="M192.938 89.2476C193.223 89.9187 193.463 90.6302 193.855 91.262C194.026 91.5374 194.23 91.7954 194.395 92.0777C194.608 92.4415 194.78 92.8141 195.036 93.1537C195.31 93.5156 195.603 93.8401 195.94 94.1597C196.145 94.3547 196.366 94.5945 196.635 94.7179" stroke="#F4F0EE" stroke-linecap="round"/>
<path d="M198.239 95.6311C198.749 95.907 199.299 95.9705 199.868 96.0521C200.196 96.0991 200.51 96.141 200.823 96.236C200.962 96.2781 201.092 96.3117 201.235 96.3413C201.829 96.4646 202.428 96.3906 203.03 96.3971" stroke="#F4F0EE" stroke-linecap="round"/>
<path d="M202.443 99.796C202.169 99.6612 201.898 99.5195 201.615 99.3994C201.506 99.3532 201.414 99.2819 201.325 99.2112C201.036 98.9835 200.652 98.8639 200.388 98.6102C200.205 98.4348 200.105 98.2028 199.91 98.0406C199.737 97.8967 199.611 97.7549 199.484 97.5774" stroke="#F4F0EE" stroke-linecap="round"/>
<path d="M202.172 138.148C202.159 138.186 201.914 138.768 201.99 138.911C202.112 139.14 202.813 138.483 202.827 138.47C203.208 138.135 203.549 137.753 203.89 137.386C203.997 137.271 204.314 136.936 204.252 137.075C203.784 138.123 202.929 138.995 202.176 139.878C201.925 140.173 201.705 140.49 201.496 140.809C201.453 140.874 201.372 140.982 201.384 141.065C201.414 141.267 201.641 140.729 201.773 140.564C202.322 139.882 202.984 139.278 203.513 138.583C203.818 138.18 204.035 137.688 204.389 137.317C204.586 137.11 204.191 137.83 204.081 138.084C203.853 138.611 203.579 139.133 203.288 139.635C202.893 140.319 202.48 141.103 201.932 141.701" stroke="#F4F0EE" stroke-linecap="round"/>
<path d="M201.882 141.7C202.881 140.556 203.864 139.365 204.728 138.135C204.879 137.921 204.937 137.729 205.155 137.565C205.23 137.508 205.3 137.319 205.37 137.382C205.385 137.396 204.408 138.518 204.354 138.586C203.588 139.55 202.97 140.551 202.337 141.585C202.162 141.872 201.982 142.148 201.723 142.374" stroke="#F4F0EE" stroke-linecap="round"/>
<path d="M200.041 139.52C200.991 138.32 202.17 137.266 203.3 136.204C203.586 135.935 203.868 135.585 204.222 135.379" stroke="#F4F0EE" stroke-linecap="round"/>
<path d="M200.093 139.43C200.389 138.841 200.634 138.283 201.058 137.775C201.381 137.388 201.674 136.966 202.013 136.59C202.307 136.263 202.842 135.897 203.31 135.819" stroke="#F4F0EE" stroke-linecap="round"/>
<path d="M205.406 137.733C204.855 138.71 203.993 139.538 203.348 140.466C202.704 141.391 202.044 142.375 201.111 143.087" stroke="#F4F0EE" stroke-linecap="round"/>
<path d="M203.184 141.337C203.417 141.096 203.63 140.832 203.885 140.609C204.135 140.391 204.335 140.124 204.475 139.837C204.506 139.772 204.494 139.743 204.547 139.695C204.59 139.655 204.64 139.584 204.674 139.537C204.834 139.313 204.839 139.043 204.953 138.803C205.074 138.549 205.142 138.293 205.145 138.018" stroke="#F4F0EE" stroke-linecap="round"/>
<path d="M230.005 178.342C229.584 177.871 229.196 177.295 228.65 176.926C227.189 175.937 225.883 174.607 224.207 173.907C223.782 173.729 223.376 173.735 222.925 173.73" stroke="#F4F0EE" stroke-linecap="round"/>
<path d="M225.289 174.854C225.79 175.445 226.78 176.146 227.594 176.431C227.877 176.53 228.126 176.713 228.383 176.716" stroke="#F4F0EE" stroke-linecap="round"/>
<path d="M228.464 177.057C228.173 176.715 227.879 176.322 227.463 176.088C227.33 176.014 227.2 175.962 227.094 175.855C226.971 175.73 226.876 175.601 226.713 175.511C226.562 175.428 226.402 175.363 226.24 175.299" stroke="#F4F0EE" stroke-linecap="round"/>
<path d="M225.413 174.206C225.515 174.299 225.617 174.416 225.736 174.493C225.891 174.593 226.131 174.659 226.248 174.793C226.305 174.859 226.332 174.948 226.395 175.009C226.481 175.094 226.564 175.17 226.663 175.243C226.743 175.302 226.834 175.326 226.894 175.409C226.97 175.512 226.999 175.637 227.07 175.742C227.246 176.003 227.567 176.136 227.688 176.432" stroke="#F4F0EE" stroke-linecap="round"/>
<path d="M228.19 176.437C227.93 176.265 227.78 175.979 227.459 175.899C227.263 175.851 227.061 175.809 226.871 175.739" stroke="#F4F0EE" stroke-linecap="round"/>
<path d="M227.235 176.594C227.273 176.625 227.124 176.443 227.096 176.412C227.038 176.349 226.945 176.306 226.866 176.265C226.769 176.215 226.718 176.171 226.651 176.102C226.529 175.974 226.5 175.782 226.385 175.651C226.257 175.505 226.049 175.442 225.914 175.311C225.784 175.184 225.63 175.119 225.469 175.031C225.392 174.989 225.312 174.979 225.245 174.92C225.21 174.89 225.167 174.845 225.124 174.823C225.092 174.807 225.06 174.767 225.023 174.762C225.009 174.76 225.089 174.881 225.103 174.897C225.183 174.997 225.236 175.105 225.359 175.176C225.454 175.23 225.571 175.254 225.668 175.302C225.76 175.347 225.829 175.423 225.903 175.488C226.104 175.662 226.274 175.866 226.495 176.018C226.687 176.149 226.878 176.26 227.051 176.408C227.149 176.493 227.334 176.571 227.459 176.613C227.564 176.648 227.696 176.677 227.776 176.75" stroke="#F4F0EE" stroke-linecap="round"/>
<path d="M224.552 175.367C224.724 175.369 224.856 175.406 225.012 175.455C225.134 175.492 225.239 175.579 225.354 175.614C225.449 175.644 225.501 175.696 225.585 175.736C225.726 175.803 225.887 175.814 226.034 175.861C226.269 175.936 226.533 175.977 226.753 176.078" stroke="#F4F0EE" stroke-linecap="round"/>
<path d="M237.032 301.761C237.029 302.039 236.955 302.323 237.023 302.595C237.132 303.027 237.787 302.022 238.091 301.673C238.642 301.041 239.186 300.405 239.74 299.775C240.091 299.377 239.276 300.4 239.275 300.401C238.707 301.044 238.126 301.674 237.583 302.333C237.333 302.637 236.932 303.003 236.864 303.396C236.812 303.701 237.298 302.917 237.502 302.669C238.109 301.931 238.766 301.267 239.47 300.602C239.978 300.122 239.595 300.649 239.423 300.931C238.945 301.717 238.362 302.474 237.907 303.266C237.484 304.002 239.134 302.018 239.65 301.331C240.052 300.796 240.448 300.252 240.816 299.699C241.046 299.355 240.506 300.453 240.303 300.81C239.717 301.838 239.012 302.765 238.258 303.698C237.662 304.435 236.915 305.411 236.905 306.371" stroke="#F4F0EE" stroke-linecap="round"/>
<path d="M237.139 306.03C237.409 305.58 237.738 305.152 238.048 304.725C238.355 304.302 238.948 303.717 239.093 303.199C239.128 303.073 239.144 302.894 239.231 302.787C239.409 302.566 239.414 302.463 239.417 302.2" stroke="#F4F0EE" stroke-linecap="round"/>
<path d="M235.856 303.401C236.348 302.089 236.598 301.128 237.895 300.31C238.209 300.112 238.412 300.067 238.748 299.922" stroke="#F4F0EE" stroke-linecap="round"/>
<path d="M240.04 301.657C239.871 302.354 239.336 303.048 238.922 303.656C238.569 304.174 238.015 304.636 237.765 305.196C237.484 305.826 237.975 305.097 238.154 304.902C238.555 304.464 238.992 304.101 239.321 303.618C239.464 303.407 239.656 303.244 239.717 302.995C239.762 302.813 239.983 302.75 240.026 302.586C240.318 301.467 238.985 304.71 238.761 305.841" stroke="#F4F0EE" stroke-linecap="round"/>
</svg>
