<svg width="393" height="413" viewBox="0 0 393 413" fill="none" xmlns="http://www.w3.org/2000/svg">
<path d="M208.064 366.066C202.68 364.22 197.824 360.289 192.099 359.404C190.66 359.182 189.227 359.019 187.787 358.859C186.657 358.733 185.7 357.999 184.529 357.999C183.088 357.999 181.862 357.707 180.641 356.909C180.424 356.767 180.282 356.596 180.156 356.376C180.072 356.228 179.489 356.255 179.659 356.255C181.477 356.255 183.472 356.166 185.243 356.594C185.376 356.626 186.67 357.127 186.212 357.127C184.472 357.127 182.843 357.135 181.137 356.812C179.797 356.558 178.563 356.7 177.273 356.303C175.985 355.907 177.971 358.228 178.182 358.544C178.877 359.587 179.689 360.681 180.592 361.584C183.522 364.514 187.646 365.848 191.687 365.848C192.968 365.848 194.185 366.47 195.418 366.502C196.301 366.525 197.187 366.502 198.071 366.502C198.956 366.502 196.364 366.029 195.527 365.739C193.889 365.171 192.354 364.328 190.791 363.583C189.681 363.053 188.646 362.395 187.545 361.851C187.085 361.624 186.434 361.599 186.043 361.269C185.562 360.864 187.281 361.502 187.884 361.681C190.579 362.484 193.262 363.331 195.951 364.152C200.172 365.441 204.385 365.796 208.742 366.187C211.033 366.393 213.598 366.461 215.78 367.132C216.729 367.424 218.148 367.156 219.135 367.156C221.154 367.156 222.633 366.411 224.319 365.242C224.746 364.947 226.22 364.231 226.148 363.656C225.989 362.376 223.644 361.659 222.696 361.33C221.353 360.864 219.954 360.613 218.554 360.397C218.242 360.349 217.318 360.167 217.633 360.179C219.831 360.267 222.091 360.889 224.223 361.366C227.166 362.026 229.851 362.553 232.883 362.553C236.863 362.553 240.873 362.488 244.851 362.335C246.86 362.258 248.845 361.884 250.847 361.705C252.53 361.555 254.232 361.605 255.91 361.439C260.781 360.957 265.763 359.838 270.203 357.805C271.545 357.19 272.896 357.224 274.37 357.09C280.064 356.576 285.808 356.355 291.485 355.685C295.896 355.165 300.026 354.51 304.482 354.51C306 354.51 307.518 354.51 309.037 354.51C309.654 354.51 310.587 354.312 311.023 354.85C311.172 355.033 311.442 354.84 311.58 354.995C311.829 355.274 310.2 356.087 310.078 356.158C308.116 357.295 305.911 357.55 303.707 357.878C301.609 358.19 299.995 358.584 298.062 359.477C297.238 359.857 296.593 360.401 295.846 360.906C295.746 360.973 294.582 361.463 294.562 361.609C294.49 362.114 297.368 362.124 297.566 362.129C299.342 362.174 300.719 361.936 302.362 361.269C303.63 360.755 304.9 360.121 306.178 359.695C307.802 359.153 302.995 360.994 301.527 361.875C301.163 362.093 299.965 362.409 300.388 362.444C301.507 362.538 302.837 361.622 303.876 361.294C304.876 360.978 305.922 360.838 306.917 360.506C308.258 360.059 309.891 358.871 311.302 358.871C311.845 358.871 314.385 357.969 314.463 357.345C314.536 356.76 315.771 356.462 315.771 355.71C315.771 354.315 316.332 354.373 317.637 354.68C317.953 354.754 320.483 355.352 320.398 355.383C319.113 355.85 317.796 355.415 316.498 355.383C314.375 355.33 312.184 354.757 310.102 354.341C306.154 353.551 302.061 353.1 298.111 352.112" stroke="#F4F0EE" stroke-width="5" stroke-linecap="round"/>
<path d="M247.963 364.54C249.852 364.54 247.063 364.291 246.691 364.201C242.81 363.254 238.889 361.995 235.123 360.664C233.275 360.01 231.725 358.779 229.915 358.108C229.491 357.951 230.668 359.172 230.787 359.259C232.701 360.653 235.474 360.328 237.667 361.003C238.083 361.131 238.277 361.162 238.539 361.536C238.838 361.963 237.569 361.98 237.049 362.008C234.516 362.146 232.078 361.85 229.673 361.051C223.716 359.075 206.154 352.288 211.951 354.692C213.288 355.246 214.419 356.322 215.646 357.078C216.635 357.688 217.777 358.214 218.589 359.065C218.791 359.276 219.41 359.699 218.965 359.889C217.632 360.456 216.163 360.381 214.75 360.409C211.052 360.483 206.818 361.284 203.182 360.397C200.222 359.675 197.214 358.689 194.509 357.272C192.613 356.279 197.534 354.224 197.961 354.074C201.947 352.676 206.634 351.661 210.886 352.233C213.353 352.565 215.462 352.346 217.923 352.136C219.169 352.03 220.794 351.903 222.017 352.161C223.184 352.406 223.341 352.594 221.799 352.766C217.204 353.28 212.445 353.42 207.821 353.42C206.896 353.42 205.972 353.42 205.047 353.42C204.642 353.42 204.577 353.413 205.083 353.42C206.879 353.445 208.579 353.768 210.34 354.099C213.642 354.719 216.979 355.111 220.273 355.77C223.154 356.346 226.063 357.284 228.994 357.563C231.293 357.782 224.347 357.922 222.066 357.563C220.187 357.267 218.435 356.71 216.651 356.073C216.307 355.95 214.865 355.518 216.106 355.431C218.9 355.236 221.366 357.068 223.858 357.975C224.332 358.147 222.794 358.338 222.792 358.338C220.681 358.613 218.438 358.427 216.324 358.302C211.933 358.042 207.593 357.358 203.194 357.127C202.337 357.082 199.391 356.852 202.189 356.921C203.599 356.956 205.01 356.987 206.319 357.563C206.414 357.605 207.579 357.999 207.579 358.108C207.579 358.544 198.887 358.435 197.925 358.435C197.41 358.435 196.807 358.361 196.29 358.435C195.474 358.552 197.777 359.148 198.543 359.452C201.796 360.747 204.636 362.717 207.252 365.024C207.609 365.34 207.906 365.594 208.063 366.066" stroke="#F4F0EE" stroke-width="5" stroke-linecap="round"/>
<path d="M192.009 365.831C192.942 366.325 193.904 366.524 194.935 366.803C196.138 367.127 197.305 367.661 198.554 367.786C199.753 367.906 200.834 368.454 202.014 368.454C207.348 368.454 212.682 368.454 218.017 368.454C221.747 368.454 225.387 368.884 229.102 369.085C233.517 369.324 237.959 368.735 242.385 368.915C246.489 369.083 250.584 369.499 254.684 369.717C256.223 369.798 257.682 369.529 259.201 369.328C261.849 368.978 264.497 368.903 267.166 368.891C270.191 368.878 273.138 368.835 276.138 368.357C277.932 368.071 279.613 367.427 281.396 367.13C284.274 366.651 287.103 366.705 290.028 366.705C292.294 366.705 294.492 365.977 296.573 365.382C297.732 365.051 298.193 361.944 298.224 360.902C298.253 359.924 299.065 357.634 299.863 357.101C300.014 357.001 300.143 356.947 300.179 356.749C300.28 356.194 299.122 357.176 298.661 357.502C296.079 359.331 293.273 360.826 290.538 362.407C288.589 363.535 286.666 364.838 284.455 365.394C281.856 366.048 279.087 365.831 276.43 365.831C273.692 365.831 279.675 362.892 280.096 362.674C284.878 360.212 289.665 357.898 294.217 355.025C295.235 354.383 296.489 353.838 297.41 353.058C297.791 352.736 296.395 352.818 295.917 352.961C290.231 354.66 285.973 359.327 280.424 361.315C279.434 361.669 278.887 361.874 279.89 360.89C281.955 358.864 283.89 356.726 286.082 354.831C288.223 352.981 290.469 351.136 292.906 349.683C293.339 349.424 295.611 348.296 293.756 349.44C290.787 351.27 287.97 353.203 285.208 355.341C283.722 356.491 282.181 358.07 280.461 358.898C279.99 359.125 279.984 358.995 280.291 358.619C281.826 356.742 283.645 355.153 285.451 353.544C286.329 352.761 286.57 352.55 287.369 351.82C287.615 351.595 288.344 351.022 288.013 351.055C286.568 351.199 285.135 352.568 283.921 353.253C283.794 353.324 283.386 353.385 283.484 353.277C283.863 352.857 284.964 351.992 285.329 351.723C287.031 350.466 288.874 349.562 290.805 348.724C291.273 348.521 291.844 348.429 292.153 348.007C292.226 347.907 290.762 348.848 290.55 348.954C284.786 351.866 279.393 355.126 273.309 357.405C269.309 358.904 265.177 360.164 261.289 361.946C261.154 362.008 260.782 362.075 260.901 362.165C261.162 362.36 261.546 362.275 261.872 362.286C263.707 362.345 265.544 362.244 267.372 362.092C270.892 361.798 274.368 361.222 277.826 360.513C279.2 360.232 280.598 359.832 282.003 359.724C284.595 359.525 280.646 361.266 280.036 361.533C273.836 364.244 266.869 364.059 260.245 364.253C256.494 364.362 252.731 364.372 248.99 364.095C247.44 363.98 248.565 364.11 249.658 364.216C255.086 364.747 260.478 365.753 265.951 365.588C268.57 365.51 271.108 365.003 273.698 364.666C274.495 364.562 276.836 364.064 276.09 364.362C272.521 365.79 268.253 366.169 264.47 366.705C260.491 367.269 256.657 366.949 252.669 366.924C250.674 366.912 248.708 366.783 246.719 366.718C244.024 366.629 241.373 367.143 238.682 367.143C237.627 367.143 236.554 367.204 235.5 367.143C235.23 367.127 235.368 366.937 235.197 366.803C234.454 366.219 233.062 366.056 232.174 365.831C224.711 363.939 216.801 364.447 209.445 361.995C207.064 361.201 204.818 359.464 202.354 359.008C198.882 358.365 195.368 357.948 191.876 357.429C189.454 357.069 188.046 355.83 186.291 354.175C185.844 353.754 184.549 352.769 185.162 352.718C185.769 352.668 186.391 352.791 186.958 352.998C189.405 353.887 191.757 355.051 194.195 355.972C198.282 357.517 202.107 359.078 206.506 359.493C210.614 359.881 214.784 359.787 218.891 359.493" stroke="#F4F0EE" stroke-width="5" stroke-linecap="round"/>
<path d="M315.335 352.548C313.531 352.548 311.931 352.369 310.175 352.064C308.701 351.807 307.204 352.01 305.741 351.676C304.747 351.449 304.131 351.461 303.125 351.676C297.763 352.82 291.563 352.054 286.119 351.894C284.992 351.861 283.406 351.323 282.412 350.852C281.598 350.467 280.387 350.342 279.481 350.368C278.713 350.39 277.865 351.016 277.107 351.24C275.61 351.681 274.116 351.956 272.601 352.33C271.947 352.491 271.197 352.971 270.542 352.984C268.627 353.022 266.805 353.22 264.897 353.408C263.296 353.566 261.766 354.102 260.185 354.268C258.223 354.475 256.16 354.292 254.189 354.292C248.869 354.292 243.575 354.887 238.225 354.268C234.712 353.862 231.817 352.19 228.474 351.252C226.933 350.82 225.391 350.15 223.786 350.15C223.37 350.15 222.531 349.95 223.071 350.537C225.54 353.221 228.972 355.712 232.362 357.09C235.47 358.355 239.038 358.435 242.343 358.435C246.358 358.435 250.437 358.035 254.444 357.781C256.754 357.634 259.187 357.127 261.481 357.127C263.248 357.127 264.761 357.782 266.496 357.999" stroke="#F4F0EE" stroke-width="5" stroke-linecap="round"/>
<path d="M90.4289 113.46L238.225 51.9203C240.922 50.7977 243.873 52.8492 243.76 55.7675L241.106 124.435C241.017 126.74 239.001 128.492 236.706 128.26L90.4289 113.46L281.103 133.193C283.229 133.413 284.807 135.265 284.685 137.399L272.56 349.905C272.429 352.2 270.395 353.913 268.111 353.652L96.9608 334.069C94.9617 333.84 93.4436 332.162 93.4159 330.15L90.4289 113.46Z" fill="#F4F0EE"/>
<path d="M90.4289 113.46L238.225 51.9203C240.922 50.7977 243.873 52.8492 243.76 55.7675L241.106 124.435C241.017 126.74 239.001 128.492 236.706 128.26L90.4289 113.46ZM90.4289 113.46L93.4159 330.15C93.4436 332.162 94.9617 333.84 96.9608 334.069L268.111 353.652C270.395 353.913 272.429 352.2 272.56 349.905L284.685 137.399C284.807 135.265 283.229 133.413 281.103 133.193L90.4289 113.46Z" stroke="#4F4133" stroke-width="2"/>
<path d="M135.659 212.986C135.686 212.587 135.727 212.189 135.781 211.792C135.862 211.398 135.913 211.041 135.935 210.722C136.205 207.587 136.431 204.904 136.612 202.671C136.795 200.412 136.989 198.569 137.195 197.142C137.402 195.688 137.663 194.627 137.976 193.958C138.289 193.289 138.725 192.979 139.283 193.027C139.655 193.059 139.933 193.298 140.116 193.742C140.301 194.159 140.377 194.594 140.346 195.046L140.332 195.246C140.361 196.372 140.904 198.386 141.959 201.288C142.091 201.701 142.268 202.238 142.489 202.899C142.738 203.563 142.971 204.239 143.191 204.927C143.439 205.591 143.664 206.199 143.867 206.752C144.096 207.307 144.271 207.67 144.393 207.841C144.552 207.855 144.745 207.778 144.97 207.61C145.197 207.416 145.519 207.015 145.935 206.409C146.143 206.106 146.5 205.575 147.007 204.816C147.543 204.033 148.125 203.146 148.755 202.157C149.386 201.141 150.033 200.1 150.694 199.033C151.356 197.967 151.945 196.987 152.461 196.095C152.572 195.65 152.772 195.266 153.062 194.943C153.38 194.596 153.672 194.434 153.937 194.457C154.415 194.498 154.761 194.715 154.975 195.109C155.214 195.504 155.312 196.021 155.268 196.66C155.18 197.936 155.056 199.157 154.895 200.32C154.763 201.46 154.626 202.666 154.485 203.938L153.36 215.563C153.297 216.092 153.112 216.451 152.805 216.638C152.523 216.855 152.315 216.957 152.182 216.946C152.156 216.944 152.051 216.908 151.869 216.838C151.687 216.769 151.482 216.644 151.253 216.464C151.052 216.286 150.867 216.056 150.7 215.774C150.532 215.492 150.463 215.138 150.493 214.712C150.533 214.127 150.678 213.577 150.927 213.064C151.177 212.55 151.317 212.067 151.348 211.615L152.192 201.732C151.957 202.033 151.733 202.375 151.519 202.758C151.306 203.141 151.065 203.535 150.796 203.94L150.033 205.118C149.494 205.955 148.954 206.818 148.411 207.707C147.87 208.57 147.335 209.354 146.805 210.057C146.276 210.761 145.755 211.331 145.244 211.769C144.759 212.208 144.304 212.41 143.879 212.373C143.64 212.352 143.352 212.073 143.015 211.535C142.678 210.998 142.346 210.38 142.021 209.683C141.723 208.961 141.438 208.254 141.165 207.562C140.894 206.842 140.704 206.304 140.595 205.947L139.242 201.735C139.153 202.262 139.068 202.911 138.988 203.68C138.936 204.425 138.868 205.222 138.782 206.071C138.697 206.92 138.623 207.796 138.561 208.701C138.498 209.606 138.438 210.47 138.381 211.295C138.445 211.916 138.485 212.307 138.501 212.469C138.518 212.605 138.526 212.686 138.524 212.712C138.465 213.563 138.325 214.234 138.104 214.723C137.912 215.188 137.603 215.402 137.178 215.366C136.487 215.306 136.05 215.054 135.867 214.61C135.686 214.139 135.616 213.598 135.659 212.986ZM159.967 206.942C159.982 206.729 159.957 206.513 159.892 206.293C159.853 206.075 159.843 205.834 159.862 205.568C159.869 205.461 159.892 205.316 159.932 205.132C159.998 204.951 160.078 204.757 160.172 204.551C160.183 204.017 160.217 203.136 160.275 201.91C160.359 200.687 160.45 199.37 160.548 197.96C160.572 197.614 160.597 197.255 160.622 196.882C160.676 196.486 160.754 196.131 160.856 195.819C160.985 195.509 161.149 195.255 161.35 195.059C161.55 194.862 161.837 194.78 162.209 194.812C162.607 194.846 162.975 194.932 163.313 195.068C163.678 195.207 164.073 195.294 164.498 195.331C165.082 195.382 165.76 195.44 166.53 195.507C167.303 195.547 168.087 195.602 168.884 195.671C169.708 195.742 170.505 195.811 171.275 195.878C172.048 195.918 172.726 195.963 173.31 196.014C174.108 196.083 174.647 196.21 174.928 196.395C175.236 196.582 175.363 197.061 175.309 197.833C175.278 198.285 175.127 198.727 174.857 199.159C174.589 199.564 174.282 199.751 173.936 199.721C172.156 199.567 170.629 199.435 169.353 199.324C168.107 199.19 167.045 199.084 166.168 199.008C165.32 198.908 164.643 198.836 164.138 198.792C163.635 198.722 163.238 198.674 162.946 198.649C162.925 198.942 162.885 199.326 162.826 199.803C162.793 200.282 162.758 200.787 162.721 201.319C162.686 201.825 162.639 202.316 162.579 202.792C162.546 203.271 162.518 203.67 162.496 203.989L169.356 204.503C169.728 204.535 170.037 204.709 170.282 205.025C170.53 205.314 170.63 205.791 170.584 206.456C170.577 206.562 170.539 206.72 170.471 206.928C170.432 207.112 170.352 207.306 170.231 207.509C170.138 207.689 170.007 207.851 169.836 207.997C169.668 208.116 169.477 208.167 169.265 208.148C168.255 208.061 167.392 207.986 166.674 207.924C165.957 207.862 165.346 207.809 164.841 207.765C164.365 207.697 163.967 207.649 163.648 207.622C163.356 207.596 163.117 207.576 162.931 207.56C162.586 207.53 162.372 207.525 162.291 207.544L162.002 213.461C163.596 213.599 165.213 213.792 166.853 214.041C168.494 214.264 170.192 214.451 171.945 214.603C172.477 214.649 172.793 214.904 172.895 215.367C173.023 215.833 173.069 216.332 173.032 216.864C172.98 217.609 172.746 218.098 172.329 218.329C171.912 218.561 171.452 218.655 170.947 218.611C170.442 218.567 169.992 218.501 169.597 218.414C169.201 218.353 168.778 218.276 168.33 218.184C167.881 218.118 167.339 218.031 166.705 217.922C166.069 217.841 165.26 217.757 164.277 217.672C163.719 217.624 163.146 217.601 162.558 217.603C161.968 217.633 161.34 217.618 160.676 217.561C160.225 217.522 159.854 217.276 159.565 216.822C159.304 216.345 159.21 215.761 159.285 215.072L159.967 206.942ZM177.856 209.775C177.977 208.796 178.075 207.961 178.149 207.272C178.223 206.582 178.278 205.985 178.313 205.479C178.376 204.95 178.422 204.485 178.449 204.086C178.479 203.661 178.507 203.248 178.535 202.849C178.546 202.69 178.545 202.515 178.531 202.327C178.546 202.114 178.563 201.861 178.583 201.569C178.603 201.276 178.616 200.903 178.621 200.448C178.652 199.996 178.69 199.45 178.734 198.812C178.747 198.626 178.789 198.402 178.86 198.14C178.932 197.879 179.016 197.632 179.112 197.399C179.235 197.169 179.368 196.98 179.512 196.832C179.684 196.66 179.863 196.581 180.049 196.597C180.395 196.627 180.68 196.759 180.904 196.993C181.157 197.202 181.352 197.473 181.489 197.806C181.653 198.141 181.773 198.526 181.85 198.961C181.954 199.398 182.042 199.861 182.115 200.349C182.235 201.323 182.47 202.374 182.819 203.501C183.171 204.602 183.576 205.708 184.033 206.818C184.518 207.93 185.005 209.003 185.495 210.035C186.013 211.044 186.499 211.942 186.952 212.731C187.407 213.493 187.792 214.115 188.106 214.597C188.422 215.053 188.62 215.284 188.699 215.291C188.726 215.293 188.753 215.282 188.782 215.258C188.812 215.207 188.849 215.063 188.892 214.826C188.937 214.562 188.992 214.152 189.057 213.595C189.124 213.013 189.221 212.191 189.348 211.132C189.474 210.072 189.608 208.719 189.749 207.072C189.918 205.4 190.126 203.358 190.373 200.944C190.525 199.512 190.701 198.51 190.901 197.939C191.101 197.367 191.493 197.107 192.078 197.157C192.317 197.178 192.514 197.222 192.67 197.289C192.827 197.329 192.955 197.421 193.052 197.563C193.149 197.705 193.214 197.925 193.247 198.222C193.28 198.519 193.28 198.907 193.246 199.386C193.05 202.233 192.753 204.977 192.357 207.619C191.96 210.261 191.526 213.06 191.055 216.017L191.022 216.495C190.962 216.972 190.889 217.447 190.803 217.922C190.745 218.372 190.623 218.776 190.438 219.134C190.28 219.495 190.059 219.784 189.777 220.001C189.495 220.217 189.115 220.304 188.636 220.263C188.397 220.242 188.166 220.102 187.944 219.842C187.719 219.608 187.573 219.408 187.504 219.242C186.849 218.275 186.199 217.242 185.554 216.142C184.91 215.016 184.295 213.866 183.708 212.691C183.122 211.489 182.577 210.291 182.072 209.097C181.568 207.876 181.116 206.686 180.715 205.527C180.693 205.846 180.651 206.257 180.59 206.76C180.557 207.239 180.523 207.731 180.488 208.237C180.453 208.742 180.42 209.221 180.388 209.673C180.359 210.099 180.337 210.418 180.322 210.631C180.236 211.882 180.186 212.787 180.174 213.348C180.162 213.909 180.161 214.31 180.171 214.552C180.208 214.796 180.236 214.973 180.255 215.081C180.303 215.166 180.315 215.368 180.293 215.687C180.214 216.831 180.048 217.686 179.795 218.253C179.571 218.796 179.219 219.046 178.741 219.005C178.024 218.943 177.591 218.624 177.444 218.049C177.299 217.448 177.267 216.749 177.348 215.954L177.856 209.775ZM202.393 221.414C201.224 221.313 200.293 220.871 199.598 220.088C198.904 219.306 198.382 218.35 198.033 217.223C197.685 216.069 197.478 214.806 197.412 213.436C197.347 212.065 197.358 210.742 197.446 209.465L197.485 208.906C197.522 208.374 197.565 207.749 197.615 207.03C197.693 206.288 197.786 205.52 197.894 204.726C198.002 203.933 198.123 203.154 198.256 202.389C198.418 201.6 198.599 200.907 198.801 200.309C199.029 199.713 199.276 199.239 199.54 198.887C199.834 198.511 200.153 198.338 200.498 198.368C200.87 198.4 201.112 198.582 201.223 198.913C201.362 199.219 201.416 199.598 201.384 200.051C201.344 200.636 201.256 201.324 201.121 202.115C201.013 202.909 200.876 203.727 200.711 204.569C200.575 205.387 200.439 206.191 200.304 206.982C200.196 207.776 200.122 208.452 200.084 209.01C200.017 209.968 199.976 210.955 199.959 211.97C199.969 212.988 200.064 213.933 200.244 214.805C200.451 215.679 200.774 216.417 201.214 217.017C201.655 217.59 202.275 217.911 203.072 217.98C204.427 218.098 205.554 217.834 206.454 217.189C207.38 216.547 207.929 215.564 208.101 214.241L209.296 205.071C209.56 202.793 209.883 201.215 210.264 200.338C210.674 199.437 211.184 199.013 211.796 199.065C212.088 199.091 212.312 199.324 212.469 199.766C212.627 200.181 212.684 200.708 212.64 201.346C212.636 201.4 212.619 201.452 212.589 201.503C212.587 201.529 212.585 201.569 212.581 201.622L212.446 202.414C212.275 202.961 212.105 203.669 211.938 204.537C211.772 205.406 211.611 206.369 211.458 207.426C211.307 208.457 211.165 209.542 211.033 210.681C210.927 211.823 210.837 212.939 210.761 214.03C210.68 215.2 210.654 216.349 210.683 217.475C210.741 218.578 210.74 219.554 210.681 220.406C210.65 220.858 210.479 221.204 210.168 221.445C209.884 221.688 209.503 221.789 209.025 221.748C208.6 221.711 208.294 221.497 208.107 221.106C207.922 220.689 207.851 219.973 207.895 218.96C207.514 219.436 207.086 219.84 206.608 220.173C206.133 220.48 205.648 220.732 205.153 220.931C204.658 221.129 204.168 221.26 203.682 221.325C203.195 221.417 202.765 221.446 202.393 221.414Z" fill="#4F4133"/>
<path d="M291 332.697C293.679 332.179 296.67 332.703 299.253 331.848C299.687 331.704 300.049 331.452 300.483 331.318C300.999 331.158 301.521 330.972 302.024 330.787C302.717 330.532 303.239 330.053 303.943 329.839C304.509 329.668 305.085 329.666 305.586 329.348C305.603 329.337 306 329.098 305.969 329.083C305.896 329.046 305.656 329.106 305.614 329.114C305.032 329.223 304.469 329.388 303.89 329.505C302.222 329.843 300.511 329.886 298.878 330.337C297.84 330.623 296.776 330.904 295.663 330.947C295.351 330.959 295.03 331.051 294.721 331.028C294.646 331.023 294.869 331.016 294.94 330.997C295.691 330.801 296.394 330.482 297.097 330.192C298.41 329.652 299.738 329.229 301.12 328.833C301.125 328.832 301.697 328.697 301.479 328.684C300.576 328.63 299.623 328.757 298.779 328.972C297.814 329.218 296.832 329.502 295.947 329.91C295.682 330.032 295.2 330.288 295.728 329.868C296.696 329.095 297.9 328.617 299.05 328.088C299.46 327.9 299.837 327.679 300.206 327.436C300.302 327.373 300.382 327.309 300.5 327.284C300.531 327.278 300.631 327.185 300.661 327.249C300.729 327.392 299.888 327.892 299.774 327.975C299.372 328.263 298.78 328.331 298.299 328.485C297.656 328.691 297.033 328.9 296.436 329.189C296.127 329.339 295.865 329.51 295.496 329.526C295.127 329.542 294.761 329.582 294.39 329.574C293.996 329.566 293.69 329.713 293.332 329.812C293.07 329.885 292.644 330.006 292.462 330.169" stroke="#F4F0EE" stroke-width="4" stroke-linecap="round"/>
<path d="M312.763 313.724C312.49 314.268 312.315 314.866 312.107 315.438C311.78 316.337 311.41 317.227 311.132 318.143C311.092 318.276 310.929 318.545 311.052 318.55C311.219 318.557 311.215 318.212 311.277 318.034C311.628 317.03 311.948 316.014 312.282 315.004C312.648 313.896 313.167 312.851 313.531 311.749C313.696 311.25 313.909 310.739 313.967 310.217C314.013 309.803 313.947 309.493 313.823 309.127C313.812 309.095 313.756 308.985 313.762 309.027C313.884 309.846 313.891 310.708 313.894 311.545C313.903 313.481 313.676 315.309 312.964 317.142C312.778 317.62 312.591 318.095 312.43 318.583C312.276 319.049 312.8 318.347 312.868 318.268C313.382 317.67 313.819 317 314.286 316.359C314.606 315.918 315.016 315.497 315.233 314.981C315.338 314.73 315.411 314.46 315.497 314.202C315.534 314.091 315.425 314.423 315.387 314.533C315.141 315.254 314.852 315.815 314.438 316.434C313.568 317.735 312.916 319.231 312.213 320.638C311.487 322.092 310.636 323.43 309.796 324.812C309.355 325.537 308.825 326.421 308.143 326.914C307.951 327.053 307.766 327.26 307.596 327.433C307.439 327.593 307.339 327.636 307.46 327.359C307.717 326.769 308.072 326.23 308.391 325.677C309.073 324.498 309.741 323.313 310.445 322.149C311.048 321.15 311.632 320.14 312.343 319.224C312.354 319.21 312.895 318.482 312.816 318.484C312.227 318.502 311.443 319.121 310.974 319.486C309.994 320.248 309.108 321.162 308.138 321.944C307.484 322.47 306.9 323.068 306.302 323.668C306.292 323.678 305.992 324.042 306.121 323.827C307.135 322.138 308.421 320.644 309.617 319.11C310.171 318.401 310.879 317.674 311.175 316.78C311.208 316.678 311.242 316.576 311.275 316.475C311.36 316.219 311.045 316.961 310.91 317.192C310.316 318.207 309.467 319.044 308.788 319.995C307.976 321.133 307.207 322.321 306.444 323.5C306.028 324.143 305.49 324.721 304.889 325.143C304.071 325.717 303.231 326.162 302.384 326.657C302.334 326.686 301.836 327.031 302.058 326.943C302.827 326.636 303.571 326.339 304.365 326.146C305.568 325.854 306.516 325.028 307.636 324.473C307.738 324.423 308.691 323.998 308.137 324.387C306.097 325.819 303.794 326.529 301.708 327.825C301.081 328.216 300.652 328.937 300 329.242" stroke="#F4F0EE" stroke-width="4" stroke-linecap="round"/>
<path d="M310.325 305.133C310.366 305.115 310.455 305.318 310.468 305.342C310.612 305.602 310.839 305.846 310.983 306.106C311.365 306.793 311.235 307.474 311.538 308.155C311.757 308.649 311.79 309.202 311.809 309.686C311.83 310.186 312.078 310.713 312.125 311.222C312.158 311.572 312.048 311.964 312.193 312.323C312.196 312.331 312.235 312.377 312.236 312.374C312.424 311.971 312.546 311.543 312.653 311.113C312.86 310.277 313.009 309.43 313.057 308.554C313.069 308.334 313.011 308.115 313 307.892C312.975 307.401 313.057 306.929 313.116 306.456C313.144 306.229 313.08 305.855 313.399 306.363C314.071 307.431 313.92 308.745 313.729 309.725C313.593 310.424 313.366 311.125 313.143 311.799C313.101 311.927 313.121 311.991 313.142 312.125C313.154 312.201 313.176 312.281 313.262 312.353C313.627 312.657 313.936 311.993 314.005 311.884C314.43 311.212 314.427 310.43 314.459 309.647C314.477 309.213 314.478 308.801 314.401 308.355C314.33 307.944 314.39 307.449 314.08 307.046C313.908 306.824 313.65 306.632 313.499 306.402C313.269 306.053 313.264 305.628 313.162 305.27C313.004 304.717 312.794 304.036 312.284 303.537C311.915 303.176 311.623 302.882 311.417 302.473C311.201 302.047 310.911 301.67 310.419 301.352C310.409 301.345 310.242 301.183 310.242 301.183C310.262 301.243 310.652 301.421 310.716 301.459C311.005 301.629 311.238 301.803 311.46 302.019C311.776 302.326 312.263 302.664 312.491 303.001C312.669 303.264 312.856 303.503 313.087 303.749C313.571 304.262 313.633 304.843 313.784 305.399C313.852 305.65 313.978 305.874 314.06 306.122C314.166 306.448 314.103 306.762 314.138 307.081C314.201 307.664 314.331 308.206 314.153 308.745" stroke="#F4F0EE" stroke-width="5" stroke-linecap="round"/>
<path d="M298.998 302.305C298.404 302.566 297.819 302.851 297.226 303.115C297.019 303.207 296.729 303.4 296.503 303.383C296.297 303.368 296.085 303.646 295.985 303.814C295.905 303.948 295.842 304.078 295.695 304.107C295.616 304.122 295.047 304.318 295.259 304.153C295.902 303.65 296.532 303.126 297.173 302.621C297.889 302.056 298.637 301.683 299.44 301.324C299.536 301.281 299.777 301.229 299.863 301.154C299.911 301.112 299.745 301.178 299.685 301.191C299.327 301.267 298.975 301.342 298.624 301.47C297.604 301.842 296.592 302.374 295.607 302.862C295.209 303.059 294.813 303.285 294.382 303.346C293.87 303.419 294.692 302.865 294.744 302.826C296.178 301.748 297.744 300.889 299.227 299.902C299.689 299.595 300.144 299.279 300.63 299.025C300.987 298.838 299.894 299.341 299.537 299.528C298.17 300.246 296.653 300.248 295.237 300.796C294.695 301.007 294.16 301.229 293.612 301.417C293.595 301.422 293.217 301.593 293.308 301.446C293.722 300.77 294.711 300.37 295.337 300.074C296.516 299.518 297.707 298.984 298.891 298.443C298.999 298.394 299.255 298.233 299.229 298.358C299.212 298.438 298.891 298.611 298.874 298.622C298.551 298.816 298.22 298.976 297.872 299.094C297.319 299.282 296.75 299.386 296.197 299.575C295.764 299.724 295.349 299.924 294.91 300.055C294.079 300.304 294.984 299.664 295.27 299.514C296.474 298.881 297.729 298.358 298.98 297.891C299.624 297.651 300.16 297.473 300.833 297.445C301.202 297.429 301.593 297.431 301.96 297.368C302.351 297.3 302.752 297.351 303.146 297.273C303.581 297.187 303.96 297.178 304.39 297.225C305.079 297.3 305.764 297.609 306.367 297.939C306.553 298.041 306.735 298.175 306.933 298.249C307.134 298.324 306.728 298.256 306.726 298.255C305.104 298.089 303.352 298.208 301.713 298.423C300.858 298.535 300.022 298.789 299.19 299.067C298.755 299.211 298.173 299.304 297.782 299.595C297.661 299.685 298.063 299.605 298.204 299.585C299.243 299.436 300.284 299.307 301.322 299.135C302.111 299.003 302.904 298.888 303.687 298.922C303.704 298.923 303.924 298.939 303.893 298.983C303.803 299.107 303.573 299.231 303.463 299.301C302.969 299.611 302.452 299.858 301.929 300.091C300.836 300.578 299.645 301.102 298.49 301.303C298.407 301.318 298.156 301.322 298.24 301.305C298.824 301.19 299.444 301.237 300.033 301.177C300.927 301.084 301.771 300.695 302.645 300.447" stroke="#F4F0EE" stroke-width="2" stroke-linecap="round"/>
<path d="M305.291 300.692C306.392 301.156 307.538 301.434 308.667 301.807C308.893 301.882 309.113 301.971 309.32 302.094C309.557 302.235 309.261 302.211 309.146 302.162C307.864 301.621 306.832 300.616 305.718 299.751C305.447 299.54 305.262 299.274 305.023 299.022C304.991 298.988 304.78 298.83 304.969 298.8C305.715 298.679 306.563 298.973 307.221 299.237C308.041 299.566 308.891 299.966 309.577 300.578C309.73 300.715 310.407 301.421 309.75 301.072C308.667 300.496 307.776 299.521 306.722 298.879C306.444 298.71 306.133 298.584 305.867 298.4C305.826 298.372 305.874 298.279 305.889 298.234C305.971 297.984 306.606 298.111 306.725 298.121C307.101 298.153 307.847 298.145 308.138 298.482C308.331 298.706 308.49 299.027 308.579 299.348C308.712 299.826 308.975 300.247 309.081 300.744C309.137 301.011 309.261 301.353 309.406 301.556C309.763 302.058 309.927 302.74 310.113 303.375C310.267 303.899 310.388 304.439 310.468 304.998C310.621 306.072 310.485 307.268 310.576 308.369C310.599 308.639 310.658 308.896 310.677 309.165C310.684 309.265 310.748 309.408 310.682 309.25C310.418 308.621 309.984 308.125 309.756 307.477C309.606 307.049 309.662 306.597 309.48 306.182C309.301 305.77 309.062 305.269 308.749 305.004C308.607 304.884 308.425 304.631 308.332 304.454C308.133 304.075 307.832 303.799 307.629 303.431C307.463 303.129 307.328 302.884 307.206 302.528C307.007 301.944 306.554 301.578 306.097 301.347C305.625 301.109 304.88 300.737 304.332 300.835C303.653 300.955 303.121 301.174 302.452 301.488C302.098 301.655 301.751 301.799 301.402 301.978C301.134 302.116 300.892 302.127 300.635 302.26C300.434 302.364 300.168 302.292 299.942 302.393C299.686 302.506 299.418 302.616 299.182 302.779" stroke="#F4F0EE" stroke-width="3" stroke-linecap="round"/>
<path d="M292.769 299.879C297.132 297.588 307.121 294.363 312.171 299.789C318.416 306.499 320.36 313.555 310.601 327.14C310.393 327.43 310.152 327.701 309.876 327.928C306.517 330.7 297.926 335.531 287.162 335.113M292.9 328.737C298.874 327.661 309.983 323.298 309.612 311.327C309.149 296.363 293.18 306.619 295.436 306.642" stroke="#4F4133" stroke-width="2"/>
<path d="M224.617 269.785C248.596 267.823 275.028 270.346 280.75 273.99C291.432 277.354 295.01 285.297 295.464 288.848C298.462 310.433 293.285 332.578 284.292 343.511C275.3 354.444 262.22 355.565 245.053 355.565C225.909 355.565 208.267 345.193 199.002 328.934C191.591 315.927 194.336 293.987 196.635 284.643C197.718 278.72 205.595 271.342 224.617 269.785Z" fill="#F4F0EE"/>
<path d="M280.75 273.99C275.028 270.346 248.596 267.823 224.617 269.785C205.595 271.342 197.718 278.72 196.635 284.643M280.75 273.99C286.472 277.635 293.285 279.317 292.467 288.848C291.65 298.379 253.773 306.508 219.984 301.182C213.263 299.033 199.275 293.557 197.095 288.848C196.532 287.631 196.353 286.186 196.635 284.643M280.75 273.99C291.432 277.354 295.01 285.297 295.464 288.848C298.462 310.433 293.285 332.578 284.292 343.511C275.3 354.444 262.22 355.565 245.053 355.565C225.909 355.565 208.267 345.193 199.002 328.934C191.591 315.927 194.336 293.987 196.635 284.643" stroke="#4F4133" stroke-width="2.5"/>
<path d="M224.616 351.64C225.525 353.603 229.085 358.088 238.241 359.209C249.685 360.611 255.135 359.209 258.133 358.368C261.13 357.527 270.395 353.042 270.395 352.481" stroke="#4F4133" stroke-width="2.5"/>
<path d="M217.259 347.716C204.633 348.557 173.115 351.584 173.115 355.845C173.115 361.171 182.925 376.309 268.76 370.983" stroke="#4F4133" stroke-width="2.5"/>
<path d="M280.749 347.435C293.375 348.276 322.985 349.342 322.985 353.602C322.985 358.929 307.726 373.506 221.891 371.824" stroke="#4F4133" stroke-width="2.5"/>
<path d="M232.047 361.487C226.761 360.818 221.491 360.126 216.276 359.016C216.254 359.012 211.563 357.968 211.709 358.229C212.205 359.115 213.2 359.831 213.938 360.506C214.98 361.459 210.406 360.528 210.341 360.518C207.534 360.086 204.839 359.368 202.104 358.629C198.511 357.658 202.58 358.778 199.609 357.999C199.255 357.906 198.288 357.447 198.555 357.696C199.798 358.857 201.523 359.623 202.952 360.506C205.909 362.335 208.498 364.456 211.116 366.72" stroke="#F4F0EE" stroke-width="2" stroke-linecap="round"/>
</svg>
